{
.appVersion = "3180";
.formatVersion = 3;
DisplayStrings = (
"഼",
"॒",
"ൎ",
"഻"
);
axes = (
{
name = Weight;
tag = wght;
},
{
name = Width;
tag = wdth;
}
);
classes = (
{
code = "exclam.mlym quotedbl.mlym quotesingle.mlym parenright.mlym asterisk.mlym question.mlym bracketright.mlym braceright.mlym quoteright.mlym quotedblright.mlym
";
name = dist;
},
{

glyphs = (
{
glyphname = .notdef;
lastChange = "2021-10-11 13:59:02 +0000";
layers = (
{
layerId = "4D83A9DC-8FB7-446F-9A35-7DCC3E64AC98";
shapes = (
{
closed = 1;
nodes = (
(505,0,l),
(505,714,l),
(94,714,l),
(94,0,l)
);
},
{
closed = 1;
nodes = (
(145,663,l),
(454,663,l),
(454,51,l),
(145,51,l)
);
}
);
width = 600;
},
{
layerId = "EAD1E2BE-4A7F-4E9C-B677-063429CCD35D";
shapes = (
{
closed = 1;
nodes = (
(505,0,l),
(505,714,l),
(94,714,l),
(94,0,l)
);
},
{
closed = 1;
nodes = (
(145,663,l),
(454,663,l),
(454,51,l),
(145,51,l)
);
}
);
width = 600;
},
{
layerId = "1D67CB39-8CE8-4679-A081-F58F86CEB03B";
shapes = (
{
closed = 1;
nodes = (
(505,0,l),
(505,714,l),
(94,714,l),
(94,0,l)
);
},
{
closed = 1;
nodes = (
(145,663,l),
(454,663,l),
(454,51,l),
(145,51,l)
);
}
);
width = 600;
},
{
layerId = "C7FB44D8-0AA6-40A2-9E07-7E0254BA0D6B";
shapes = (
{
closed = 1;
nodes = (
(505,0,l),
(505,714,l),
(94,714,l),
(94,0,l)
);
},
{
closed = 1;
nodes = (
(145,663,l),
(454,663,l),
(454,51,l),
(145,51,l)
);
}
);
width = 600;
},
{
layerId = UUID0;
shapes = (
{
closed = 1;
nodes = (
(505,0,l),
(505,714,l),
(94,714,l),
(94,0,l)
);
},
{
closed = 1;
nodes = (
(145,663,l),
(454,663,l),
(454,51,l),
(145,51,l)
);
}
);
width = 600;
},
{
layerId = "43C3EF94-D8C4-4226-80FB-D661263DD944";
shapes = (
{
closed = 1;
nodes = (
(505,0,l),
(505,714,l),
(94,714,l),
(94,0,l)
);
},
{
closed = 1;
nodes = (
(145,663,l),
(454,663,l),
(454,51,l),
(145,51,l)
);
}
);
width = 600;
},
{
layerId = "7D50CFCE-8270-4149-A6BB-939E1A586542";
shapes = (
{
closed = 1;
nodes = (
(505,0,l),
(505,714,l),
(94,714,l),
(94,0,l)
);
},
{
closed = 1;
nodes = (
(145,663,l),
(454,663,l),
(454,51,l),
(145,51,l)
);
}
);
width = 600;
}
);
script = malayalam;
},
{
glyphname = uni0D00;
lastChange = "2023-03-20 12:03:17 +0000";
layers = (
{
anchors = (
{
name = _top;
pos = (-278,450);
}
);
layerId = "4D83A9DC-8FB7-446F-9A35-7DCC3E64AC98";
shapes = (
{
closed = 1;
nodes = (
(-410,652,o),
(-361,592,o),
(-279,592,cs),
(-197,592,o),
(-146,650,o),
(-146,728,cs),
(-146,805,o),
(-197,864,o),
(-279,864,cs),
(-360,864,o),
(-410,804,o),
(-410,728,cs)
);
},
{
closed = 1;
nodes = (
(-383,791,o),
(-346,838,o),
(-279,838,cs),
(-208,838,o),
(-173,791,o),
(-173,729,cs),
(-173,665,o),
(-208,618,o),
(-279,618,cs),
(-348,618,o),
(-383,665,o),
(-383,729,cs)
);
}
);
width = 0;
},
{
anchors = (
{
name = _top;
pos = (-278,468);
}
);
layerId = "EAD1E2BE-4A7F-4E9C-B677-063429CCD35D";
shapes = (
{
closed = 1;
nodes = (
(-429,641,o),
(-371,578,o),
(-278,578,cs),
(-185,578,o),
(-126,640,o),
(-126,721,cs),
(-126,802,o),
(-185,864,o),
(-278,864,cs),
(-370,864,o),
(-429,801,o),
(-429,721,cs)
);
},
{
closed = 1;
nodes = (
(-356,762,o),
(-330,799,o),
(-278,799,cs),
(-225,799,o),
(-199,762,o),
(-199,722,cs),
(-199,681,o),
(-224,643,o),
(-278,643,cs),
(-331,643,o),
(-356,681,o),
(-356,722,cs)
);
}
);
width = 0;
},
{
anchors = (
{
name = _top;
pos = (-278,444);
}
);
layerId = "1D67CB39-8CE8-4679-A081-F58F86CEB03B";
shapes = (
{
closed = 1;
nodes = (
(-449,628,o),
(-386,562,o),
(-278,562,cs),
(-170,562,o),
(-106,628,o),
(-106,713,cs),
(-106,800,o),
(-172,864,o),
(-278,864,cs),
(-384,864,o),
(-449,799,o),
(-449,713,cs)
);
},
{
closed = 1;
nodes = (
(-344,747,o),
(-323,777,o),
(-278,777,cs),
(-235,777,o),
(-211,748,o),
(-211,714,cs),
(-211,681,o),
(-232,649,o),
(-278,649,cs),
(-324,649,o),
(-344,680,o),
(-344,713,cs)
);
}
);
width = 0;
},
{
anchors = (
{
name = _top;
pos = (-278,431);
}
);
layerId = "43C3EF94-D8C4-4226-80FB-D661263DD944";
shapes = (
{
closed = 1;
nodes = (
(-462,620,o),
(-396,552,o),
(-278,552,cs),
(-160,552,o),
(-93,620,o),
(-93,708,cs),
(-93,798,o),
(-163,864,o),
(-278,864,cs),
(-393,864,o),
(-462,797,o),
(-462,708,cs)
);
},
{
closed = 1;
nodes = (
(-336,738,o),
(-318,763,o),
(-278,763,cs),
(-241,763,o),
(-219,739,o),
(-219,709,cs),
(-219,681,o),
(-237,653,o),
(-278,653,cs),
(-319,653,o),
(-336,679,o),
(-336,708,cs)
);
}
);
width = 0;
},
{
anchors = (
{
name = _top;
pos = (-279,450);
}
);
layerId = UUID0;
shapes = (
{
closed = 1;
nodes = (
(-380,640,o),
(-338,592,o),
(-279,592,cs),
(-220,592,o),
(-178,640,o),
(-178,728,cs),
(-178,816,o),
(-220,864,o),
(-279,864,cs),
(-338,864,o),
(-380,816,o),
(-380,728,cs)
);
},
{
closed = 1;
nodes = (
(-353,799,o),
(-326,839,o),
(-279,839,cs),
(-232,839,o),
(-205,799,o),
(-205,728,cs),
(-205,657,o),
(-232,617,o),
(-279,617,cs),
(-326,617,o),
(-353,657,o),
(-353,728,cs)
);
}
);
width = 0;
},
{
anchors = (
{
name = _top;
pos = (-278,468);
}
);
layerId = "C7FB44D8-0AA6-40A2-9E07-7E0254BA0D6B";
shapes = (
{
closed = 1;
nodes = (
(-400,630,o),
(-351,578,o),
(-279,578,cs),
(-206,578,o),
(-156,630,o),
(-156,721,cs),
(-156,813,o),
(-207,864,o),
(-279,864,cs),
(-350,864,o),
(-400,812,o),
(-400,721,cs)
);
},
{
closed = 1;
nodes = (
(-334,769,o),
(-316,803,o),
(-279,803,cs),
(-241,803,o),
(-222,769,o),
(-222,722,cs),
(-222,675,o),
(-240,639,o),
(-279,639,cs),
(-318,639,o),
(-334,675,o),
(-334,722,cs)
);
}
);
width = 0;
},
{
anchors = (
{
name = _top;
pos = (-279,432);
}
);
layerId = "7D50CFCE-8270-4149-A6BB-939E1A586542";
shapes = (
{
closed = 1;
nodes = (
(-430,616,o),
(-381,552,o),
(-279,552,cs),
(-177,552,o),
(-127,617,o),
(-127,708,cs),
(-127,799,o),
(-179,864,o),
(-279,864,cs),
(-379,864,o),
(-430,799,o),
(-430,708,cs)
);
},
{
closed = 1;
nodes = (
(-321,744,o),
(-310,769,o),
(-279,769,cs),
(-248,769,o),
(-236,744,o),
(-236,708,cs),
(-236,672,o),
(-248,647,o),
(-279,647,cs),
(-310,647,o),
(-321,672,o),
(-321,708,cs)
);
}
);
width = 0;
}
);
script = malayalam;
unicode = 3328;
},
{
category = Mark;
glyphname = candrabindumlym;
lastChange = "2023-03-20 12:03:17 +0000";
layers = (
{
anchors = (
{
name = _top;
pos = (-278,528);
}
);
layerId = "4D83A9DC-8FB7-446F-9A35-7DCC3E64AC98";
shapes = (
{
closed = 1;
nodes = (
(-190,672,o),
(-131,717,o),
(-131,806,cs),
(-131,818,o),
(-132,839,o),
(-136,855,c),
(-162,849,l),
(-158,835,o),
(-157,820,o),
(-157,807,cs),
(-157,739,o),
(-193,698,o),
(-278,698,cs),
(-357,698,o),
(-398,729,o),
(-398,807,cs),
(-398,819,o),
(-397,835,o),
(-393,849,c),
(-418,855,l),
(-423,839,o),
(-424,819,o),
(-424,808,cs),
(-424,716,o),
(-371,672,o),
(-278,672,cs)
);
},
{
closed = 1;
nodes = (
(-255,779,o),
(-252,793,o),
(-252,810,cs),
(-252,826,o),
(-255,841,o),
(-278,841,cs),
(-299,841,o),
(-304,826,o),
(-304,810,cs),
(-304,793,o),
(-299,779,o),
(-278,779,cs)
);
}
);
width = 0;
},
{
anchors = (
{
name = _top;
pos = (-278,528);
}
);
layerId = "EAD1E2BE-4A7F-4E9C-B677-063429CCD35D";
shapes = (
{
closed = 1;
nodes = (
(-170,652,o),
(-104,710,o),
(-104,807,cs),
(-104,824,o),
(-107,846,o),
(-111,862,c),
(-180,848,l),
(-176,834,o),
(-175,821,o),
(-175,811,cs),
(-175,741,o),
(-223,717,o),
(-278,717,cs),
(-331,717,o),
(-381,737,o),
(-381,809,cs),
(-381,820,o),
(-380,834,o),
(-376,848,c),
(-444,862,l),
(-449,846,o),
(-452,826,o),
(-452,807,cs),
(-452,708,o),
(-390,652,o),
(-278,652,cs)
);
},
{
closed = 1;
nodes = (
(-250,759,o),
(-228,779,o),
(-228,810,cs),
(-228,838,o),
(-250,860,o),
(-279,860,cs),
(-308,860,o),
(-329,838,o),
(-329,810,cs),
(-329,779,o),
(-308,759,o),
(-279,759,cs)
);
}
);
width = 0;
},
{
anchors = (
{
name = _top;
pos = (-278,516);
}
);
layerId = "1D67CB39-8CE8-4679-A081-F58F86CEB03B";
shapes = (
{
closed = 1;
nodes = (
(-150,636,o),
(-83,701,o),
(-83,806,cs),
(-83,828,o),
(-86,847,o),
(-90,863,c),
(-183,845,l),
(-179,831,o),
(-178,820,o),
(-178,810,cs),
(-178,741,o),
(-229,726,o),
(-278,726,cs),
(-332,726,o),
(-378,743,o),
(-378,808,cs),
(-378,819,o),
(-377,831,o),
(-373,845,c),
(-465,864,l),
(-470,848,o),
(-473,831,o),
(-473,804,cs),
(-473,701,o),
(-408,636,o),
(-278,636,cs)
);
},
{
closed = 1;
nodes = (
(-234,752,o),
(-217,774,o),
(-217,807,cs),
(-217,838,o),
(-234,862,o),
(-279,862,cs),
(-324,862,o),
(-340,838,o),
(-340,807,cs),
(-340,774,o),
(-324,752,o),
(-279,752,cs)
);
}
);
width = 0;
},
{
anchors = (
{
name = _top;
pos = (-278,528);
}
);
layerId = "C7FB44D8-0AA6-40A2-9E07-7E0254BA0D6B";
shapes = (
{
closed = 1;
nodes = (
(-193,655,o),
(-138,708,o),
(-138,811,cs),
(-138,826,o),
(-141,846,o),
(-145,862,c),
(-208,855,l),
(-204,840,o),
(-203,821,o),
(-203,812,cs),
(-203,738,o),
(-233,717,o),
(-279,717,cs),
(-323,717,o),
(-354,741,o),
(-354,810,cs),
(-354,823,o),
(-352,840,o),
(-349,854,c),
(-412,863,l),
(-416,847,o),
(-419,828,o),
(-419,811,cs),
(-419,705,o),
(-363,655,o),
(-278,655,cs)
);
},
{
closed = 1;
nodes = (
(-254,760,o),
(-237,778,o),
(-237,810,cs),
(-237,839,o),
(-254,858,o),
(-279,858,cs),
(-305,858,o),
(-320,838,o),
(-320,809,cs),
(-320,778,o),
(-305,760,o),
(-279,760,cs)
);
}
);
width = 0;
},
{
anchors = (
{
name = _top;
pos = (-279,528);
}
);
layerId = UUID0;
shapes = (
{
closed = 1;
nodes = (
(-214,672,o),
(-162,711,o),
(-162,808,cs),
(-162,824,o),
(-164,842,o),
(-168,860,c),
(-193,856,l),
(-190,842,o),
(-188,822,o),
(-188,807,cs),
(-188,736,o),
(-217,698,o),
(-279,698,cs),
(-337,698,o),
(-368,730,o),
(-368,807,cs),
(-368,821,o),
(-366,841,o),
(-363,855,c),
(-388,859,l),
(-392,843,o),
(-394,821,o),
(-394,807,cs),
(-394,710,o),
(-345,672,o),
(-279,672,cs)
);
},
{
closed = 1;
nodes = (
(-256,779,o),
(-252,793,o),
(-252,810,cs),
(-252,826,o),
(-255,841,o),
(-278,841,cs),
(-299,841,o),
(-304,826,o),
(-304,810,cs),
(-304,793,o),
(-299,779,o),
(-278,779,cs)
);
}
);
width = 0;
},
{
anchors = (
{
name = _top;
pos = (-278,508);
}
);
layerId = "43C3EF94-D8C4-4226-80FB-D661263DD944";
shapes = (
{
closed = 1;
nodes = (
(-126,631,o),
(-67,699,o),
(-67,800,cs),
(-67,825,o),
(-71,847,o),
(-76,863,c),
(-180,843,l),
(-176,829,o),
(-175,819,o),
(-175,809,cs),
(-175,744,o),
(-224,727,o),
(-278,727,cs),
(-341,727,o),
(-382,746,o),
(-382,807,cs),
(-382,818,o),
(-381,829,o),
(-377,843,c),
(-481,864,l),
(-486,848,o),
(-490,827,o),
(-490,799,cs),
(-490,701,o),
(-430,631,o),
(-278,631,cs)
);
},
{
closed = 1;
nodes = (
(-227,748,o),
(-210,771,o),
(-210,804,cs),
(-210,838,o),
(-226,863,o),
(-279,863,cs),
(-331,863,o),
(-347,838,o),
(-347,807,cs),
(-347,771,o),
(-329,748,o),
(-279,748,cs)
);
}
);
width = 0;
},
{
anchors = (
{
name = _top;
pos = (-279,508);
}
);
layerId = "7D50CFCE-8270-4149-A6BB-939E1A586542";
shapes = (
{
closed = 1;
nodes = (
(-154,631,o),
(-100,693,o),
(-100,800,cs),
(-100,825,o),
(-104,847,o),
(-108,863,c),
(-202,853,l),
(-199,839,o),
(-198,819,o),
(-198,812,cs),
(-198,744,o),
(-236,723,o),
(-278,723,cs),
(-329,723,o),
(-359,746,o),
(-359,810,cs),
(-359,823,o),
(-357,839,o),
(-354,853,c),
(-449,864,l),
(-453,848,o),
(-457,823,o),
(-457,799,cs),
(-457,698,o),
(-401,631,o),
(-278,631,cs)
);
},
{
closed = 1;
nodes = (
(-244,748,o),
(-225,771,o),
(-225,805,cs),
(-225,838,o),
(-241,863,o),
(-279,863,cs),
(-315,863,o),
(-332,838,o),
(-332,806,cs),
(-332,771,o),
(-314,748,o),
(-279,748,cs)
);
}
);
width = 0;
}
);
script = malayalam;
subCategory = Nonspacing;
unicode = 3329;
},
{
glyphname = anusvaramlym;
lastChange = "2021-10-11 13:59:02 +0000";
layers = (
{
layerId = "4D83A9DC-8FB7-446F-9A35-7DCC3E64AC98";
shapes = (
{
closed = 1;
nodes = (
(307,-12,o),
(373,58,o),
(373,167,cs),
(373,275,o),
(306,344,o),
(206,344,cs),
(105,344,o),
(38,274,o),
(38,166,cs),
(38,57,o),
(105,-12,o),
(205,-12,cs)
);
},
{
closed = 1;
nodes = (
(289,318,o),
(346,265,o),
(346,167,cs),
(346,67,o),
(289,14,o),
(205,14,cs),
(122,14,o),
(65,67,o),
(65,166,cs),
(65,265,o),
(122,318,o),
(206,318,cs)
);
}
);
width = 411;
},
{
layerId = "EAD1E2BE-4A7F-4E9C-B677-063429CCD35D";
shapes = (
{
closed = 1;
nodes = (
(341,-12,o),
(421,62,o),
(421,176,cs),
(421,291,o),
(341,363,o),
(226,363,cs),
(112,363,o),
(32,288,o),
(32,176,cs),
(32,65,o),
(106,-12,o),
(226,-12,cs)
);
},
{
closed = 1;
nodes = (
(290,295,o),
(337,256,o),
(337,176,cs),
(337,95,o),
(289,56,o),
(226,56,cs),
(164,56,o),
(116,95,o),
(116,175,cs),
(116,256,o),
(163,295,o),
(226,295,cs)
);
}
);
width = 453;
},
{
layerId = "1D67CB39-8CE8-4679-A081-F58F86CEB03B";
shapes = (
{
closed = 1;
nodes = (
(381,-12,o),
(473,63,o),
(473,180,cs),
(473,298,o),
(381,372,o),
(250,372,cs),
(121,372,o),
(29,294,o),
(29,180,cs),
(29,67,o),
(114,-12,o),
(251,-12,cs)
);
},
{
closed = 1;
nodes = (
(300,270,o),
(337,240,o),
(337,180,cs),
(337,119,o),
(299,90,o),
(251,90,cs),
(202,90,o),
(165,121,o),
(165,179,cs),
(165,240,o),
(202,270,o),
(250,270,cs)
);
}
);
width = 502;
},
{
layerId = "C7FB44D8-0AA6-40A2-9E07-7E0254BA0D6B";
shapes = (
{
closed = 1;
nodes = (
(269,-12,o),
(330,54,o),
(330,176,cs),
(330,299,o),
(269,363,o),
(181,363,cs),
(93,363,o),
(32,297,o),
(32,176,cs),
(32,57,o),
(88,-12,o),
(181,-12,cs)
);
},
{
closed = 1;
nodes = (
(225,299,o),
(254,265,o),
(254,176,cs),
(254,86,o),
(224,52,o),
(181,52,cs),
(138,52,o),
(108,86,o),
(108,175,cs),
(108,265,o),
(137,299,o),
(181,299,cs)
);
}
);
width = 362;
},
{
layerId = UUID0;
shapes = (
{
closed = 1;
nodes = (
(239,-12,o),
(286,51,o),
(286,167,cs),
(286,284,o),
(238,344,o),
(162,344,cs),
(83,344,o),
(36,281,o),
(36,166,cs),
(36,50,o),
(82,-12,o),
(161,-12,cs)
);
},
{
closed = 1;
nodes = (
(225,318,o),
(259,267,o),
(259,167,cs),
(259,65,o),
(224,14,o),
(161,14,cs),
(97,14,o),
(63,65,o),
(63,166,cs),
(63,267,o),
(98,318,o),
(162,318,cs)
);
}
);
width = 322;
},
{
layerId = "43C3EF94-D8C4-4226-80FB-D661263DD944";
shapes = (
{
closed = 1;
nodes = (
(421,-12,o),
(506,65,o),
(506,185,cs),
(506,305,o),
(418,382,o),
(265,382,cs),
(117,382,o),
(27,301,o),
(27,185,cs),
(27,69,o),
(110,-12,o),
(267,-12,cs)
);
},
{
closed = 1;
nodes = (
(306,258,o),
(336,233,o),
(336,185,cs),
(336,135,o),
(305,112,o),
(267,112,cs),
(226,112,o),
(197,139,o),
(197,184,cs),
(197,233,o),
(227,258,o),
(265,258,cs)
);
}
);
width = 533;
},
{
layerId = "7D50CFCE-8270-4149-A6BB-939E1A586542";
shapes = (
{
closed = 1;
nodes = (
(352,-12,o),
(411,68,o),
(411,185,cs),
(411,305,o),
(349,382,o),
(218,382,cs),
(93,382,o),
(28,305,o),
(28,185,cs),
(28,69,o),
(89,-12,o),
(220,-12,cs)
);
},
{
closed = 1;
nodes = (
(247,263,o),
(265,245,o),
(265,185,cs),
(265,123,o),
(245,107,o),
(220,107,cs),
(191,107,o),
(174,127,o),
(174,184,cs),
(174,245,o),
(193,263,o),
(219,263,cs)
);
}
);
width = 439;
}
);
script = malayalam;
unicode = 3330;
},
{
glyphname = visargamlym;
lastChange = "2021-10-11 13:59:02 +0000";
layers = (
{
layerId = "4D83A9DC-8FB7-446F-9A35-7DCC3E64AC98";
shapes = (
{
closed = 1;
nodes = (
(38,365,o),
(82,310,o),
(155,310,cs),
(228,310,o),
(274,363,o),
(274,434,cs),
(274,504,o),
(228,558,o),
(155,558,cs),
(83,558,o),
(38,503,o),
(38,434,cs)
);
},
{
closed = 1;
nodes = (
(65,491,o),
(98,532,o),
(155,532,cs),
(216,532,o),
(247,491,o),
(247,435,cs),
(247,377,o),
(216,336,o),
(155,336,cs),
(96,336,o),
(65,377,o),
(65,435,cs)
);
},
{
closed = 1;
nodes = (
(38,43,o),
(82,-12,o),
(155,-12,cs),
(228,-12,o),
(274,41,o),
(274,112,cs),
(274,182,o),
(228,236,o),
(155,236,cs),
(83,236,o),
(38,181,o),
(38,112,cs)
);
},
{
closed = 1;
nodes = (
(65,169,o),
(98,210,o),
(155,210,cs),
(216,210,o),
(247,169,o),
(247,113,cs),
(247,55,o),
(216,14,o),
(155,14,cs),
(96,14,o),
(65,55,o),
(65,113,cs)
);
}
);
width = 312;
},
{
layerId = "EAD1E2BE-4A7F-4E9C-B677-063429CCD35D";
shapes = (
{
closed = 1;
nodes = (
(33,363,o),
(85,306,o),
(168,306,cs),
(251,306,o),
(304,362,o),
(304,436,cs),
(304,510,o),
(251,566,o),
(168,566,cs),
(86,566,o),
(33,509,o),
(33,436,cs)
);
},
{
closed = 1;
nodes = (
(104,473,o),
(127,501,o),
(168,501,cs),
(210,501,o),
(233,473,o),
(233,437,cs),
(233,400,o),
(211,371,o),
(168,371,cs),
(126,371,o),
(104,400,o),
(104,437,cs)
);
},
{
closed = 1;
nodes = (
(33,45,o),
(85,-12,o),
(168,-12,cs),
(251,-12,o),
(304,44,o),
(304,118,cs),
(304,192,o),
(251,248,o),
(168,248,cs),
(86,248,o),
(33,191,o),
(33,118,cs)
);
},
{
closed = 1;
nodes = (
(104,155,o),
(127,183,o),
(168,183,cs),
(210,183,o),
(233,155,o),
(233,119,cs),
(233,82,o),
(211,53,o),
(168,53,cs),
(126,53,o),
(104,82,o),
(104,119,cs)
);
}
);
width = 336;
},
{
layerId = "1D67CB39-8CE8-4679-A081-F58F86CEB03B";
shapes = (
{
closed = 1;
nodes = (
(30,361,o),
(90,302,o),
(183,302,cs),
(277,302,o),
(337,361,o),
(337,438,cs),
(337,516,o),
(276,574,o),
(183,574,cs),
(91,574,o),
(30,515,o),
(30,438,cs)
);
},
{
closed = 1;
nodes = (
(130,468,o),
(149,489,o),
(183,489,cs),
(217,489,o),
(237,468,o),
(237,439,cs),
(237,410,o),
(219,387,o),
(183,387,cs),
(148,387,o),
(130,410,o),
(130,439,cs)
);
},
{
closed = 1;
nodes = (
(30,47,o),
(90,-12,o),
(183,-12,cs),
(277,-12,o),
(337,47,o),
(337,124,cs),
(337,201,o),
(276,260,o),
(183,260,cs),
(91,260,o),
(30,201,o),
(30,124,cs)
);
},
{
closed = 1;
nodes = (
(130,153,o),
(149,175,o),
(183,175,cs),
(217,175,o),
(237,153,o),
(237,125,cs),
(237,95,o),
(219,73,o),
(183,73,cs),
(148,73,o),
(130,95,o),
(130,125,cs)
);
}
);
width = 367;
},
{
layerId = "C7FB44D8-0AA6-40A2-9E07-7E0254BA0D6B";
shapes = (
{
closed = 1;
nodes = (
(30,353,o),
(74,306,o),
(138,306,cs),
(203,306,o),
(248,353,o),
(248,436,cs),
(248,520,o),
(202,566,o),
(138,566,cs),
(75,566,o),
(30,519,o),
(30,436,cs)
);
},
{
closed = 1;
nodes = (
(94,480,o),
(110,505,o),
(138,505,cs),
(167,505,o),
(184,480,o),
(184,437,cs),
(184,394,o),
(168,367,o),
(138,367,cs),
(109,367,o),
(94,394,o),
(94,437,cs)
);
},
{
closed = 1;
nodes = (
(30,35,o),
(74,-12,o),
(138,-12,cs),
(203,-12,o),
(248,34,o),
(248,118,cs),
(248,202,o),
(202,248,o),
(138,248,cs),
(75,248,o),
(30,201,o),
(30,118,cs)
);
},
{
closed = 1;
nodes = (
(94,161,o),
(110,187,o),
(138,187,cs),
(167,187,o),
(184,161,o),
(184,118,cs),
(184,74,o),
(168,48,o),
(138,48,cs),
(109,48,o),
(94,74,o),
(94,118,cs)
);
}
);
width = 278;
},
{
layerId = UUID0;
shapes = (
{
closed = 1;
nodes = (
(34,354,o),
(71,310,o),
(124,310,cs),
(177,310,o),
(214,354,o),
(214,434,cs),
(214,514,o),
(177,558,o),
(124,558,cs),
(71,558,o),
(34,514,o),
(34,434,cs)
);
},
{
closed = 1;
nodes = (
(61,499,o),
(85,533,o),
(124,533,cs),
(163,533,o),
(187,499,o),
(187,434,cs),
(187,369,o),
(163,335,o),
(124,335,cs),
(85,335,o),
(61,369,o),
(61,434,cs)
);
},
{
closed = 1;
nodes = (
(34,32,o),
(71,-12,o),
(124,-12,cs),
(177,-12,o),
(214,32,o),
(214,112,cs),
(214,192,o),
(177,236,o),
(124,236,cs),
(71,236,o),
(34,192,o),
(34,112,cs)
);
},
{
closed = 1;
nodes = (
(61,177,o),
(85,211,o),
(124,211,cs),
(163,211,o),
(187,177,o),
(187,112,cs),
(187,47,o),
(163,13,o),
(124,13,cs),
(85,13,o),
(61,47,o),
(61,112,cs)
);
}
);
width = 248;
},
{
layerId = "43C3EF94-D8C4-4226-80FB-D661263DD944";
shapes = (
{
closed = 1;
nodes = (
(28,359,o),
(87,297,o),
(192,297,cs),
(297,297,o),
(357,359,o),
(357,439,cs),
(357,521,o),
(295,581,o),
(192,581,cs),
(89,581,o),
(28,520,o),
(28,439,cs)
);
},
{
closed = 1;
nodes = (
(146,466,o),
(162,484,o),
(192,484,cs),
(220,484,o),
(239,467,o),
(239,440,cs),
(239,414,o),
(223,394,o),
(192,394,cs),
(161,394,o),
(146,413,o),
(146,439,cs)
);
},
{
closed = 1;
nodes = (
(28,49,o),
(87,-12,o),
(192,-12,cs),
(297,-12,o),
(357,50,o),
(357,130,cs),
(357,210,o),
(295,272,o),
(192,272,cs),
(89,272,o),
(28,210,o),
(28,130,cs)
);
},
{
closed = 1;
nodes = (
(146,156,o),
(162,175,o),
(192,175,cs),
(220,175,o),
(239,156,o),
(239,131,cs),
(239,103,o),
(223,85,o),
(192,85,cs),
(161,85,o),
(146,103,o),
(146,131,cs)
);
}
);
width = 385;
},
{
layerId = "7D50CFCE-8270-4149-A6BB-939E1A586542";
shapes = (
{
closed = 1;
nodes = (
(25,355,o),
(69,297,o),
(160,297,cs),
(251,297,o),
(296,356,o),
(296,439,cs),
(296,522,o),
(249,581,o),
(160,581,cs),
(71,581,o),
(25,522,o),
(25,439,cs)
);
},
{
closed = 1;
nodes = (
(128,472,o),
(138,489,o),
(160,489,cs),
(182,489,o),
(193,472,o),
(193,439,cs),
(193,406,o),
(182,389,o),
(160,389,cs),
(138,389,o),
(128,406,o),
(128,439,cs)
);
},
{
closed = 1;
nodes = (
(25,46,o),
(69,-12,o),
(160,-12,cs),
(251,-12,o),
(296,47,o),
(296,130,cs),
(296,213,o),
(247,272,o),
(160,272,cs),
(71,272,o),
(25,213,o),
(25,130,cs)
);
},
{
closed = 1;
nodes = (
(128,163,o),
(138,180,o),
(160,180,cs),
(182,180,o),
(193,163,o),
(193,130,cs),
(193,97,o),
(182,80,o),
(160,80,cs),
(138,80,o),
(128,97,o),
(128,130,cs)
);
}
);
width = 321;
}
);
script = malayalam;
unicode = 3331;
},
{
glyphname = uni0D04;
lastChange = "2021-10-11 13:59:02 +0000";
layers = (
{
guides = (
{
pos = (299,18);
}
);
layerId = "4D83A9DC-8FB7-446F-9A35-7DCC3E64AC98";
shapes = (
{
closed = 1;
nodes = (
(49,273,o),
(42,236,o),
(42,197,cs),
(42,72,o),
(106,-9,o),
(267,-9,cs),
(429,-9,o),
(493,72,o),
(493,197,cs),
(493,236,o),
(486,273,o),
(477,303,c),
(451,298,l),
(461,263,o),
(466,232,o),
(466,199,cs),
(466,85,o),
(415,17,o),
(267,17,cs),
(120,17,o),
(69,85,o),
(69,199,cs),
(69,232,o),
(74,263,o),
(84,298,c),
(58,303,l)
);
},
{
closed = 1;
nodes = (
(255,158,l),
(281,158,l),
(281,390,l),
(255,390,l)
);
}
);
width = 535;
},
{
layerId = "EAD1E2BE-4A7F-4E9C-B677-063429CCD35D";
shapes = (
{
closed = 1;
nodes = (
(41,293,o),
(34,253,o),
(34,212,cs),
(34,85,o),
(107,-9,o),
(291,-9,cs),
(476,-9,o),
(549,85,o),
(549,212,cs),
(549,253,o),
(542,293,o),
(535,318,c),
(452,303,l),
(460,276,o),
(463,246,o),
(463,215,cs),
(463,125,o),
(418,64,o),
(291,64,cs),
(165,64,o),
(120,125,o),
(120,215,cs),
(120,246,o),
(123,276,o),
(131,303,c),
(48,318,l)
);
},
{
closed = 1;
nodes = (
(253,171,l),
(331,171,l),
(331,403,l),
(253,403,l)
);
}
);
width = 583;
},
{
layerId = "1D67CB39-8CE8-4679-A081-F58F86CEB03B";
shapes = (
{
closed = 1;
nodes = (
(40,310,o),
(32,266,o),
(32,223,cs),
(32,85,o),
(105,-9,o),
(319,-9,cs),
(535,-9,o),
(608,85,o),
(608,223,cs),
(608,265,o),
(599,310,o),
(590,341,c),
(456,318,l),
(464,288,o),
(468,254,o),
(468,227,cs),
(468,142,o),
(421,97,o),
(319,97,cs),
(219,97,o),
(172,142,o),
(172,227,cs),
(172,255,o),
(176,288,o),
(184,318,c),
(49,341,l)
);
},
{
closed = 1;
nodes = (
(262,186,l),
(378,186,l),
(378,418,l),
(262,418,l)
);
}
);
width = 640;
},
{
layerId = "43C3EF94-D8C4-4226-80FB-D661263DD944";
shapes = (
{
closed = 1;
nodes = (
(39,321,o),
(30,275,o),
(30,230,cs),
(30,85,o),
(103,-9,o),
(337,-9,cs),
(572,-9,o),
(645,85,o),
(645,230,cs),
(645,273,o),
(636,321,o),
(625,355,c),
(458,327,l),
(467,296,o),
(471,259,o),
(471,234,cs),
(471,154,o),
(422,118,o),
(337,118,cs),
(253,118,o),
(204,154,o),
(204,235,cs),
(204,261,o),
(208,296,o),
(217,327,c),
(50,355,l)
);
},
{
closed = 1;
nodes = (
(272,195,l),
(403,195,l),
(403,427,l),
(272,427,l)
);
}
);
width = 675;
},
{
layerId = UUID0;
shapes = (
{
closed = 1;
nodes = (
(45,273,o),
(40,236,o),
(40,197,cs),
(40,72,o),
(89,-9,o),
(216,-9,cs),
(344,-9,o),
(393,72,o),
(393,197,cs),
(393,236,o),
(388,273,o),
(381,303,c),
(355,298,l),
(363,263,o),
(366,232,o),
(366,197,cs),
(366,85,o),
(327,17,o),
(216,17,cs),
(105,17,o),
(67,85,o),
(67,198,cs),
(67,232,o),
(71,263,o),
(78,298,c),
(52,303,l)
);
},
{
closed = 1;
nodes = (
(204,158,l),
(230,158,l),
(230,390,l),
(204,390,l)
);
}
);
width = 433;
},
{
layerId = "C7FB44D8-0AA6-40A2-9E07-7E0254BA0D6B";
shapes = (
{
closed = 1;
nodes = (
(43,293,o),
(36,253,o),
(36,209,cs),
(36,85,o),
(89,-9,o),
(240,-9,cs),
(392,-9,o),
(445,85,o),
(445,209,cs),
(445,253,o),
(438,293,o),
(431,318,c),
(356,303,l),
(364,274,o),
(367,243,o),
(367,209,cs),
(367,122,o),
(337,60,o),
(240,60,cs),
(144,60,o),
(114,122,o),
(114,209,cs),
(114,243,o),
(117,274,o),
(125,303,c),
(50,318,l)
);
},
{
closed = 1;
nodes = (
(207,171,l),
(278,171,l),
(278,403,l),
(207,403,l)
);
}
);
width = 481;
},
{
layerId = "7D50CFCE-8270-4149-A6BB-939E1A586542";
shapes = (
{
closed = 1;
nodes = (
(41,321,o),
(32,275,o),
(32,231,cs),
(32,85,o),
(94,-9,o),
(287,-9,cs),
(481,-9,o),
(543,85,o),
(543,231,cs),
(543,273,o),
(534,321,o),
(524,352,c),
(378,325,l),
(387,296,o),
(391,259,o),
(391,234,cs),
(391,149,o),
(356,113,o),
(287,113,cs),
(219,113,o),
(184,149,o),
(184,235,cs),
(184,261,o),
(188,296,o),
(197,325,c),
(51,352,l)
);
},
{
closed = 1;
nodes = (
(228,195,l),
(347,195,l),
(347,427,l),
(228,427,l)
);
}
);
width = 575;
}
);
script = malayalam;
unicode = 3332;
},
{
category = Letter;
glyphname = amlym;
lastChange = "2023-03-20 12:00:12 +0000";
layers = (
{
anchors = (
{
name = bottom;
pos = (697,0);
},
{
name = top;
pos = (697,546);
}
);
layerId = "4D83A9DC-8FB7-446F-9A35-7DCC3E64AC98";
shapes = (
{
closed = 1;
nodes = (
(147,558,o),
(45,436,o),
(45,275,cs),
(45,126,o),
(116,45,o),
(191,-8,c),
(206,13,l),
(119,74,o),
(72,151,o),
(72,276,cs),
(72,414,o),
(153,532,o),
(350,532,cs),
(392,532,o),
(443,528,o),
(488,515,cs),
(560,495,o),
(620,453,o),
(620,371,cs),
(620,307,o),
(588,263,o),
(485,263,cs),
(465,263,l),
(465,237,l),
(494,237,ls),
(594,237,o),
(631,185,o),
(631,123,cs),
(631,49,o),
(586,14,o),
(507,14,cs),
(387,14,o),
(329,97,o),
(329,233,cs),
(329,360,o),
(399,472,o),
(515,514,cs),
(546,525,o),
(581,532,o),
(619,532,cs),
(695,532,o),
(741,515,o),
(772,483,cs),
(808,447,o),
(821,396,o),
(821,309,cs),
(821,0,l),
(847,0,l),
(847,278,l),
(841,354,l),
(836,470,o),
(785,558,o),
(622,558,cs),
(573,558,o),
(528,547,o),
(488,529,cs),
(484,527,o),
(481,523,o),
(477,521,cs),
(367,469,o),
(302,361,o),
(302,233,cs),
(302,81,o),
(373,-12,o),
(507,-12,cs),
(610,-12,o),
(658,47,o),
(658,123,cs),
(658,203,o),
(610,252,o),
(507,255,c),
(505,246,l),
(617,249,o),
(647,305,o),
(647,372,cs),
(647,452,o),
(595,502,o),
(527,526,cs),
(523,527,o),
(521,532,o),
(517,533,cs),
(465,552,o),
(404,558,o),
(352,558,cs)
);
},
{
closed = 1;
nodes = (
(1275,-12,o),
(1349,61,o),
(1349,243,cs),
(1349,424,o),
(1247,558,o),
(1054,558,cs),
(920,558,o),
(835,473,o),
(829,349,c),
(847,261,l),
(847,292,ls),
(847,394,o),
(869,446,o),
(914,485,cs),
(948,515,o),
(995,532,o),
(1055,532,cs),
(1232,532,o),
(1306,414,o),
(1322,291,cs),
(1323,285,o),
(1322,277,o),
(1322,271,cs),
(1322,265,o),
(1323,259,o),
(1323,244,cs),
(1323,83,o),
(1267,14,o),
(1171,14,cs),
(1069,14,o),
(1032,92,o),
(1032,189,cs),
(1032,290,o),
(1082,354,o),
(1179,354,cs),
(1257,354,o),
(1308,295,o),
(1333,243,c),
(1345,257,l),
(1314,324,o),
(1263,380,o),
(1178,380,cs),
(1078,380,o),
(1005,314,o),
(1005,187,cs),
(1005,76,o),
(1055,-12,o),
(1169,-12,cs)
);
}
);
width = 1394;
},
{
anchors = (
{
name = bottom;
pos = (566,0);
},
{
name = top;
pos = (747,554);
}
);
layerId = "EAD1E2BE-4A7F-4E9C-B677-063429CCD35D";
shapes = (
{
closed = 1;
nodes = (
(146,566,o),
(39,441,o),
(39,277,cs),
(39,135,o),
(114,40,o),
(200,-9,c),
(250,54,l),
(175,100,o),
(128,169,o),
(128,273,cs),
(128,400,o),
(208,497,o),
(374,497,cs),
(406,497,o),
(445,497,o),
(497,484,c),
(582,469,o),
(626,431,o),
(626,369,cs),
(626,320,o),
(596,288,o),
(514,288,cs),
(500,288,l),
(500,218,l),
(519,218,ls),
(600,218,o),
(637,187,o),
(637,138,cs),
(637,83,o),
(603,55,o),
(534,55,cs),
(441,55,o),
(390,122,o),
(390,239,cs),
(390,323,o),
(435,449,o),
(561,486,cs),
(587,494,o),
(621,499,o),
(657,499,cs),
(733,499,o),
(771,481,o),
(800,454,cs),
(833,423,o),
(849,379,o),
(849,281,cs),
(849,0,l),
(936,0,l),
(936,247,l),
(910,444,l),
(866,510,o),
(804,566,o),
(669,566,cs),
(593,566,o),
(536,551,o),
(488,527,cs),
(481,523,o),
(474,519,o),
(468,515,cs),
(354,446,o),
(306,347,o),
(306,235,cs),
(306,96,o),
(381,-12,o),
(533,-12,cs),
(666,-12,o),
(721,57,o),
(721,136,cs),
(721,194,o),
(685,237,o),
(626,256,c),
(622,253,l),
(688,282,o),
(710,319,o),
(710,368,cs),
(710,429,o),
(679,489,o),
(570,518,c),
(563,520,o),
(553,530,o),
(546,533,cs),
(492,556,o),
(426,566,o),
(367,566,cs)
);
},
{
closed = 1;
nodes = (
(1364,-12,o),
(1456,63,o),
(1456,242,cs),
(1456,430,o),
(1345,566,o),
(1127,566,cs),
(999,566,o),
(934,518,o),
(884,454,c),
(936,204,l),
(936,289,ls),
(936,381,o),
(957,420,o),
(989,451,cs),
(1023,482,o),
(1070,494,o),
(1127,494,cs),
(1276,494,o),
(1347,411,o),
(1363,335,cs),
(1366,323,o),
(1366,309,o),
(1368,298,cs),
(1371,279,o),
(1373,262,o),
(1373,248,cs),
(1373,112,o),
(1325,58,o),
(1244,58,cs),
(1166,58,o),
(1134,115,o),
(1134,198,cs),
(1134,279,o),
(1171,334,o),
(1255,334,cs),
(1335,334,o),
(1387,270,o),
(1402,209,c),
(1427,206,l),
(1422,305,o),
(1349,404,o),
(1238,404,cs),
(1123,404,o),
(1050,322,o),
(1050,196,cs),
(1050,86,o),
(1114,-12,o),
(1243,-12,cs)
);
}
);
width = 1495;
},
{
anchors = (
{
name = bottom;
pos = (829,0);
},
{
name = top;
pos = (829,562);
}
);
layerId = "1D67CB39-8CE8-4679-A081-F58F86CEB03B";
shapes = (
{
closed = 1;
nodes = (
(128,574,o),
(37,425,o),
(37,281,cs),
(37,144,o),
(101,61,o),
(191,-12,c),
(289,64,l),
(221,129,o),
(187,188,o),
(187,281,cs),
(187,393,o),
(256,473,o),
(413,473,cs),
(459,473,o),
(501,468,o),
(533,461,c),
(628,444,o),
(658,409,o),
(658,371,cs),
(658,334,o),
(634,308,o),
(568,308,cs),
(549,308,l),
(549,204,l),
(576,204,ls),
(639,204,o),
(669,182,o),
(669,148,cs),
(669,110,o),
(641,91,o),
(584,91,cs),
(508,91,o),
(466,133,o),
(466,240,cs),
(466,319,o),
(508,428,o),
(629,460,cs),
(655,467,o),
(695,473,o),
(736,473,cs),
(791,473,o),
(827,462,o),
(858,438,c),
(903,402,o),
(915,351,o),
(915,250,cs),
(915,0,l),
(1063,0,l),
(1063,220,l),
(1002,473,l),
(944,532,o),
(876,574,o),
(738,574,cs),
(661,574,o),
(589,559,o),
(534,534,cs),
(525,531,o),
(518,526,o),
(510,522,cs),
(380,453,o),
(328,352,o),
(328,238,cs),
(328,98,o),
(403,-12,o),
(589,-12,cs),
(754,-12,o),
(811,58,o),
(811,138,cs),
(811,200,o),
(771,241,o),
(710,265,c),
(712,255,l),
(776,285,o),
(800,321,o),
(800,373,cs),
(800,438,o),
(747,483,o),
(684,508,c),
(672,514,o),
(662,524,o),
(649,529,c),
(573,561,o),
(483,574,o),
(404,574,cs)
);
},
{
closed = 1;
nodes = (
(1529,-12,o),
(1622,65,o),
(1622,237,cs),
(1622,423,o),
(1494,574,o),
(1256,574,cs),
(1106,574,o),
(1034,527,o),
(976,471,c),
(1063,211,l),
(1063,244,ls),
(1063,363,o),
(1085,405,o),
(1122,433,cs),
(1156,459,o),
(1191,467,o),
(1250,467,cs),
(1389,467,o),
(1460,400,o),
(1473,327,c),
(1476,322,o),
(1470,313,o),
(1472,307,c),
(1476,284,o),
(1478,258,o),
(1478,239,cs),
(1478,137,o),
(1443,93,o),
(1386,93,cs),
(1328,93,o),
(1303,137,o),
(1303,202,cs),
(1303,269,o),
(1330,310,o),
(1395,310,cs),
(1458,310,o),
(1501,257,o),
(1513,207,c),
(1568,204,l),
(1561,307,o),
(1478,410,o),
(1359,410,cs),
(1230,410,o),
(1160,327,o),
(1160,206,cs),
(1160,88,o),
(1223,-12,o),
(1379,-12,cs)
);
}
);
width = 1658;
},
{
anchors = (
{
name = bottom;
pos = (566,0);
},
{
name = top;
pos = (566,554);
}
);
layerId = "C7FB44D8-0AA6-40A2-9E07-7E0254BA0D6B";
shapes = (
{
closed = 1;
nodes = (
(114,566,o),
(36,437,o),
(36,288,cs),
(36,143,o),
(88,50,o),
(150,-8,c),
(206,47,l),
(154,97,o),
(118,166,o),
(118,281,cs),
(118,408,o),
(176,502,o),
(304,502,cs),
(322,502,o),
(342,500,o),
(376,487,c),
(434,469,o),
(465,434,o),
(465,370,cs),
(465,319,o),
(430,286,o),
(383,286,cs),
(380,286,l),
(380,220,l),
(384,220,ls),
(438,220,o),
(473,187,o),
(473,131,cs),
(473,76,o),
(448,51,o),
(404,51,cs),
(344,51,o),
(309,106,o),
(309,231,cs),
(309,357,o),
(348,448,o),
(424,484,cs),
(446,495,o),
(472,503,o),
(500,503,cs),
(546,503,o),
(577,491,o),
(597,469,cs),
(628,435,o),
(634,394,o),
(634,304,cs),
(634,0,l),
(713,0,l),
(713,255,l),
(696,449,l),
(657,519,o),
(609,566,o),
(505,566,cs),
(450,566,o),
(403,551,o),
(365,526,cs),
(358,521,o),
(352,512,o),
(345,507,cs),
(271,450,o),
(233,346,o),
(233,235,cs),
(233,79,o),
(287,-12,o),
(405,-12,cs),
(509,-12,o),
(550,52,o),
(550,133,cs),
(550,199,o),
(513,243,o),
(455,258,c),
(459,249,l),
(518,272,o),
(542,314,o),
(542,370,cs),
(542,443,o),
(505,491,o),
(444,520,cs),
(436,524,o),
(433,534,o),
(425,537,cs),
(379,559,o),
(336,566,o),
(298,566,cs)
);
},
{
closed = 1;
nodes = (
(1030,-12,o),
(1096,51,o),
(1096,242,cs),
(1096,436,o),
(1009,566,o),
(842,566,cs),
(744,566,o),
(695,517,o),
(660,459,c),
(713,207,l),
(713,311,ls),
(713,391,o),
(722,436,o),
(754,467,cs),
(776,488,o),
(805,498,o),
(847,498,cs),
(945,498,o),
(1001,420,o),
(1013,335,c),
(1016,330,o),
(1013,317,o),
(1015,310,c),
(1018,283,o),
(1020,251,o),
(1020,248,cs),
(1020,107,o),
(989,53,o),
(937,53,cs),
(888,53,o),
(866,106,o),
(866,198,cs),
(866,284,o),
(890,337,o),
(945,337,cs),
(997,337,o),
(1029,282,o),
(1041,249,c),
(1068,266,l),
(1029,358,o),
(997,402,o),
(927,402,cs),
(840,402,o),
(788,331,o),
(788,199,cs),
(788,78,o),
(834,-12,o),
(936,-12,cs)
);
}
);
width = 1132;
},
{
anchors = (
{
name = bottom;
pos = (522,0);
},
{
name = top;
pos = (522,546);
}
);
layerId = UUID0;
shapes = (
{
closed = 1;
nodes = (
(119,558,o),
(42,442,o),
(42,291,cs),
(42,132,o),
(105,49,o),
(156,-6,c),
(175,12,l),
(118,73,o),
(69,153,o),
(69,291,cs),
(69,421,o),
(127,532,o),
(272,532,cs),
(306,532,o),
(338,528,o),
(368,514,c),
(420,492,o),
(459,446,o),
(459,374,cs),
(459,310,o),
(427,263,o),
(348,263,cs),
(345,263,l),
(345,237,l),
(350,237,ls),
(428,237,o),
(467,186,o),
(467,122,cs),
(467,49,o),
(433,14,o),
(374,14,cs),
(288,14,o),
(255,89,o),
(255,227,cs),
(255,335,o),
(294,465,o),
(387,513,cs),
(409,525,o),
(433,532,o),
(467,532,cs),
(514,532,o),
(548,519,o),
(572,495,cs),
(606,461,o),
(620,410,o),
(620,305,cs),
(620,0,l),
(646,0,l),
(646,306,l),
(637,386,l),
(632,489,o),
(581,558,o),
(470,558,cs),
(429,558,o),
(395,547,o),
(363,527,cs),
(359,524,o),
(355,520,o),
(351,517,cs),
(262,458,o),
(228,335,o),
(228,226,cs),
(228,69,o),
(277,-12,o),
(374,-12,cs),
(444,-12,o),
(494,34,o),
(494,121,cs),
(494,201,o),
(449,247,o),
(370,254,c),
(370,245,l),
(455,256,o),
(486,301,o),
(486,374,cs),
(486,448,o),
(449,499,o),
(395,528,c),
(392,530,o),
(389,532,o),
(386,533,c),
(351,552,o),
(311,558,o),
(271,558,cs)
);
},
{
closed = 1;
nodes = (
(950,-12,o),
(1003,41,o),
(1003,236,cs),
(1003,428,o),
(931,558,o),
(784,558,cs),
(694,558,o),
(633,507,o),
(625,385,c),
(646,262,l),
(646,338,ls),
(646,429,o),
(664,476,o),
(695,503,cs),
(716,522,o),
(743,532,o),
(784,532,cs),
(910,532,o),
(956,426,o),
(975,314,cs),
(976,308,o),
(975,309,o),
(974,306,c),
(976,295,o),
(977,258,o),
(977,236,cs),
(977,66,o),
(938,14,o),
(876,14,cs),
(802,14,o),
(776,80,o),
(776,188,cs),
(776,297,o),
(808,354,o),
(879,354,cs),
(936,354,o),
(965,316,o),
(991,271,c),
(996,295,l),
(975,339,o),
(938,380,o),
(877,380,cs),
(801,380,o),
(749,321,o),
(749,189,cs),
(749,64,o),
(787,-12,o),
(875,-12,cs)
);
}
);
width = 1045;
},
{
anchors = (
{
name = bottom;
pos = (866,0);
},
{
name = top;
pos = (866,569);
}
);
layerId = "43C3EF94-D8C4-4226-80FB-D661263DD944";
shapes = (
{
closed = 1;
nodes = (
(122,581,o),
(35,417,o),
(35,284,cs),
(35,154,o),
(94,65,o),
(181,-12,c),
(317,68,l),
(256,141,o),
(224,201,o),
(224,281,cs),
(224,384,o),
(279,458,o),
(433,458,cs),
(481,458,o),
(516,452,o),
(560,441,c),
(637,434,o),
(671,412,o),
(671,372,cs),
(671,341,o),
(651,322,o),
(600,322,cs),
(578,322,l),
(578,196,l),
(615,196,ls),
(662,196,o),
(682,179,o),
(682,154,cs),
(682,124,o),
(658,113,o),
(615,113,cs),
(552,113,o),
(507,151,o),
(507,244,cs),
(507,359,o),
(585,431,o),
(679,449,c),
(707,456,o),
(736,461,o),
(766,461,cs),
(817,461,o),
(854,449,o),
(880,428,cs),
(928,389,o),
(938,322,o),
(938,234,cs),
(938,0,l),
(1125,0,l),
(1125,192,l),
(1040,480,l),
(971,543,o),
(902,581,o),
(763,581,cs),
(690,581,o),
(617,570,o),
(553,544,cs),
(535,537,o),
(519,518,o),
(503,509,cs),
(403,453,o),
(334,368,o),
(334,241,cs),
(334,99,o),
(415,-12,o),
(620,-12,cs),
(806,-12,o),
(861,63,o),
(861,139,cs),
(861,205,o),
(824,247,o),
(756,271,c),
(757,256,l),
(825,284,o),
(850,322,o),
(850,374,cs),
(850,448,o),
(770,495,o),
(684,519,cs),
(664,525,o),
(658,548,o),
(636,553,c),
(561,576,o),
(508,581,o),
(428,581,cs)
);
},
{
closed = 1;
nodes = (
(1610,-12,o),
(1702,77,o),
(1702,237,cs),
(1702,418,o),
(1568,581,o),
(1306,581,cs),
(1143,581,o),
(1055,517,o),
(992,450,c),
(1125,154,l),
(1125,238,ls),
(1125,307,o),
(1133,378,o),
(1183,416,cs),
(1209,436,o),
(1244,451,o),
(1308,451,cs),
(1426,451,o),
(1504,396,o),
(1515,329,c),
(1518,324,o),
(1512,310,o),
(1514,305,c),
(1517,285,o),
(1519,262,o),
(1519,242,cs),
(1519,153,o),
(1493,116,o),
(1443,116,cs),
(1406,116,o),
(1380,143,o),
(1380,205,cs),
(1380,265,o),
(1406,295,o),
(1454,295,cs),
(1507,295,o),
(1540,251,o),
(1550,203,c),
(1623,205,l),
(1615,305,o),
(1533,410,o),
(1408,410,cs),
(1276,410,o),
(1200,331,o),
(1200,205,cs),
(1200,89,o),
(1269,-12,o),
(1440,-12,cs)
);
}
);
width = 1733;
},
{
anchors = (
{
name = bottom;
pos = (674,0);
},
{
name = top;
pos = (674,569);
}
);
layerId = "7D50CFCE-8270-4149-A6BB-939E1A586542";
shapes = (
{
closed = 1;
nodes = (
(90,581,o),
(32,417,o),
(32,299,cs),
(32,162,o),
(78,65,o),
(139,-12,c),
(266,53,l),
(223,129,o),
(193,205,o),
(193,291,cs),
(193,394,o),
(237,466,o),
(352,466,cs),
(377,466,o),
(409,465,o),
(437,449,c),
(486,441,o),
(517,409,o),
(517,369,cs),
(517,338,o),
(501,319,o),
(465,319,cs),
(456,319,l),
(456,200,l),
(469,200,ls),
(511,200,o),
(525,179,o),
(525,151,cs),
(525,122,o),
(509,107,o),
(478,107,cs),
(437,107,o),
(412,138,o),
(412,239,cs),
(412,364,o),
(474,438,o),
(534,456,c),
(554,463,o),
(576,467,o),
(596,467,cs),
(634,467,o),
(665,457,o),
(684,441,cs),
(715,414,o),
(726,371,o),
(726,294,cs),
(726,0,l),
(884,0,l),
(884,229,l),
(823,480,l),
(772,545,o),
(709,581,o),
(600,581,cs),
(537,581,o),
(479,566,o),
(429,539,cs),
(414,531,o),
(409,515,o),
(395,506,cs),
(317,452,o),
(261,364,o),
(261,239,cs),
(261,91,o),
(318,-12,o),
(488,-12,cs),
(633,-12,o),
(681,59,o),
(681,138,cs),
(681,202,o),
(643,253,o),
(582,271,c),
(584,256,l),
(644,278,o),
(668,315,o),
(668,369,cs),
(668,458,o),
(592,496,o),
(534,520,c),
(517,526,o),
(513,545,o),
(494,550,c),
(446,574,o),
(387,581,o),
(333,581,cs)
);
},
{
closed = 1;
nodes = (
(1252,-12,o),
(1319,64,o),
(1319,237,cs),
(1319,423,o),
(1222,581,o),
(1006,581,cs),
(889,581,o),
(819,540,o),
(755,440,c),
(884,161,l),
(884,293,ls),
(884,375,o),
(895,412,o),
(927,436,cs),
(947,451,o),
(972,457,o),
(1008,457,cs),
(1092,457,o),
(1149,395,o),
(1158,332,cs),
(1159,327,o),
(1160,310,o),
(1160,305,cs),
(1162,285,o),
(1164,262,o),
(1164,231,cs),
(1164,130,o),
(1150,108,o),
(1121,108,cs),
(1100,108,o),
(1084,130,o),
(1084,201,cs),
(1084,275,o),
(1100,298,o),
(1128,298,cs),
(1161,298,o),
(1179,265,o),
(1187,216,c),
(1248,222,l),
(1232,311,o),
(1179,407,o),
(1090,407,cs),
(989,407,o),
(931,338,o),
(931,203,cs),
(931,82,o),
(983,-12,o),
(1117,-12,cs)
);
}
);
width = 1349;
}
);
script = malayalam;
subCategory = Other;
unicode = 3333;
},
{
category = Letter;
glyphname = aamlym;
lastChange = "2023-03-20 12:00:12 +0000";
layers = (
{
anchors = (
{
name = bottom;
pos = (764,0);
},
{
name = top;
pos = (764,546);
}
);
layerId = "4D83A9DC-8FB7-446F-9A35-7DCC3E64AC98";
shapes = (
{
closed = 1;
nodes = (
(147,558,o),
(45,436,o),
(45,275,cs),
(45,126,o),
(116,45,o),
(191,-8,c),
(206,13,l),
(119,74,o),
(72,151,o),
(72,276,cs),
(72,414,o),
(153,532,o),
(350,532,cs),
(392,532,o),
(443,528,o),
(488,515,cs),
(560,495,o),
(620,453,o),
(620,371,cs),
(620,307,o),
(588,263,o),
(485,263,cs),
(465,263,l),
(465,237,l),
(494,237,ls),
(594,237,o),
(631,185,o),
(631,123,cs),
(631,49,o),
(586,14,o),
(507,14,cs),
(387,14,o),
(329,97,o),
(329,233,cs),
(329,360,o),
(399,472,o),
(515,514,cs),
(546,525,o),
(581,532,o),
(619,532,cs),
(695,532,o),
(741,515,o),
(772,483,cs),
(808,447,o),
(821,396,o),
(821,309,cs),
(821,0,l),
(847,0,l),
(847,278,l),
(841,354,l),
(836,470,o),
(785,558,o),
(622,558,cs),
(573,558,o),
(528,547,o),
(488,529,cs),
(484,527,o),
(481,523,o),
(477,521,cs),
(367,469,o),
(302,361,o),
(302,233,cs),
(302,81,o),
(373,-12,o),
(507,-12,cs),
(610,-12,o),
(658,47,o),
(658,123,cs),
(658,203,o),
(610,252,o),
(507,255,c),
(505,246,l),
(617,249,o),
(647,305,o),
(647,372,cs),
(647,452,o),
(595,502,o),
(527,526,cs),
(523,527,o),
(521,532,o),
(517,533,cs),
(465,552,o),
(404,558,o),
(352,558,cs)
);
},
{
closed = 1;
nodes = (
(918,558,o),
(834,473,o),
(828,349,c),
(847,197,l),
(847,292,ls),
(847,394,o),
(868,446,o),
(913,485,cs),
(947,515,o),
(994,532,o),
(1052,532,cs),
(1195,532,o),
(1260,445,o),
(1286,345,c),
(1288,333,ls),
(1296,296,o),
(1300,259,o),
(1300,223,cs),
(1300,96,o),
(1249,14,o),
(1147,14,cs),
(1042,14,o),
(1015,94,o),
(1015,160,cs),
(1015,283,o),
(1103,331,o),
(1223,331,cs),
(1250,331,o),
(1274,328,o),
(1297,323,cs),
(1309,321,l),
(1411,291,o),
(1471,206,o),
(1471,80,cs),
(1471,-77,o),
(1385,-175,o),
(1225,-175,cs),
(1164,-175,o),
(1109,-164,o),
(1070,-148,c),
(1060,-172,l),
(1098,-188,o),
(1155,-201,o),
(1225,-201,cs),
(1389,-201,o),
(1498,-101,o),
(1498,80,cs),
(1498,197,o),
(1443,314,o),
(1306,348,c),
(1292,350,ls),
(1271,354,o),
(1247,357,o),
(1223,357,cs),
(1079,357,o),
(988,288,o),
(988,162,cs),
(988,79,o),
(1028,-12,o),
(1148,-12,cs),
(1246,-12,o),
(1327,60,o),
(1327,222,cs),
(1327,261,o),
(1324,297,o),
(1317,331,cs),
(1289,467,o),
(1202,558,o),
(1052,558,cs)
);
}
);
width = 1529;
},
{
anchors = (
{
name = bottom;
pos = (619,0);
},
{
name = top;
pos = (823,554);
}
);
layerId = "EAD1E2BE-4A7F-4E9C-B677-063429CCD35D";
shapes = (
{
closed = 1;
nodes = (
(146,566,o),
(39,441,o),
(39,277,cs),
(39,135,o),
(114,40,o),
(200,-9,c),
(250,54,l),
(175,100,o),
(128,169,o),
(128,273,cs),
(128,400,o),
(208,497,o),
(374,497,cs),
(406,497,o),
(445,497,o),
(497,484,c),
(582,469,o),
(626,431,o),
(626,369,cs),
(626,320,o),
(596,288,o),
(514,288,cs),
(500,288,l),
(500,218,l),
(519,218,ls),
(600,218,o),
(637,187,o),
(637,138,cs),
(637,83,o),
(603,55,o),
(534,55,cs),
(441,55,o),
(390,122,o),
(390,239,cs),
(390,323,o),
(435,449,o),
(561,486,cs),
(587,494,o),
(621,499,o),
(657,499,cs),
(733,499,o),
(771,481,o),
(800,454,cs),
(833,423,o),
(849,379,o),
(849,281,cs),
(849,0,l),
(936,0,l),
(936,247,l),
(910,444,l),
(866,510,o),
(804,566,o),
(669,566,cs),
(593,566,o),
(536,551,o),
(488,527,cs),
(481,523,o),
(474,519,o),
(468,515,cs),
(354,446,o),
(306,347,o),
(306,235,cs),
(306,96,o),
(381,-12,o),
(533,-12,cs),
(666,-12,o),
(721,57,o),
(721,136,cs),
(721,194,o),
(685,237,o),
(626,256,c),
(622,253,l),
(688,282,o),
(710,319,o),
(710,368,cs),
(710,429,o),
(679,489,o),
(570,518,cs),
(563,520,o),
(553,530,o),
(546,533,cs),
(492,556,o),
(426,566,o),
(367,566,cs)
);
},
{
closed = 1;
nodes = (
(1010,566,o),
(934,524,o),
(880,450,c),
(936,204,l),
(936,288,ls),
(936,380,o),
(956,420,o),
(988,451,cs),
(1022,482,o),
(1071,494,o),
(1118,494,cs),
(1243,494,o),
(1307,433,o),
(1335,354,c),
(1340,332,l),
(1349,298,o),
(1353,261,o),
(1353,225,cs),
(1353,114,o),
(1310,58,o),
(1227,58,cs),
(1150,58,o),
(1122,116,o),
(1122,171,cs),
(1122,268,o),
(1186,313,o),
(1301,313,cs),
(1324,313,o),
(1350,310,o),
(1374,302,c),
(1412,296,l),
(1492,260,o),
(1533,195,o),
(1533,92,cs),
(1533,-33,o),
(1472,-128,o),
(1308,-128,cs),
(1250,-128,o),
(1203,-118,o),
(1166,-102,c),
(1138,-172,l),
(1178,-187,o),
(1237,-201,o),
(1306,-201,cs),
(1507,-201,o),
(1619,-91,o),
(1619,91,cs),
(1619,239,o),
(1526,353,o),
(1375,377,c),
(1345,379,l),
(1329,381,o),
(1314,382,o),
(1304,382,cs),
(1132,382,o),
(1036,301,o),
(1036,171,cs),
(1036,82,o),
(1093,-12,o),
(1223,-12,cs),
(1352,-12,o),
(1436,61,o),
(1436,224,cs),
(1436,261,o),
(1433,296,o),
(1425,329,c),
(1392,472,o),
(1289,566,o),
(1117,566,cs)
);
}
);
width = 1647;
},
{
anchors = (
{
name = bottom;
pos = (915,0);
},
{
name = top;
pos = (915,562);
}
);
layerId = "1D67CB39-8CE8-4679-A081-F58F86CEB03B";
shapes = (
{
closed = 1;
nodes = (
(128,574,o),
(37,425,o),
(37,281,cs),
(37,144,o),
(101,61,o),
(191,-12,c),
(289,64,l),
(221,129,o),
(187,188,o),
(187,281,cs),
(187,393,o),
(256,473,o),
(413,473,cs),
(459,473,o),
(501,468,o),
(533,461,c),
(628,444,o),
(658,409,o),
(658,371,cs),
(658,334,o),
(634,308,o),
(568,308,cs),
(549,308,l),
(549,204,l),
(576,204,ls),
(639,204,o),
(669,182,o),
(669,148,cs),
(669,110,o),
(641,91,o),
(584,91,cs),
(508,91,o),
(466,133,o),
(466,240,cs),
(466,319,o),
(508,428,o),
(629,460,cs),
(655,467,o),
(695,473,o),
(736,473,cs),
(791,473,o),
(827,462,o),
(858,438,cs),
(903,402,o),
(915,351,o),
(915,250,cs),
(915,0,l),
(1063,0,l),
(1063,220,l),
(1002,473,l),
(944,532,o),
(876,574,o),
(738,574,cs),
(661,574,o),
(589,559,o),
(534,534,c),
(525,531,o),
(518,526,o),
(510,522,cs),
(380,453,o),
(328,352,o),
(328,238,cs),
(328,98,o),
(403,-12,o),
(589,-12,cs),
(754,-12,o),
(811,58,o),
(811,138,cs),
(811,200,o),
(771,241,o),
(710,265,c),
(712,255,l),
(776,285,o),
(800,321,o),
(800,373,cs),
(800,438,o),
(747,483,o),
(684,508,c),
(672,514,o),
(662,524,o),
(649,529,cs),
(573,561,o),
(483,574,o),
(404,574,cs)
);
},
{
closed = 1;
nodes = (
(1107,574,o),
(1031,527,o),
(975,470,c),
(1063,211,l),
(1063,242,ls),
(1063,363,o),
(1084,405,o),
(1121,433,cs),
(1155,459,o),
(1191,467,o),
(1237,467,cs),
(1326,467,o),
(1390,436,o),
(1424,378,c),
(1432,355,l),
(1447,320,o),
(1455,277,o),
(1455,230,cs),
(1455,131,o),
(1424,91,o),
(1363,91,cs),
(1309,91,o),
(1284,129,o),
(1284,179,cs),
(1284,253,o),
(1332,300,o),
(1439,300,cs),
(1467,300,o),
(1494,297,o),
(1516,291,c),
(1554,284,l),
(1620,253,o),
(1663,197,o),
(1663,100,cs),
(1663,8,o),
(1620,-93,o),
(1458,-93,cs),
(1402,-93,o),
(1366,-87,o),
(1323,-72,c),
(1282,-174,l),
(1332,-191,o),
(1395,-201,o),
(1463,-201,cs),
(1706,-201,o),
(1804,-63,o),
(1804,100,cs),
(1804,249,o),
(1707,368,o),
(1540,394,c),
(1504,398,l),
(1485,400,o),
(1464,401,o),
(1429,401,cs),
(1248,401,o),
(1141,320,o),
(1141,182,cs),
(1141,73,o),
(1213,-12,o),
(1357,-12,cs),
(1509,-12,o),
(1594,62,o),
(1594,229,cs),
(1594,269,o),
(1590,306,o),
(1581,341,c),
(1551,476,o),
(1428,574,o),
(1244,574,cs)
);
}
);
width = 1831;
},
{
anchors = (
{
name = bottom;
pos = (619,0);
},
{
name = top;
pos = (619,554);
}
);
layerId = "C7FB44D8-0AA6-40A2-9E07-7E0254BA0D6B";
shapes = (
{
closed = 1;
nodes = (
(114,566,o),
(36,437,o),
(36,288,cs),
(36,143,o),
(88,50,o),
(150,-8,c),
(206,47,l),
(154,97,o),
(118,166,o),
(118,281,cs),
(118,408,o),
(176,502,o),
(304,502,cs),
(322,502,o),
(342,500,o),
(376,487,c),
(434,469,o),
(465,434,o),
(465,370,cs),
(465,319,o),
(430,286,o),
(383,286,cs),
(380,286,l),
(380,220,l),
(384,220,ls),
(438,220,o),
(473,187,o),
(473,131,cs),
(473,76,o),
(448,51,o),
(404,51,cs),
(344,51,o),
(309,106,o),
(309,231,cs),
(309,357,o),
(348,448,o),
(424,484,cs),
(446,495,o),
(472,503,o),
(500,503,cs),
(546,503,o),
(577,491,o),
(597,469,cs),
(628,435,o),
(634,394,o),
(634,304,cs),
(634,0,l),
(713,0,l),
(713,255,l),
(696,449,l),
(657,519,o),
(609,566,o),
(505,566,cs),
(450,566,o),
(403,551,o),
(365,526,cs),
(358,521,o),
(352,512,o),
(345,507,cs),
(271,450,o),
(233,346,o),
(233,235,cs),
(233,79,o),
(287,-12,o),
(405,-12,cs),
(509,-12,o),
(550,52,o),
(550,133,cs),
(550,199,o),
(513,243,o),
(455,258,c),
(459,249,l),
(518,272,o),
(542,314,o),
(542,370,cs),
(542,443,o),
(505,491,o),
(444,520,cs),
(436,524,o),
(433,534,o),
(425,537,cs),
(379,559,o),
(336,566,o),
(298,566,cs)
);
},
{
closed = 1;
nodes = (
(743,566,o),
(694,517,o),
(660,459,c),
(713,207,l),
(713,311,ls),
(713,391,o),
(721,436,o),
(753,467,cs),
(775,488,o),
(805,498,o),
(840,498,cs),
(929,498,o),
(972,439,o),
(991,367,c),
(994,344,l),
(1001,307,o),
(1003,268,o),
(1003,235,cs),
(1003,97,o),
(976,54,o),
(923,54,cs),
(875,54,o),
(857,102,o),
(857,171,cs),
(857,272,o),
(909,315,o),
(988,315,cs),
(999,315,o),
(1019,312,o),
(1036,304,c),
(1059,299,l),
(1112,265,o),
(1140,196,o),
(1140,95,cs),
(1140,-29,o),
(1103,-132,o),
(969,-132,cs),
(941,-132,o),
(913,-129,o),
(884,-120,c),
(862,-184,l),
(895,-195,o),
(927,-201,o),
(967,-201,cs),
(1141,-201,o),
(1217,-86,o),
(1217,88,cs),
(1217,243,o),
(1150,352,o),
(1038,377,c),
(1023,377,l),
(1011,379,o),
(995,380,o),
(983,380,cs),
(863,380,o),
(778,308,o),
(778,168,cs),
(778,66,o),
(823,-12,o),
(923,-12,cs),
(1022,-12,o),
(1079,48,o),
(1079,228,cs),
(1079,263,o),
(1077,298,o),
(1072,330,c),
(1055,463,o),
(988,566,o),
(836,566,cs)
);
}
);
width = 1239;
},
{
anchors = (
{
name = bottom;
pos = (572,0);
},
{
name = top;
pos = (572,546);
}
);
layerId = UUID0;
shapes = (
{
closed = 1;
nodes = (
(119,558,o),
(42,442,o),
(42,291,cs),
(42,132,o),
(105,49,o),
(156,-6,c),
(175,12,l),
(118,73,o),
(69,153,o),
(69,291,cs),
(69,421,o),
(127,532,o),
(272,532,cs),
(306,532,o),
(338,528,o),
(368,514,c),
(420,492,o),
(459,446,o),
(459,374,cs),
(459,310,o),
(427,263,o),
(348,263,cs),
(345,263,l),
(345,237,l),
(350,237,ls),
(428,237,o),
(467,186,o),
(467,122,cs),
(467,49,o),
(433,14,o),
(374,14,cs),
(288,14,o),
(255,89,o),
(255,227,cs),
(255,335,o),
(294,465,o),
(387,513,cs),
(409,525,o),
(433,532,o),
(467,532,cs),
(514,532,o),
(548,519,o),
(572,495,cs),
(606,461,o),
(620,410,o),
(620,305,cs),
(620,0,l),
(646,0,l),
(646,306,l),
(637,386,l),
(632,489,o),
(581,558,o),
(470,558,cs),
(429,558,o),
(395,547,o),
(363,527,cs),
(359,524,o),
(355,520,o),
(351,517,cs),
(262,458,o),
(228,335,o),
(228,226,cs),
(228,69,o),
(277,-12,o),
(374,-12,cs),
(444,-12,o),
(494,34,o),
(494,121,cs),
(494,201,o),
(449,247,o),
(370,254,c),
(370,245,l),
(455,256,o),
(486,301,o),
(486,374,cs),
(486,448,o),
(449,499,o),
(395,528,cs),
(392,530,o),
(389,532,o),
(386,533,cs),
(351,552,o),
(311,558,o),
(271,558,cs)
);
},
{
closed = 1;
nodes = (
(696,558,o),
(634,508,o),
(627,386,c),
(646,262,l),
(646,338,ls),
(646,429,o),
(664,476,o),
(695,503,cs),
(716,522,o),
(743,532,o),
(781,532,cs),
(891,532,o),
(936,441,o),
(955,345,cs),
(957,334,ls),
(963,296,o),
(965,258,o),
(965,224,cs),
(965,82,o),
(930,14,o),
(860,14,cs),
(787,14,o),
(769,83,o),
(769,160,cs),
(769,283,o),
(832,331,o),
(922,331,cs),
(937,331,o),
(950,329,o),
(963,326,cs),
(976,323,l),
(1059,291,o),
(1090,179,o),
(1090,85,cs),
(1090,-77,o),
(1030,-175,o),
(888,-175,cs),
(853,-175,o),
(825,-169,o),
(800,-161,c),
(792,-186,l),
(827,-197,o),
(857,-201,o),
(889,-201,cs),
(1036,-201,o),
(1117,-101,o),
(1117,84,cs),
(1117,204,o),
(1073,319,o),
(974,350,c),
(961,352,ls),
(948,355,o),
(934,357,o),
(919,357,cs),
(811,357,o),
(742,288,o),
(742,159,cs),
(742,69,o),
(772,-12,o),
(859,-12,cs),
(933,-12,o),
(992,46,o),
(992,224,cs),
(992,258,o),
(989,299,o),
(983,337,cs),
(964,449,o),
(911,558,o),
(782,558,cs)
);
}
);
width = 1144;
},
{
anchors = (
{
name = bottom;
pos = (959,0);
},
{
name = top;
pos = (959,569);
}
);
layerId = "43C3EF94-D8C4-4226-80FB-D661263DD944";
shapes = (
{
closed = 1;
nodes = (
(122,581,o),
(35,417,o),
(35,284,cs),
(35,154,o),
(94,65,o),
(181,-12,c),
(317,68,l),
(256,141,o),
(224,201,o),
(224,281,cs),
(224,384,o),
(279,458,o),
(433,458,cs),
(481,458,o),
(516,452,o),
(560,441,c),
(637,434,o),
(671,412,o),
(671,372,cs),
(671,341,o),
(651,322,o),
(600,322,cs),
(578,322,l),
(578,196,l),
(615,196,ls),
(662,196,o),
(682,179,o),
(682,154,cs),
(682,124,o),
(658,113,o),
(615,113,cs),
(552,113,o),
(507,151,o),
(507,244,cs),
(507,359,o),
(585,431,o),
(679,449,c),
(707,456,o),
(736,461,o),
(766,461,cs),
(817,461,o),
(854,449,o),
(880,428,cs),
(928,389,o),
(938,322,o),
(938,234,cs),
(938,0,l),
(1125,0,l),
(1125,225,l),
(1040,480,l),
(971,543,o),
(902,581,o),
(763,581,cs),
(690,581,o),
(617,570,o),
(553,544,cs),
(535,537,o),
(519,518,o),
(503,509,cs),
(403,453,o),
(334,368,o),
(334,241,cs),
(334,99,o),
(415,-12,o),
(620,-12,cs),
(806,-12,o),
(861,63,o),
(861,139,cs),
(861,205,o),
(824,247,o),
(756,271,c),
(757,256,l),
(825,284,o),
(850,322,o),
(850,374,cs),
(850,448,o),
(770,495,o),
(684,519,cs),
(664,525,o),
(658,548,o),
(636,553,c),
(561,576,o),
(508,581,o),
(428,581,cs)
);
},
{
closed = 1;
nodes = (
(1141,581,o),
(1055,517,o),
(992,450,c),
(1125,212,l),
(1125,238,ls),
(1125,312,o),
(1133,377,o),
(1182,416,cs),
(1208,436,o),
(1242,451,o),
(1298,451,cs),
(1389,451,o),
(1440,420,o),
(1476,372,c),
(1493,321,ls),
(1501,294,o),
(1505,265,o),
(1505,233,cs),
(1505,141,o),
(1477,112,o),
(1430,112,cs),
(1391,112,o),
(1369,137,o),
(1369,184,cs),
(1369,243,o),
(1406,292,o),
(1507,292,cs),
(1533,292,o),
(1556,290,o),
(1578,286,cs),
(1614,280,l),
(1680,255,o),
(1716,200,o),
(1716,106,cs),
(1716,34,o),
(1686,-70,o),
(1525,-70,cs),
(1479,-70,o),
(1442,-66,o),
(1395,-52,c),
(1346,-173,l),
(1402,-192,o),
(1468,-201,o),
(1531,-201,cs),
(1811,-201,o),
(1894,-52,o),
(1894,104,cs),
(1894,263,o),
(1790,374,o),
(1614,404,c),
(1569,407,l),
(1545,410,o),
(1521,411,o),
(1496,411,cs),
(1303,411,o),
(1189,332,o),
(1189,189,cs),
(1189,67,o),
(1280,-12,o),
(1426,-12,cs),
(1596,-12,o),
(1677,63,o),
(1677,232,cs),
(1677,266,o),
(1673,297,o),
(1666,326,cs),
(1624,501,o),
(1482,581,o),
(1302,581,cs)
);
}
);
width = 1919;
},
{
anchors = (
{
name = bottom;
pos = (743,0);
},
{
name = top;
pos = (743,569);
}
);
layerId = "7D50CFCE-8270-4149-A6BB-939E1A586542";
shapes = (
{
closed = 1;
nodes = (
(90,581,o),
(32,417,o),
(32,299,cs),
(32,162,o),
(78,65,o),
(139,-12,c),
(266,53,l),
(223,129,o),
(193,205,o),
(193,291,cs),
(193,394,o),
(237,466,o),
(352,466,cs),
(377,466,o),
(409,465,o),
(437,449,c),
(486,441,o),
(517,409,o),
(517,369,cs),
(517,338,o),
(501,319,o),
(465,319,cs),
(456,319,l),
(456,200,l),
(469,200,ls),
(511,200,o),
(525,179,o),
(525,151,cs),
(525,122,o),
(509,107,o),
(478,107,cs),
(437,107,o),
(412,138,o),
(412,239,cs),
(412,364,o),
(474,438,o),
(534,456,c),
(554,463,o),
(576,467,o),
(596,467,cs),
(634,467,o),
(665,457,o),
(684,441,cs),
(715,414,o),
(726,371,o),
(726,294,cs),
(726,0,l),
(884,0,l),
(884,229,l),
(823,480,l),
(772,545,o),
(709,581,o),
(600,581,cs),
(537,581,o),
(479,566,o),
(429,539,cs),
(414,531,o),
(409,515,o),
(395,506,cs),
(317,452,o),
(261,364,o),
(261,239,cs),
(261,91,o),
(318,-12,o),
(488,-12,cs),
(633,-12,o),
(681,59,o),
(681,138,cs),
(681,202,o),
(643,253,o),
(582,271,c),
(584,256,l),
(644,278,o),
(668,315,o),
(668,369,cs),
(668,458,o),
(592,496,o),
(534,520,c),
(517,526,o),
(513,545,o),
(494,550,c),
(446,574,o),
(387,581,o),
(333,581,cs)
);
},
{
closed = 1;
nodes = (
(889,581,o),
(819,540,o),
(755,440,c),
(884,212,l),
(884,293,ls),
(884,375,o),
(895,412,o),
(927,436,cs),
(947,451,o),
(972,457,o),
(1003,457,cs),
(1057,457,o),
(1102,429,o),
(1129,371,c),
(1140,337,l),
(1148,308,o),
(1152,274,o),
(1152,231,cs),
(1152,134,o),
(1137,112,o),
(1112,112,cs),
(1090,112,o),
(1076,132,o),
(1076,188,cs),
(1076,245,o),
(1096,295,o),
(1168,295,cs),
(1181,295,o),
(1194,294,o),
(1205,292,c),
(1254,284,l),
(1308,254,o),
(1319,197,o),
(1319,105,cs),
(1319,32,o),
(1303,-76,o),
(1180,-76,cs),
(1155,-76,o),
(1129,-73,o),
(1098,-63,c),
(1057,-180,l),
(1098,-194,o),
(1134,-201,o),
(1180,-201,cs),
(1413,-201,o),
(1468,-52,o),
(1468,101,cs),
(1468,280,o),
(1371,380,o),
(1246,406,c),
(1214,407,ls),
(1203,408,o),
(1191,409,o),
(1176,409,cs),
(1018,409,o),
(923,331,o),
(923,189,cs),
(923,67,o),
(985,-12,o),
(1107,-12,cs),
(1240,-12,o),
(1298,73,o),
(1298,236,cs),
(1298,269,o),
(1297,303,o),
(1293,335,c),
(1265,474,o),
(1180,581,o),
(1000,581,cs)
);
}
);
width = 1486;
}
);
script = malayalam;
subCategory = Other;
unicode = 3334;
},
{
category = Letter;
glyphname = imlym;
lastChange = "2023-03-20 12:00:14 +0000";
layers = (
{
anchors = (
{
name = bottom;
pos = (459,0);
},
{
name = top;
pos = (459,546);
}
);
layerId = "4D83A9DC-8FB7-446F-9A35-7DCC3E64AC98";
shapes = (
{
closed = 1;
nodes = (
(135,558,o),
(46,434,o),
(46,304,cs),
(46,178,o),
(92,102,o),
(190,102,cs),
(284,102,o),
(328,171,o),
(328,248,cs),
(328,318,o),
(288,385,o),
(192,385,cs),
(129,385,o),
(78,352,o),
(49,314,c),
(55,290,l),
(93,334,o),
(140,359,o),
(192,359,cs),
(273,359,o),
(301,305,o),
(301,247,cs),
(301,179,o),
(264,128,o),
(192,128,cs),
(102,128,o),
(72,199,o),
(72,303,cs),
(72,310,o),
(72,316,o),
(72,320,cs),
(72,323,o),
(71,326,o),
(71,329,c),
(79,421,o),
(151,532,o),
(302,532,cs),
(356,532,o),
(388,524,o),
(423,499,cs),
(471,464,o),
(493,408,o),
(493,321,cs),
(493,109,l),
(519,109,l),
(519,318,ls),
(519,392,o),
(531,458,o),
(571,497,cs),
(594,519,o),
(626,532,o),
(671,532,cs),
(794,532,o),
(846,428,o),
(846,299,cs),
(846,198,o),
(821,127,o),
(765,83,cs),
(716,45,o),
(657,26,o),
(518,26,cs),
(235,26,ls),
(153,26,o),
(116,15,o),
(88,-13,cs),
(70,-31,o),
(61,-56,o),
(61,-86,cs),
(61,-123,o),
(75,-151,o),
(100,-170,cs),
(130,-193,o),
(167,-201,o),
(227,-201,cs),
(856,-201,l),
(856,-175,l),
(234,-175,ls),
(173,-175,o),
(139,-168,o),
(116,-150,cs),
(98,-136,o),
(88,-115,o),
(88,-86,cs),
(88,-62,o),
(95,-43,o),
(107,-30,cs),
(131,-5,o),
(170,0,o),
(238,0,cs),
(520,0,ls),
(663,0,o),
(728,19,o),
(783,64,cs),
(841,111,o),
(873,184,o),
(873,300,cs),
(873,439,o),
(810,558,o),
(671,558,cs),
(584,558,o),
(518,513,o),
(500,395,c),
(509,401,l),
(485,506,o),
(423,558,o),
(303,558,cs)
);
}
);
width = 918;
},
{
anchors = (
{
name = bottom;
pos = (370,0);
},
{
name = top;
pos = (493,554);
}
);
layerId = "EAD1E2BE-4A7F-4E9C-B677-063429CCD35D";
shapes = (
{
closed = 1;
nodes = (
(146,566,o),
(40,451,o),
(40,311,cs),
(40,186,o),
(107,115,o),
(210,115,cs),
(326,115,o),
(378,189,o),
(378,270,cs),
(378,347,o),
(333,416,o),
(229,416,cs),
(153,416,o),
(97,368,o),
(66,329,c),
(89,271,l),
(115,307,o),
(153,350,o),
(214,350,cs),
(272,350,o),
(295,314,o),
(295,270,cs),
(295,223,o),
(269,183,o),
(209,183,cs),
(146,183,o),
(117,226,o),
(117,308,cs),
(117,323,o),
(119,336,o),
(123,351,cs),
(124,355,o),
(121,360,o),
(122,365,cs),
(150,440,o),
(212,496,o),
(329,496,cs),
(392,496,o),
(427,482,o),
(453,458,cs),
(482,430,o),
(498,393,o),
(498,309,cs),
(498,122,l),
(584,122,l),
(584,300,ls),
(584,389,o),
(592,425,o),
(615,455,cs),
(636,481,o),
(665,494,o),
(709,494,cs),
(813,494,o),
(859,399,o),
(859,301,cs),
(859,240,o),
(849,183,o),
(813,141,cs),
(774,97,o),
(723,70,o),
(572,70,cs),
(238,70,ls),
(168,70,o),
(131,59,o),
(103,40,cs),
(65,16,o),
(50,-22,o),
(50,-68,cs),
(50,-112,o),
(69,-147,o),
(106,-170,cs),
(139,-190,o),
(186,-201,o),
(255,-201,cs),
(925,-201,l),
(925,-129,l),
(259,-129,ls),
(203,-129,o),
(176,-122,o),
(159,-110,cs),
(142,-99,o),
(136,-82,o),
(136,-62,cs),
(136,-41,o),
(145,-23,o),
(166,-13,cs),
(182,-4,o),
(206,0,o),
(263,0,cs),
(584,0,ls),
(720,0,o),
(791,19,o),
(847,61,cs),
(911,109,o),
(947,188,o),
(947,304,cs),
(947,435,o),
(873,566,o),
(711,566,cs),
(634,566,o),
(579,542,o),
(534,470,c),
(552,466,l),
(513,526,o),
(453,566,o),
(331,566,cs)
);
}
);
width = 986;
},
{
anchors = (
{
name = bottom;
pos = (528,0);
},
{
name = top;
pos = (528,562);
}
);
layerId = "1D67CB39-8CE8-4679-A081-F58F86CEB03B";
shapes = (
{
closed = 1;
nodes = (
(163,574,o),
(37,464,o),
(37,321,cs),
(37,201,o),
(116,126,o),
(231,126,cs),
(367,126,o),
(425,200,o),
(425,284,cs),
(425,362,o),
(375,430,o),
(258,430,cs),
(175,430,o),
(83,371,o),
(45,325,c),
(126,315,l),
(158,329,o),
(185,344,o),
(229,344,cs),
(270,344,o),
(290,318,o),
(290,283,cs),
(290,247,o),
(272,219,o),
(229,219,cs),
(183,219,o),
(157,254,o),
(157,309,cs),
(157,329,o),
(159,343,o),
(161,354,cs),
(163,365,o),
(166,378,o),
(171,388,cs),
(200,444,o),
(266,470,o),
(348,470,cs),
(406,470,o),
(441,459,o),
(465,438,cs),
(493,415,o),
(509,376,o),
(509,300,cs),
(509,146,l),
(654,146,l),
(654,317,ls),
(654,388,o),
(660,416,o),
(678,438,cs),
(694,459,o),
(719,468,o),
(745,468,cs),
(837,468,o),
(870,382,o),
(870,302,cs),
(870,247,o),
(861,199,o),
(827,164,cs),
(791,127,o),
(742,105,o),
(599,105,cs),
(284,105,ls),
(191,105,o),
(145,92,o),
(110,71,cs),
(65,43,o),
(44,0,o),
(44,-51,cs),
(44,-101,o),
(66,-140,o),
(107,-166,cs),
(144,-189,o),
(205,-201,o),
(283,-201,cs),
(1000,-201,l),
(1000,-94,l),
(302,-94,ls),
(244,-94,o),
(224,-89,o),
(210,-81,cs),
(197,-72,o),
(192,-60,o),
(192,-45,cs),
(192,-30,o),
(198,-18,o),
(215,-10,cs),
(228,-3,o),
(247,0,o),
(305,0,cs),
(652,0,ls),
(788,0,o),
(861,21,o),
(917,62,cs),
(986,114,o),
(1019,190,o),
(1019,311,cs),
(1019,444,o),
(939,574,o),
(765,574,cs),
(689,574,o),
(616,552,o),
(568,489,c),
(608,482,l),
(558,532,o),
(491,574,o),
(363,574,cs)
);
}
);
width = 1056;
},
{
anchors = (
{
name = bottom;
pos = (370,0);
},
{
name = top;
pos = (370,554);
}
);
layerId = "C7FB44D8-0AA6-40A2-9E07-7E0254BA0D6B";
shapes = (
{
closed = 1;
nodes = (
(122,566,o),
(34,469,o),
(34,318,cs),
(34,176,o),
(87,116,o),
(164,116,cs),
(251,116,o),
(291,177,o),
(291,267,cs),
(291,351,o),
(256,416,o),
(175,416,cs),
(123,416,o),
(80,381,o),
(52,341,c),
(77,298,l),
(98,325,o),
(120,352,o),
(159,352,cs),
(199,352,o),
(213,319,o),
(213,266,cs),
(213,218,o),
(199,180,o),
(165,180,cs),
(121,180,o),
(103,222,o),
(103,308,cs),
(103,325,o),
(105,339,o),
(107,352,cs),
(108,359,o),
(102,365,o),
(104,372,c),
(125,446,o),
(169,500,o),
(247,500,cs),
(288,500,o),
(313,489,o),
(334,466,cs),
(355,442,o),
(365,406,o),
(365,336,cs),
(365,132,l),
(444,132,l),
(444,337,ls),
(444,411,o),
(453,454,o),
(476,479,cs),
(488,492,o),
(504,499,o),
(524,499,cs),
(596,499,o),
(623,401,o),
(623,308,cs),
(623,223,o),
(614,151,o),
(561,108,cs),
(527,81,o),
(483,66,o),
(363,66,cs),
(228,66,ls),
(157,66,o),
(120,56,o),
(92,37,cs),
(57,14,o),
(40,-23,o),
(40,-69,cs),
(40,-116,o),
(61,-150,o),
(94,-171,cs),
(129,-193,o),
(175,-201,o),
(240,-201,cs),
(689,-201,l),
(689,-133,l),
(244,-133,ls),
(193,-133,o),
(163,-127,o),
(144,-114,cs),
(129,-103,o),
(120,-87,o),
(120,-64,cs),
(120,-40,o),
(131,-22,o),
(152,-12,cs),
(170,-3,o),
(189,0,o),
(241,0,cs),
(375,0,ls),
(512,0,o),
(575,19,o),
(626,65,cs),
(682,116,o),
(704,190,o),
(704,309,cs),
(704,461,o),
(649,566,o),
(526,566,cs),
(475,566,o),
(428,542,o),
(394,477,c),
(417,473,l),
(376,528,o),
(341,566,o),
(245,566,cs)
);
}
);
width = 740;
},
{
anchors = (
{
name = bottom;
pos = (339,0);
},
{
name = top;
pos = (339,546);
}
);
layerId = UUID0;
shapes = (
{
closed = 1;
nodes = (
(103,558,o),
(40,437,o),
(40,301,cs),
(40,162,o),
(81,102,o),
(156,102,cs),
(216,102,o),
(254,155,o),
(254,249,cs),
(254,324,o),
(222,385,o),
(154,385,cs),
(108,385,o),
(76,362,o),
(46,325,c),
(54,303,l),
(83,338,o),
(114,359,o),
(153,359,cs),
(208,359,o),
(227,308,o),
(227,249,cs),
(227,171,o),
(202,128,o),
(154,128,cs),
(91,128,o),
(66,186,o),
(66,300,cs),
(66,310,o),
(66,322,o),
(67,329,cs),
(67,332,o),
(67,337,o),
(68,340,c),
(75,425,o),
(119,532,o),
(224,532,cs),
(265,532,o),
(291,522,o),
(310,504,cs),
(346,471,o),
(356,418,o),
(356,325,cs),
(356,109,l),
(382,109,l),
(382,335,ls),
(382,422,o),
(393,472,o),
(423,505,cs),
(439,522,o),
(458,532,o),
(486,532,cs),
(572,532,o),
(609,422,o),
(609,304,cs),
(609,205,o),
(590,121,o),
(539,77,cs),
(499,42,o),
(447,26,o),
(328,26,cs),
(219,26,ls),
(137,26,o),
(100,15,o),
(72,-13,cs),
(54,-31,o),
(45,-56,o),
(45,-86,cs),
(45,-123,o),
(59,-151,o),
(84,-170,cs),
(114,-193,o),
(151,-201,o),
(211,-201,cs),
(624,-201,l),
(624,-175,l),
(218,-175,ls),
(157,-175,o),
(123,-168,o),
(100,-150,cs),
(82,-136,o),
(72,-115,o),
(72,-86,cs),
(72,-62,o),
(79,-43,o),
(91,-30,cs),
(115,-5,o),
(154,0,o),
(222,0,cs),
(327,0,ls),
(448,0,o),
(507,16,o),
(555,57,cs),
(615,109,o),
(636,199,o),
(636,305,cs),
(636,439,o),
(587,558,o),
(487,558,cs),
(422,558,o),
(380,518,o),
(366,423,c),
(373,413,l),
(362,506,o),
(316,558,o),
(225,558,cs)
);
}
);
width = 678;
},
{
anchors = (
{
name = bottom;
pos = (555,0);
},
{
name = top;
pos = (555,569);
}
);
layerId = "43C3EF94-D8C4-4226-80FB-D661263DD944";
shapes = (
{
closed = 1;
nodes = (
(140,581,o),
(32,460,o),
(32,334,cs),
(32,205,o),
(120,138,o),
(239,138,cs),
(402,138,o),
(452,207,o),
(452,292,cs),
(452,372,o),
(393,433,o),
(270,433,cs),
(199,433,o),
(120,385,o),
(86,354,c),
(142,310,l),
(177,329,o),
(203,340,o),
(234,340,cs),
(266,340,o),
(285,326,o),
(285,294,cs),
(285,268,o),
(271,248,o),
(236,248,cs),
(204,248,o),
(182,271,o),
(182,318,cs),
(182,333,o),
(183,349,o),
(184,358,cs),
(186,373,o),
(185,386,o),
(193,399,cs),
(222,443,o),
(295,457,o),
(364,457,cs),
(419,457,o),
(452,444,o),
(475,427,cs),
(508,402,o),
(521,358,o),
(521,272,cs),
(521,161,l),
(705,161,l),
(705,328,ls),
(705,383,o),
(714,410,o),
(729,428,cs),
(744,445,o),
(764,452,o),
(788,452,cs),
(853,452,o),
(886,391,o),
(886,303,cs),
(886,248,o),
(873,202,o),
(839,172,cs),
(803,140,o),
(755,127,o),
(643,127,cs),
(306,127,ls),
(204,127,o),
(146,116,o),
(98,83,cs),
(60,57,o),
(37,16,o),
(37,-42,cs),
(37,-108,o),
(68,-151,o),
(115,-175,cs),
(164,-200,o),
(218,-206,o),
(308,-206,cs),
(1052,-206,l),
(1052,-77,l),
(321,-77,ls),
(270,-77,o),
(252,-73,o),
(239,-64,cs),
(230,-58,o),
(225,-49,o),
(225,-36,cs),
(225,-23,o),
(231,-14,o),
(244,-8,cs),
(257,-2,o),
(271,0,o),
(318,0,cs),
(668,0,ls),
(838,0,o),
(919,19,o),
(982,71,cs),
(1041,120,o),
(1076,198,o),
(1076,312,cs),
(1076,461,o),
(990,581,o),
(807,581,cs),
(712,581,o),
(637,551,o),
(587,494,c),
(644,488,l),
(588,538,o),
(523,581,o),
(371,581,cs)
);
}
);
width = 1111;
},
{
anchors = (
{
name = bottom;
pos = (436,0);
},
{
name = top;
pos = (436,569);
}
);
layerId = "7D50CFCE-8270-4149-A6BB-939E1A586542";
shapes = (
{
closed = 1;
nodes = (
(119,581,o),
(29,471,o),
(29,328,cs),
(29,192,o),
(96,131,o),
(199,131,cs),
(325,131,o),
(361,207,o),
(361,284,cs),
(361,373,o),
(316,426,o),
(231,426,cs),
(170,426,o),
(127,394,o),
(87,350,c),
(134,303,l),
(156,326,o),
(171,333,o),
(187,333,cs),
(205,333,o),
(219,320,o),
(219,288,cs),
(219,259,o),
(209,241,o),
(189,241,cs),
(170,241,o),
(158,257,o),
(158,303,cs),
(158,321,o),
(159,342,o),
(161,354,c),
(162,369,o),
(163,384,o),
(167,400,c),
(191,441,o),
(237,461,o),
(295,461,cs),
(334,461,o),
(355,451,o),
(371,436,cs),
(395,413,o),
(403,377,o),
(403,306,cs),
(403,154,l),
(559,154,l),
(559,349,ls),
(559,410,o),
(565,436,o),
(581,449,cs),
(587,454,o),
(595,458,o),
(609,458,cs),
(656,458,o),
(680,399,o),
(680,317,cs),
(680,239,o),
(668,188,o),
(631,158,cs),
(600,132,o),
(553,122,o),
(461,122,cs),
(296,122,ls),
(186,122,o),
(137,112,o),
(91,80,cs),
(53,53,o),
(31,12,o),
(31,-45,cs),
(31,-111,o),
(62,-153,o),
(109,-177,cs),
(148,-197,o),
(193,-206,o),
(294,-206,cs),
(825,-206,l),
(825,-83,l),
(284,-83,ls),
(237,-83,o),
(219,-79,o),
(207,-71,cs),
(196,-64,o),
(190,-53,o),
(190,-40,cs),
(190,-25,o),
(196,-16,o),
(210,-9,cs),
(222,-3,o),
(238,0,o),
(284,0,cs),
(477,0,ls),
(624,0,o),
(696,20,o),
(749,62,cs),
(817,116,o),
(840,195,o),
(840,318,cs),
(840,461,o),
(776,581,o),
(628,581,cs),
(554,581,o),
(503,556,o),
(456,500,c),
(506,488,l),
(464,537,o),
(412,581,o),
(294,581,cs)
);
}
);
width = 872;
}
);
script = malayalam;
subCategory = Other;
unicode = 3335;
},
{
category = Letter;
glyphname = umlym;
lastChange = "2023-03-20 12:01:25 +0000";
layers = (
{
anchors = (
{
name = bottom;
pos = (320,0);
},
{
name = top;
pos = (320,546);
}
);
layerId = "4D83A9DC-8FB7-446F-9A35-7DCC3E64AC98";
shapes = (
{
closed = 1;
nodes = (
(134,558,o),
(46,428,o),
(46,304,cs),
(46,178,o),
(92,102,o),
(190,102,cs),
(284,102,o),
(328,171,o),
(328,248,cs),
(328,318,o),
(288,385,o),
(192,385,cs),
(129,385,o),
(78,352,o),
(49,314,c),
(55,290,l),
(93,334,o),
(140,359,o),
(192,359,cs),
(273,359,o),
(301,305,o),
(301,247,cs),
(301,179,o),
(264,128,o),
(192,128,cs),
(102,128,o),
(72,199,o),
(72,303,cs),
(72,310,o),
(72,316,o),
(72,320,cs),
(72,323,o),
(72,326,o),
(72,329,cs),
(79,415,o),
(148,532,o),
(322,532,cs),
(479,532,o),
(569,430,o),
(569,282,cs),
(569,187,o),
(545,114,o),
(470,71,cs),
(419,42,o),
(358,26,o),
(245,26,cs),
(235,26,ls),
(153,26,o),
(116,15,o),
(88,-13,cs),
(70,-31,o),
(61,-56,o),
(61,-86,cs),
(61,-123,o),
(75,-151,o),
(100,-170,cs),
(130,-193,o),
(167,-201,o),
(227,-201,cs),
(576,-201,l),
(576,-175,l),
(234,-175,ls),
(173,-175,o),
(139,-168,o),
(116,-150,cs),
(98,-136,o),
(88,-115,o),
(88,-86,cs),
(88,-62,o),
(95,-43,o),
(107,-30,cs),
(131,-5,o),
(170,0,o),
(238,0,cs),
(247,0,ls),
(352,0,o),
(418,13,o),
(482,48,cs),
(565,93,o),
(596,171,o),
(596,287,cs),
(596,446,o),
(488,558,o),
(321,558,cs)
);
}
);
width = 641;
},
{
anchors = (
{
name = bottom;
pos = (264,0);
},
{
name = top;
pos = (346,554);
}
);
layerId = "EAD1E2BE-4A7F-4E9C-B677-063429CCD35D";
shapes = (
{
closed = 1;
nodes = (
(146,566,o),
(40,451,o),
(40,311,cs),
(40,186,o),
(107,115,o),
(210,115,cs),
(326,115,o),
(378,189,o),
(378,270,cs),
(378,347,o),
(333,416,o),
(229,416,cs),
(153,416,o),
(97,368,o),
(66,329,c),
(89,271,l),
(115,307,o),
(153,350,o),
(214,350,cs),
(272,350,o),
(295,314,o),
(295,270,cs),
(295,223,o),
(269,183,o),
(209,183,cs),
(146,183,o),
(117,226,o),
(117,308,cs),
(117,323,o),
(119,336,o),
(123,351,cs),
(124,355,o),
(121,360,o),
(122,365,cs),
(150,440,o),
(212,496,o),
(339,496,cs),
(506,496,o),
(565,394,o),
(565,290,cs),
(565,227,o),
(553,178,o),
(523,143,cs),
(479,92,o),
(411,70,o),
(249,70,cs),
(238,70,ls),
(168,70,o),
(131,59,o),
(103,40,cs),
(65,16,o),
(50,-22,o),
(50,-68,cs),
(50,-112,o),
(69,-147,o),
(106,-170,cs),
(139,-190,o),
(186,-201,o),
(255,-201,cs),
(633,-201,l),
(633,-129,l),
(259,-129,ls),
(203,-129,o),
(176,-122,o),
(159,-110,cs),
(142,-99,o),
(136,-82,o),
(136,-62,cs),
(136,-41,o),
(145,-23,o),
(166,-13,cs),
(182,-4,o),
(206,0,o),
(261,0,cs),
(263,0,ls),
(419,0,o),
(506,20,o),
(573,79,cs),
(626,125,o),
(653,195,o),
(653,291,cs),
(653,423,o),
(573,566,o),
(347,566,cs)
);
}
);
width = 692;
},
{
anchors = (
{
name = bottom;
pos = (380,0);
},
{
name = top;
pos = (380,562);
}
);
layerId = "1D67CB39-8CE8-4679-A081-F58F86CEB03B";
shapes = (
{
closed = 1;
nodes = (
(159,574,o),
(37,457,o),
(37,320,cs),
(37,201,o),
(116,126,o),
(231,126,cs),
(367,126,o),
(425,200,o),
(425,284,cs),
(425,362,o),
(375,430,o),
(258,430,cs),
(175,430,o),
(83,371,o),
(45,325,c),
(126,315,l),
(157,329,o),
(185,344,o),
(229,344,cs),
(270,344,o),
(290,318,o),
(290,283,cs),
(290,247,o),
(272,219,o),
(229,219,cs),
(184,219,o),
(157,254,o),
(157,309,cs),
(157,333,o),
(159,345,o),
(162,356,cs),
(163,360,o),
(161,363,o),
(163,367,c),
(185,438,o),
(261,469,o),
(366,469,cs),
(529,469,o),
(575,371,o),
(575,294,cs),
(575,239,o),
(564,197,o),
(537,167,cs),
(497,123,o),
(432,105,o),
(286,105,cs),
(284,105,ls),
(191,105,o),
(145,92,o),
(110,71,cs),
(65,43,o),
(44,0,o),
(44,-51,cs),
(44,-101,o),
(66,-140,o),
(107,-166,cs),
(144,-189,o),
(205,-201,o),
(283,-201,cs),
(704,-201,l),
(704,-94,l),
(302,-94,ls),
(244,-94,o),
(224,-89,o),
(210,-81,cs),
(197,-72,o),
(192,-60,o),
(192,-45,cs),
(192,-30,o),
(198,-18,o),
(215,-10,cs),
(228,-3,o),
(247,0,o),
(305,0,cs),
(320,0,ls),
(472,0,o),
(566,20,o),
(638,80,cs),
(695,127,o),
(724,198,o),
(724,295,cs),
(724,428,o),
(638,574,o),
(378,574,cs)
);
}
);
width = 760;
},
{
anchors = (
{
name = bottom;
pos = (264,0);
},
{
name = top;
pos = (264,554);
}
);
layerId = "C7FB44D8-0AA6-40A2-9E07-7E0254BA0D6B";
shapes = (
{
closed = 1;
nodes = (
(122,566,o),
(34,472,o),
(34,318,cs),
(34,176,o),
(87,116,o),
(164,116,cs),
(251,116,o),
(291,177,o),
(291,267,cs),
(291,351,o),
(256,416,o),
(175,416,cs),
(123,416,o),
(80,381,o),
(52,341,c),
(77,298,l),
(98,325,o),
(121,352,o),
(159,352,cs),
(199,352,o),
(213,319,o),
(213,266,cs),
(213,218,o),
(199,180,o),
(165,180,cs),
(121,180,o),
(103,222,o),
(103,308,cs),
(103,325,o),
(105,339,o),
(107,352,c),
(108,359,o),
(102,365,o),
(104,372,c),
(126,445,o),
(170,500,o),
(258,500,cs),
(374,500,o),
(412,388,o),
(412,290,cs),
(412,213,o),
(404,145,o),
(360,104,cs),
(333,80,o),
(300,66,o),
(216,66,cs),
(213,66,ls),
(161,66,o),
(120,57,o),
(92,38,cs),
(57,15,o),
(40,-23,o),
(40,-69,cs),
(40,-116,o),
(61,-150,o),
(94,-171,cs),
(129,-193,o),
(175,-201,o),
(240,-201,cs),
(479,-201,l),
(479,-133,l),
(244,-133,ls),
(193,-133,o),
(163,-127,o),
(144,-114,cs),
(129,-104,o),
(120,-87,o),
(120,-64,cs),
(120,-40,o),
(131,-21,o),
(152,-11,cs),
(170,-2,o),
(191,0,o),
(221,0,cs),
(235,0,ls),
(311,0,o),
(369,11,o),
(417,53,cs),
(470,100,o),
(493,181,o),
(493,290,cs),
(493,428,o),
(434,566,o),
(263,566,cs)
);
}
);
width = 529;
},
{
anchors = (
{
name = bottom;
pos = (241,0);
},
{
name = top;
pos = (241,546);
}
);
layerId = UUID0;
shapes = (
{
closed = 1;
nodes = (
(106,558,o),
(40,439,o),
(40,301,cs),
(40,162,o),
(81,102,o),
(156,102,cs),
(216,102,o),
(254,155,o),
(254,249,cs),
(254,324,o),
(222,385,o),
(154,385,cs),
(108,385,o),
(76,362,o),
(46,325,c),
(54,303,l),
(83,338,o),
(114,359,o),
(153,359,cs),
(208,359,o),
(227,308,o),
(227,249,cs),
(227,171,o),
(202,128,o),
(154,128,cs),
(91,128,o),
(66,186,o),
(66,300,cs),
(66,310,o),
(66,322,o),
(67,329,cs),
(67,332,o),
(67,337,o),
(68,340,c),
(75,427,o),
(122,532,o),
(245,532,cs),
(355,532,o),
(413,433,o),
(413,285,cs),
(413,192,o),
(402,123,o),
(364,80,cs),
(333,45,o),
(290,27,o),
(205,26,c),
(203,26,l),
(139,25,o),
(100,15,o),
(72,-13,cs),
(54,-31,o),
(45,-56,o),
(45,-86,cs),
(45,-123,o),
(59,-151,o),
(84,-170,cs),
(114,-193,o),
(151,-201,o),
(211,-201,cs),
(427,-201,l),
(427,-175,l),
(218,-175,ls),
(157,-175,o),
(123,-168,o),
(100,-150,cs),
(82,-136,o),
(72,-115,o),
(72,-86,cs),
(72,-62,o),
(79,-43,o),
(91,-30,cs),
(115,-5,o),
(155,-1,o),
(196,0,c),
(202,0,l),
(293,0,o),
(348,21,o),
(385,64,cs),
(425,111,o),
(440,178,o),
(440,284,cs),
(440,450,o),
(369,558,o),
(244,558,cs)
);
}
);
width = 482;
},
{
anchors = (
{
name = bottom;
pos = (396,0);
},
{
name = top;
pos = (396,569);
}
);
layerId = "43C3EF94-D8C4-4226-80FB-D661263DD944";
shapes = (
{
closed = 1;
nodes = (
(139,581,o),
(32,456,o),
(32,333,cs),
(32,205,o),
(120,138,o),
(239,138,cs),
(402,138,o),
(452,207,o),
(452,292,cs),
(452,372,o),
(393,433,o),
(270,433,cs),
(199,433,o),
(120,385,o),
(86,354,c),
(142,310,l),
(177,329,o),
(203,340,o),
(234,340,cs),
(266,340,o),
(285,326,o),
(285,294,cs),
(285,268,o),
(271,248,o),
(236,248,cs),
(204,248,o),
(182,271,o),
(182,318,cs),
(182,333,o),
(183,349,o),
(184,358,cs),
(186,373,o),
(178,385,o),
(188,398,c),
(221,441,o),
(282,457,o),
(380,457,cs),
(498,457,o),
(569,396,o),
(569,296,cs),
(569,245,o),
(556,202,o),
(523,172,cs),
(487,140,o),
(442,127,o),
(316,127,cs),
(298,127,ls),
(204,127,o),
(146,116,o),
(98,83,cs),
(60,57,o),
(37,16,o),
(37,-42,cs),
(37,-108,o),
(68,-151,o),
(115,-175,cs),
(164,-200,o),
(218,-206,o),
(308,-206,cs),
(740,-206,l),
(740,-77,l),
(321,-77,ls),
(270,-77,o),
(252,-73,o),
(239,-64,cs),
(230,-58,o),
(225,-49,o),
(225,-36,cs),
(225,-23,o),
(231,-14,o),
(244,-8,cs),
(257,-2,o),
(271,0,o),
(318,0,cs),
(340,0,ls),
(515,0,o),
(603,22,o),
(667,74,cs),
(720,117,o),
(759,192,o),
(759,294,cs),
(759,449,o),
(651,581,o),
(389,581,cs)
);
}
);
width = 793;
},
{
anchors = (
{
name = bottom;
pos = (314,0);
},
{
name = top;
pos = (314,569);
}
);
layerId = "7D50CFCE-8270-4149-A6BB-939E1A586542";
shapes = (
{
closed = 1;
nodes = (
(127,581,o),
(29,468,o),
(29,323,cs),
(29,192,o),
(96,131,o),
(199,131,cs),
(325,131,o),
(361,207,o),
(361,284,cs),
(361,373,o),
(316,426,o),
(231,426,cs),
(170,426,o),
(127,394,o),
(87,350,c),
(130,303,l),
(152,326,o),
(171,333,o),
(187,333,cs),
(205,333,o),
(219,320,o),
(219,288,cs),
(219,259,o),
(209,241,o),
(189,241,cs),
(170,241,o),
(158,257,o),
(158,303,cs),
(158,321,o),
(159,342,o),
(161,354,c),
(162,369,o),
(162,384,o),
(166,400,c),
(192,434,o),
(237,458,o),
(302,458,cs),
(383,458,o),
(436,405,o),
(436,294,cs),
(436,248,o),
(429,198,o),
(397,164,cs),
(371,137,o),
(335,122,o),
(259,122,cs),
(255,122,l),
(192,121,o),
(137,114,o),
(91,82,cs),
(53,55,o),
(31,13,o),
(31,-45,cs),
(31,-111,o),
(62,-153,o),
(109,-177,cs),
(148,-197,o),
(193,-206,o),
(294,-206,cs),
(581,-206,l),
(581,-83,l),
(284,-83,ls),
(237,-83,o),
(219,-79,o),
(207,-71,cs),
(196,-64,o),
(190,-53,o),
(190,-40,cs),
(190,-25,o),
(196,-15,o),
(210,-8,cs),
(222,-2,o),
(238,0,o),
(257,0,cs),
(268,0,ls),
(375,0,o),
(457,18,o),
(513,66,cs),
(572,117,o),
(597,194,o),
(597,301,cs),
(597,457,o),
(506,581,o),
(314,581,cs)
);
}
);
width = 629;
}
);
script = malayalam;
subCategory = Other;
unicode = 3337;
},
{
category = Letter;
glyphname = rvocalicmlym;
lastChange = "2023-03-20 12:00:13 +0000";
layers = (
{
anchors = (
{
name = bottom;
pos = (400,0);
},
{
name = top;
pos = (400,546);
}
);
layerId = "4D83A9DC-8FB7-446F-9A35-7DCC3E64AC98";
shapes = (
{
closed = 1;
nodes = (
(509,558,o),
(459,495,o),
(459,414,cs),
(459,335,o),
(508,276,o),
(603,276,cs),
(671,276,o),
(719,308,o),
(751,343,c),
(743,368,l),
(719,338,o),
(674,302,o),
(604,302,cs),
(525,302,o),
(486,344,o),
(486,414,cs),
(486,480,o),
(521,532,o),
(597,532,cs),
(694,532,o),
(733,455,o),
(733,365,cs),
(733,358,o),
(732,350,o),
(732,343,c),
(733,335,l),
(719,187,o),
(604,123,o),
(402,123,cs),
(395,123,ls),
(196,123,o),
(81,187,o),
(67,335,c),
(68,343,l),
(68,350,o),
(67,357,o),
(67,365,cs),
(67,455,o),
(108,532,o),
(203,532,cs),
(279,532,o),
(314,480,o),
(314,414,cs),
(314,344,o),
(275,302,o),
(196,302,cs),
(126,302,o),
(81,338,o),
(57,368,c),
(49,343,l),
(81,308,o),
(129,276,o),
(197,276,cs),
(292,276,o),
(341,335,o),
(341,414,cs),
(341,495,o),
(291,558,o),
(203,558,cs),
(102,558,o),
(41,479,o),
(41,365,cs),
(41,269,o),
(73,208,o),
(123,169,cs),
(187,120,o),
(274,107,o),
(372,107,cs),
(428,107,ls),
(528,107,o),
(613,120,o),
(677,169,cs),
(727,208,o),
(759,269,o),
(759,365,cs),
(759,479,o),
(700,558,o),
(597,558,cs)
);
},
{
closed = 1;
nodes = (
(639,-203,o),
(728,-149,o),
(728,-42,cs),
(728,84,o),
(606,114,o),
(437,114,cs),
(363,114,ls),
(194,114,o),
(72,83,o),
(72,-42,cs),
(72,-149,o),
(161,-203,o),
(398,-203,cs)
);
},
{
closed = 1;
nodes = (
(169,-177,o),
(99,-131,o),
(99,-40,cs),
(99,53,o),
(184,98,o),
(395,98,cs),
(402,98,ls),
(615,98,o),
(701,53,o),
(701,-40,cs),
(701,-131,o),
(631,-177,o),
(399,-177,cs)
);
}
);
width = 800;
},
{
anchors = (
{
name = bottom;
pos = (339,0);
},
{
name = top;
pos = (435,554);
}
);
layerId = "EAD1E2BE-4A7F-4E9C-B677-063429CCD35D";
shapes = (
{
closed = 1;
nodes = (
(531,566,o),
(476,489,o),
(476,405,cs),
(476,324,o),
(524,251,o),
(633,251,cs),
(724,251,o),
(773,298,o),
(806,338,c),
(783,394,l),
(754,361,o),
(722,320,o),
(646,320,cs),
(583,320,o),
(557,358,o),
(557,405,cs),
(557,455,o),
(586,496,o),
(652,496,cs),
(719,496,o),
(756,450,o),
(756,353,cs),
(756,346,o),
(755,331,o),
(751,315,c),
(756,301,l),
(714,187,o),
(641,156,o),
(444,156,cs),
(420,156,ls),
(241,156,o),
(161,183,o),
(115,301,c),
(120,315,l),
(116,331,o),
(115,346,o),
(115,362,cs),
(115,443,o),
(149,496,o),
(224,496,cs),
(285,496,o),
(314,455,o),
(314,405,cs),
(314,358,o),
(289,320,o),
(225,320,cs),
(147,320,o),
(117,364,o),
(88,400,c),
(65,340,l),
(98,298,o),
(146,251,o),
(238,251,cs),
(343,251,o),
(395,321,o),
(395,403,cs),
(395,488,o),
(341,566,o),
(228,566,cs),
(108,566,o),
(37,485,o),
(37,359,cs),
(37,264,o),
(78,186,o),
(154,135,cs),
(205,102,o),
(265,91,o),
(404,91,cs),
(462,91,ls),
(610,91,o),
(685,108,o),
(739,152,cs),
(802,203,o),
(834,270,o),
(834,362,cs),
(834,488,o),
(764,566,o),
(656,566,cs)
);
},
{
closed = 1;
nodes = (
(701,-213,o),
(801,-146,o),
(801,-28,cs),
(801,93,o),
(653,134,o),
(493,134,cs),
(373,134,ls),
(220,134,o),
(70,93,o),
(70,-25,cs),
(70,-162,o),
(192,-213,o),
(439,-213,cs)
);
},
{
closed = 1;
nodes = (
(233,-141,o),
(157,-107,o),
(157,-27,cs),
(157,63,o),
(277,84,o),
(429,84,cs),
(437,84,ls),
(588,84,o),
(714,67,o),
(714,-28,cs),
(714,-103,o),
(638,-141,o),
(438,-141,cs)
);
}
);
width = 871;
},
{
anchors = (
{
name = bottom;
pos = (505,0);
},
{
name = top;
pos = (505,562);
}
);
layerId = "1D67CB39-8CE8-4679-A081-F58F86CEB03B";
shapes = (
{
closed = 1;
nodes = (
(605,574,o),
(535,493,o),
(535,397,cs),
(535,286,o),
(608,226,o),
(732,226,cs),
(827,226,o),
(900,285,o),
(933,322,c),
(900,427,l),
(867,377,o),
(831,322,o),
(758,322,cs),
(710,322,o),
(677,346,o),
(677,400,cs),
(677,447,o),
(706,474,o),
(750,474,cs),
(807,474,o),
(841,429,o),
(841,355,cs),
(841,330,o),
(837,308,o),
(832,289,c),
(841,275,l),
(803,176,o),
(648,167,o),
(546,167,cs),
(465,167,ls),
(353,167,o),
(207,181,o),
(171,275,c),
(180,290,l),
(174,309,o),
(170,332,o),
(170,357,cs),
(170,429,o),
(204,474,o),
(262,474,cs),
(305,474,o),
(335,447,o),
(335,400,cs),
(335,346,o),
(301,322,o),
(253,322,cs),
(180,322,o),
(144,377,o),
(111,427,c),
(78,322,l),
(111,285,o),
(184,226,o),
(279,226,cs),
(403,226,o),
(477,286,o),
(477,397,cs),
(477,493,o),
(409,574,o),
(272,574,cs),
(127,574,o),
(34,489,o),
(34,341,cs),
(34,242,o),
(83,163,o),
(167,115,cs),
(226,80,o),
(302,61,o),
(390,61,cs),
(624,61,ls),
(717,61,o),
(797,83,o),
(857,122,cs),
(932,170,o),
(976,246,o),
(976,341,cs),
(976,495,o),
(886,574,o),
(744,574,cs)
);
},
{
closed = 1;
nodes = (
(794,-249,o),
(903,-172,o),
(903,-46,cs),
(903,89,o),
(757,131,o),
(568,131,cs),
(438,131,ls),
(259,131,o),
(108,87,o),
(108,-43,cs),
(108,-191,o),
(241,-249,o),
(510,-249,cs)
);
},
{
closed = 1;
nodes = (
(326,-140,o),
(258,-109,o),
(258,-39,cs),
(258,41,o),
(365,60,o),
(494,60,cs),
(519,60,ls),
(634,60,o),
(753,47,o),
(753,-40,cs),
(753,-106,o),
(685,-140,o),
(508,-140,cs)
);
}
);
width = 1010;
},
{
anchors = (
{
name = bottom;
pos = (339,0);
},
{
name = top;
pos = (339,554);
}
);
layerId = "C7FB44D8-0AA6-40A2-9E07-7E0254BA0D6B";
shapes = (
{
closed = 1;
nodes = (
(410,566,o),
(369,495,o),
(369,408,cs),
(369,312,o),
(406,253,o),
(495,253,cs),
(545,253,o),
(585,282,o),
(621,317,c),
(597,368,l),
(566,335,o),
(544,318,o),
(510,318,cs),
(461,318,o),
(445,350,o),
(445,405,cs),
(445,463,o),
(465,500,o),
(506,500,cs),
(551,500,o),
(572,455,o),
(572,365,cs),
(572,347,o),
(569,322,o),
(566,306,c),
(568,287,l),
(546,196,o),
(467,154,o),
(358,154,cs),
(321,154,ls),
(212,154,o),
(133,196,o),
(111,285,c),
(113,304,l),
(109,324,o),
(107,345,o),
(107,365,cs),
(107,449,o),
(132,500,o),
(180,500,cs),
(218,500,o),
(234,463,o),
(234,412,cs),
(234,350,o),
(216,318,o),
(167,318,cs),
(133,318,o),
(111,335,o),
(81,370,c),
(57,319,l),
(96,281,o),
(134,253,o),
(184,253,cs),
(271,253,o),
(310,309,o),
(310,411,cs),
(310,497,o),
(273,566,o),
(185,566,cs),
(88,566,o),
(34,480,o),
(34,360,cs),
(34,279,o),
(53,218,o),
(93,172,cs),
(140,118,o),
(215,94,o),
(320,94,cs),
(363,94,ls),
(466,94,o),
(537,119,o),
(586,173,cs),
(627,219,o),
(645,280,o),
(645,364,cs),
(645,489,o),
(593,566,o),
(506,566,cs)
);
},
{
closed = 1;
nodes = (
(520,-213,o),
(617,-153,o),
(617,-33,cs),
(617,81,o),
(514,134,o),
(389,134,cs),
(289,134,ls),
(165,134,o),
(62,81,o),
(62,-33,cs),
(62,-153,o),
(159,-213,o),
(340,-213,cs)
);
},
{
closed = 1;
nodes = (
(199,-145,o),
(143,-105,o),
(143,-29,cs),
(143,55,o),
(220,86,o),
(328,86,cs),
(351,86,ls),
(459,86,o),
(536,56,o),
(536,-29,cs),
(536,-106,o),
(480,-145,o),
(340,-145,cs)
);
}
);
width = 679;
},
{
anchors = (
{
name = bottom;
pos = (310,0);
},
{
name = top;
pos = (310,546);
}
);
layerId = UUID0;
shapes = (
{
closed = 1;
nodes = (
(396,558,o),
(355,497,o),
(355,412,cs),
(355,331,o),
(393,276,o),
(463,276,cs),
(509,276,o),
(543,298,o),
(572,331,c),
(564,356,l),
(538,323,o),
(509,302,o),
(464,302,cs),
(411,302,o),
(382,339,o),
(382,412,cs),
(382,482,o),
(410,532,o),
(462,532,cs),
(527,532,o),
(556,468,o),
(556,364,cs),
(556,351,o),
(555,339,o),
(554,328,cs),
(553,316,ls),
(535,178,o),
(435,123,o),
(314,123,cs),
(307,123,ls),
(186,123,o),
(86,178,o),
(68,316,c),
(67,328,l),
(66,339,o),
(65,351,o),
(65,361,cs),
(65,464,o),
(96,532,o),
(163,532,cs),
(211,532,o),
(239,489,o),
(239,418,cs),
(239,339,o),
(209,302,o),
(153,302,cs),
(111,302,o),
(82,323,o),
(56,356,c),
(48,331,l),
(77,298,o),
(112,276,o),
(154,276,cs),
(225,276,o),
(266,330,o),
(266,417,cs),
(266,500,o),
(228,558,o),
(163,558,cs),
(85,558,o),
(40,487,o),
(40,362,cs),
(40,298,o),
(54,244,o),
(80,203,cs),
(120,141,o),
(191,107,o),
(287,107,cs),
(334,107,ls),
(430,107,o),
(501,141,o),
(541,203,cs),
(567,244,o),
(581,298,o),
(581,364,cs),
(581,490,o),
(538,558,o),
(462,558,cs)
);
},
{
closed = 1;
nodes = (
(484,-203,o),
(559,-142,o),
(559,-38,cs),
(559,73,o),
(462,114,o),
(343,114,cs),
(278,114,ls),
(159,114,o),
(62,73,o),
(62,-39,cs),
(62,-146,o),
(140,-203,o),
(310,-203,cs)
);
},
{
closed = 1;
nodes = (
(156,-177,o),
(89,-131,o),
(89,-39,cs),
(89,51,o),
(162,98,o),
(309,98,cs),
(312,98,ls),
(459,98,o),
(532,51,o),
(532,-39,cs),
(532,-131,o),
(462,-177,o),
(311,-177,cs)
);
}
);
width = 621;
},
{
anchors = (
{
name = bottom;
pos = (530,0);
},
{
name = top;
pos = (530,569);
}
);
layerId = "43C3EF94-D8C4-4226-80FB-D661263DD944";
shapes = (
{
closed = 1;
nodes = (
(626,581,o),
(550,496,o),
(550,395,cs),
(550,271,o),
(630,221,o),
(767,221,cs),
(856,221,o),
(928,279,o),
(975,332,c),
(931,426,l),
(888,373,o),
(852,334,o),
(795,334,cs),
(760,334,o),
(730,349,o),
(730,399,cs),
(730,439,o),
(751,461,o),
(788,461,cs),
(830,461,o),
(862,420,o),
(862,345,cs),
(862,328,o),
(861,313,o),
(858,297,c),
(858,274,l),
(822,182,o),
(689,173,o),
(539,173,cs),
(520,173,ls),
(369,173,o),
(239,182,o),
(203,274,c),
(203,299,l),
(200,313,o),
(199,328,o),
(199,345,cs),
(199,420,o),
(231,461,o),
(274,461,cs),
(310,461,o),
(331,439,o),
(331,399,cs),
(331,349,o),
(301,334,o),
(266,334,cs),
(209,334,o),
(173,373,o),
(130,426,c),
(86,332,l),
(133,279,o),
(205,221,o),
(290,221,cs),
(430,221,o),
(511,271,o),
(511,395,cs),
(511,496,o),
(435,581,o),
(287,581,cs),
(122,581,o),
(30,485,o),
(30,339,cs),
(30,245,o),
(67,174,o),
(132,127,cs),
(201,77,o),
(298,61,o),
(411,61,cs),
(650,61,ls),
(763,61,o),
(860,77,o),
(929,127,cs),
(994,174,o),
(1031,245,o),
(1031,339,cs),
(1031,485,o),
(938,581,o),
(779,581,cs)
);
},
{
closed = 1;
nodes = (
(819,-261,o),
(958,-205,o),
(958,-59,cs),
(958,89,o),
(773,129,o),
(615,129,cs),
(446,129,ls),
(288,129,o),
(103,89,o),
(103,-59,cs),
(103,-205,o),
(243,-261,o),
(541,-261,cs)
);
},
{
closed = 1;
nodes = (
(366,-128,o),
(294,-105,o),
(294,-39,cs),
(294,29,o),
(384,45,o),
(516,45,cs),
(545,45,ls),
(677,45,o),
(767,29,o),
(767,-39,cs),
(767,-105,o),
(695,-128,o),
(532,-128,cs)
);
}
);
width = 1061;
},
{
anchors = (
{
name = bottom;
pos = (417,0);
},
{
name = top;
pos = (417,569);
}
);
layerId = "7D50CFCE-8270-4149-A6BB-939E1A586542";
shapes = (
{
closed = 1;
nodes = (
(509,581,o),
(430,516,o),
(430,394,cs),
(430,270,o),
(498,224,o),
(585,224,cs),
(653,224,o),
(720,275,o),
(757,328,c),
(713,415,l),
(673,351,o),
(656,333,o),
(621,333,cs),
(598,333,o),
(581,349,o),
(581,400,cs),
(581,446,o),
(597,466,o),
(618,466,cs),
(643,466,o),
(663,444,o),
(663,363,cs),
(663,339,o),
(661,318,o),
(657,299,c),
(651,258,l),
(611,188,o),
(526,170,o),
(424,170,cs),
(411,170,ls),
(309,170,o),
(224,188,o),
(184,258,c),
(178,299,l),
(174,318,o),
(172,339,o),
(172,363,cs),
(172,444,o),
(192,466,o),
(221,466,cs),
(240,466,o),
(254,446,o),
(254,408,cs),
(254,349,o),
(237,333,o),
(211,333,cs),
(179,333,o),
(160,354,o),
(122,415,c),
(78,328,l),
(115,275,o),
(186,224,o),
(245,224,cs),
(337,224,o),
(405,270,o),
(405,402,cs),
(405,508,o),
(335,581,o),
(225,581,cs),
(99,581,o),
(27,486,o),
(27,360,cs),
(27,267,o),
(50,208,o),
(89,163,cs),
(149,93,o),
(228,67,o),
(361,67,cs),
(478,67,ls),
(606,67,o),
(684,94,o),
(746,163,cs),
(784,206,o),
(808,263,o),
(808,355,cs),
(808,492,o),
(736,581,o),
(617,581,cs)
);
},
{
closed = 1;
nodes = (
(619,-261,o),
(748,-207,o),
(748,-59,cs),
(748,79,o),
(600,126,o),
(470,126,cs),
(365,126,ls),
(234,126,o),
(87,79,o),
(87,-59,cs),
(87,-207,o),
(216,-261,o),
(418,-261,cs)
);
},
{
closed = 1;
nodes = (
(312,-135,o),
(249,-107,o),
(249,-43,cs),
(249,27,o),
(322,48,o),
(416,48,cs),
(419,48,ls),
(513,48,o),
(586,27,o),
(586,-43,cs),
(586,-107,o),
(523,-135,o),
(418,-135,cs)
);
}
);
width = 835;
}
);
script = malayalam;
subCategory = Other;
unicode = 3339;
},
{
category = Letter;
glyphname = lvocalicmlym;
lastChange = "2023-03-20 12:00:12 +0000";
layers = (
{
anchors = (
{
name = bottom;
pos = (544,0);
},
{
name = top;
pos = (544,546);
}
);
layerId = "4D83A9DC-8FB7-446F-9A35-7DCC3E64AC98";
shapes = (
{
closed = 1;
nodes = (
(158,558,o),
(48,422,o),
(48,225,cs),
(48,53,o),
(124,-12,o),
(218,-12,cs),
(295,-12,o),
(358,39,o),
(358,149,cs),
(358,250,o),
(290,302,o),
(211,302,cs),
(158,302,o),
(99,280,o),
(53,229,c),
(58,203,l),
(89,238,o),
(147,276,o),
(210,276,cs),
(293,276,o),
(331,219,o),
(331,149,cs),
(331,49,o),
(279,14,o),
(218,14,cs),
(130,14,o),
(74,79,o),
(74,226,cs),
(74,232,ls),
(74,403,o),
(170,532,o),
(329,532,cs),
(381,532,o),
(413,522,o),
(445,498,cs),
(488,465,o),
(516,414,o),
(516,312,cs),
(516,0,l),
(542,0,l),
(542,279,l),
(534,368,l),
(533,389,l),
(516,495,o),
(447,558,o),
(330,558,cs)
);
},
{
closed = 1;
nodes = (
(970,-12,o),
(1044,61,o),
(1044,243,cs),
(1044,424,o),
(942,558,o),
(749,558,cs),
(615,558,o),
(529,473,o),
(523,349,c),
(542,261,l),
(542,292,ls),
(542,394,o),
(564,446,o),
(609,485,cs),
(643,515,o),
(690,532,o),
(750,532,cs),
(927,532,o),
(1001,414,o),
(1017,291,cs),
(1018,285,o),
(1017,277,o),
(1017,271,cs),
(1017,265,o),
(1018,259,o),
(1018,244,cs),
(1018,83,o),
(962,14,o),
(866,14,cs),
(764,14,o),
(727,92,o),
(727,189,cs),
(727,290,o),
(777,354,o),
(874,354,cs),
(952,354,o),
(1003,295,o),
(1028,243,c),
(1040,257,l),
(1009,324,o),
(958,380,o),
(873,380,cs),
(773,380,o),
(700,314,o),
(700,187,cs),
(700,76,o),
(750,-12,o),
(864,-12,cs)
);
}
);
width = 1089;
},
{
anchors = (
{
name = bottom;
pos = (445,0);
},
{
name = top;
pos = (583,554);
}
);
layerId = "EAD1E2BE-4A7F-4E9C-B677-063429CCD35D";
shapes = (
{
closed = 1;
nodes = (
(182,566,o),
(42,452,o),
(42,241,cs),
(42,63,o),
(135,-12,o),
(240,-12,cs),
(343,-12,o),
(410,54,o),
(410,165,cs),
(410,269,o),
(344,328,o),
(248,328,cs),
(183,328,o),
(119,296,o),
(80,248,c),
(95,186,l),
(134,229,o),
(181,258,o),
(233,258,cs),
(289,258,o),
(327,223,o),
(327,157,cs),
(327,93,o),
(292,58,o),
(242,58,cs),
(170,58,o),
(123,115,o),
(123,228,cs),
(123,239,ls),
(123,385,o),
(213,494,o),
(357,494,cs),
(417,494,o),
(450,481,o),
(478,456,cs),
(508,428,o),
(522,385,o),
(522,306,cs),
(522,0,l),
(608,0,l),
(608,229,l),
(597,394,l),
(583,460,l),
(531,528,o),
(470,566,o),
(358,566,cs)
);
},
{
closed = 1;
nodes = (
(1036,-12,o),
(1128,63,o),
(1128,242,cs),
(1128,430,o),
(1017,566,o),
(799,566,cs),
(671,566,o),
(606,518,o),
(556,454,c),
(608,204,l),
(608,289,ls),
(608,381,o),
(629,420,o),
(661,451,cs),
(695,482,o),
(742,494,o),
(799,494,cs),
(948,494,o),
(1019,411,o),
(1035,335,cs),
(1038,323,o),
(1038,309,o),
(1040,298,cs),
(1043,279,o),
(1045,262,o),
(1045,248,cs),
(1045,112,o),
(997,58,o),
(916,58,cs),
(838,58,o),
(806,115,o),
(806,198,cs),
(806,279,o),
(843,334,o),
(927,334,cs),
(1007,334,o),
(1059,270,o),
(1074,209,c),
(1099,206,l),
(1094,305,o),
(1021,404,o),
(910,404,cs),
(795,404,o),
(722,322,o),
(722,196,cs),
(722,86,o),
(786,-12,o),
(915,-12,cs)
);
}
);
width = 1167;
},
{
anchors = (
{
name = bottom;
pos = (649,0);
},
{
name = top;
pos = (649,562);
}
);
layerId = "1D67CB39-8CE8-4679-A081-F58F86CEB03B";
shapes = (
{
closed = 1;
nodes = (
(196,574,o),
(37,457,o),
(37,242,cs),
(37,62,o),
(146,-12,o),
(267,-12,cs),
(395,-12,o),
(469,58,o),
(469,174,cs),
(469,279,o),
(405,347,o),
(291,347,cs),
(208,347,o),
(141,306,o),
(104,267,c),
(116,168,l),
(161,219,o),
(206,247,o),
(255,247,cs),
(304,247,o),
(327,217,o),
(327,167,cs),
(327,115,o),
(304,88,o),
(262,88,cs),
(211,88,o),
(172,125,o),
(172,237,cs),
(172,240,ls),
(172,390,o),
(268,468,o),
(396,468,cs),
(454,468,o),
(486,455,o),
(511,433,cs),
(539,409,o),
(556,371,o),
(556,269,cs),
(556,0,l),
(703,0,l),
(703,225,l),
(681,398,l),
(658,473,l),
(594,540,o),
(519,574,o),
(399,574,cs)
);
},
{
closed = 1;
nodes = (
(1169,-12,o),
(1262,65,o),
(1262,237,cs),
(1262,423,o),
(1134,574,o),
(896,574,cs),
(746,574,o),
(674,527,o),
(616,471,c),
(703,211,l),
(703,244,ls),
(703,363,o),
(725,405,o),
(762,433,cs),
(796,459,o),
(831,467,o),
(890,467,cs),
(1029,467,o),
(1100,400,o),
(1113,327,c),
(1116,322,o),
(1110,313,o),
(1112,307,c),
(1116,284,o),
(1118,258,o),
(1118,239,cs),
(1118,137,o),
(1083,93,o),
(1026,93,cs),
(968,93,o),
(943,137,o),
(943,202,cs),
(943,269,o),
(970,310,o),
(1035,310,cs),
(1098,310,o),
(1141,257,o),
(1153,207,c),
(1208,204,l),
(1201,307,o),
(1118,410,o),
(999,410,cs),
(870,410,o),
(800,327,o),
(800,206,cs),
(800,88,o),
(863,-12,o),
(1019,-12,cs)
);
}
);
width = 1298;
},
{
anchors = (
{
name = bottom;
pos = (445,0);
},
{
name = top;
pos = (445,554);
}
);
layerId = "C7FB44D8-0AA6-40A2-9E07-7E0254BA0D6B";
shapes = (
{
closed = 1;
nodes = (
(141,566,o),
(38,462,o),
(38,241,cs),
(38,54,o),
(106,-12,o),
(188,-12,cs),
(274,-12,o),
(321,42,o),
(321,160,cs),
(321,272,o),
(274,326,o),
(195,326,cs),
(143,326,o),
(96,291,o),
(65,257,c),
(86,204,l),
(117,242,o),
(142,260,o),
(177,260,cs),
(220,260,o),
(243,231,o),
(243,157,cs),
(243,84,o),
(221,55,o),
(187,55,cs),
(143,55,o),
(113,99,o),
(113,222,cs),
(113,251,ls),
(113,393,o),
(177,498,o),
(279,498,cs),
(318,498,o),
(345,485,o),
(362,465,cs),
(386,437,o),
(393,398,o),
(393,326,cs),
(393,0,l),
(472,0,l),
(472,264,l),
(460,417,l),
(444,473,l),
(402,533,o),
(359,566,o),
(277,566,cs)
);
},
{
closed = 1;
nodes = (
(789,-12,o),
(855,51,o),
(855,242,cs),
(855,436,o),
(768,566,o),
(601,566,cs),
(503,566,o),
(454,517,o),
(419,459,c),
(472,207,l),
(472,311,ls),
(472,391,o),
(481,436,o),
(513,467,cs),
(535,488,o),
(564,498,o),
(606,498,cs),
(704,498,o),
(760,420,o),
(772,335,c),
(775,330,o),
(772,317,o),
(774,310,c),
(777,283,o),
(779,251,o),
(779,248,cs),
(779,107,o),
(748,53,o),
(696,53,cs),
(647,53,o),
(625,106,o),
(625,198,cs),
(625,284,o),
(649,337,o),
(704,337,cs),
(756,337,o),
(788,282,o),
(800,249,c),
(827,266,l),
(788,358,o),
(756,402,o),
(686,402,cs),
(599,402,o),
(547,331,o),
(547,199,cs),
(547,78,o),
(593,-12,o),
(695,-12,cs)
);
}
);
width = 891;
},
{
anchors = (
{
name = bottom;
pos = (399,0);
},
{
name = top;
pos = (399,546);
}
);
layerId = UUID0;
shapes = (
{
closed = 1;
nodes = (
(129,558,o),
(44,440,o),
(44,225,cs),
(44,39,o),
(96,-12,o),
(168,-12,cs),
(225,-12,o),
(273,29,o),
(273,151,cs),
(273,257,o),
(225,302,o),
(165,302,cs),
(125,302,o),
(90,284,o),
(49,235,c),
(58,212,l),
(89,252,o),
(120,276,o),
(165,276,cs),
(220,276,o),
(246,229,o),
(246,151,cs),
(246,42,o),
(210,14,o),
(168,14,cs),
(106,14,o),
(70,66,o),
(70,222,cs),
(70,237,ls),
(70,414,o),
(140,532,o),
(245,532,cs),
(282,532,o),
(308,522,o),
(327,504,cs),
(363,471,o),
(373,418,o),
(373,325,cs),
(373,0,l),
(399,0,l),
(399,295,l),
(392,370,l),
(390,413,l),
(379,506,o),
(333,558,o),
(245,558,cs)
);
},
{
closed = 1;
nodes = (
(703,-12,o),
(756,41,o),
(756,236,cs),
(756,428,o),
(684,558,o),
(537,558,cs),
(447,558,o),
(386,507,o),
(378,385,c),
(399,262,l),
(399,338,ls),
(399,429,o),
(417,476,o),
(448,503,cs),
(469,522,o),
(496,532,o),
(537,532,cs),
(663,532,o),
(709,426,o),
(728,314,cs),
(729,308,o),
(728,309,o),
(727,306,c),
(729,295,o),
(730,258,o),
(730,236,cs),
(730,66,o),
(691,14,o),
(629,14,cs),
(555,14,o),
(529,80,o),
(529,188,cs),
(529,297,o),
(561,354,o),
(632,354,cs),
(689,354,o),
(718,316,o),
(744,271,c),
(749,295,l),
(728,339,o),
(691,380,o),
(630,380,cs),
(554,380,o),
(502,321,o),
(502,189,cs),
(502,64,o),
(540,-12,o),
(628,-12,cs)
);
}
);
width = 798;
},
{
anchors = (
{
name = bottom;
pos = (684,0);
},
{
name = top;
pos = (684,569);
}
);
layerId = "43C3EF94-D8C4-4226-80FB-D661263DD944";
shapes = (
{
closed = 1;
nodes = (
(202,581,o),
(33,460,o),
(33,244,cs),
(33,63,o),
(139,-12,o),
(278,-12,cs),
(432,-12,o),
(506,61,o),
(506,180,cs),
(506,285,o),
(444,359,o),
(316,359,cs),
(230,359,o),
(171,321,o),
(118,276,c),
(139,156,l),
(193,215,o),
(222,240,o),
(267,240,cs),
(303,240,o),
(325,216,o),
(325,173,cs),
(325,127,o),
(306,108,o),
(273,108,cs),
(235,108,o),
(202,135,o),
(202,240,cs),
(202,244,ls),
(202,380,o),
(301,453,o),
(418,453,cs),
(469,453,o),
(505,443,o),
(529,424,cs),
(562,397,o),
(574,359,o),
(574,273,cs),
(574,0,l),
(761,0,l),
(761,317,l),
(737,404,l),
(704,480,l),
(629,553,o),
(547,581,o),
(422,581,cs)
);
},
{
closed = 1;
nodes = (
(1246,-12,o),
(1338,77,o),
(1338,237,cs),
(1338,418,o),
(1204,581,o),
(940,581,cs),
(779,581,o),
(691,517,o),
(628,450,c),
(761,154,l),
(761,238,ls),
(761,307,o),
(769,378,o),
(819,416,cs),
(845,436,o),
(880,451,o),
(944,451,cs),
(1062,451,o),
(1140,396,o),
(1151,329,c),
(1154,324,o),
(1148,310,o),
(1150,305,c),
(1153,285,o),
(1155,262,o),
(1155,242,cs),
(1155,153,o),
(1129,116,o),
(1079,116,cs),
(1042,116,o),
(1016,143,o),
(1016,205,cs),
(1016,265,o),
(1042,295,o),
(1090,295,cs),
(1143,295,o),
(1176,251,o),
(1186,203,c),
(1259,205,l),
(1251,305,o),
(1169,410,o),
(1044,410,cs),
(912,410,o),
(836,331,o),
(836,205,cs),
(836,89,o),
(905,-12,o),
(1076,-12,cs)
);
}
);
width = 1369;
},
{
anchors = (
{
name = bottom;
pos = (531,0);
},
{
name = top;
pos = (531,569);
}
);
layerId = "7D50CFCE-8270-4149-A6BB-939E1A586542";
shapes = (
{
closed = 1;
nodes = (
(158,581,o),
(32,467,o),
(32,246,cs),
(32,56,o),
(111,-12,o),
(220,-12,cs),
(338,-12,o),
(399,58,o),
(399,184,cs),
(399,284,o),
(353,356,o),
(256,356,cs),
(193,356,o),
(141,323,o),
(100,278,c),
(126,164,l),
(166,223,o),
(185,243,o),
(212,243,cs),
(235,243,o),
(248,226,o),
(248,173,cs),
(248,121,o),
(235,106,o),
(216,106,cs),
(193,106,o),
(172,121,o),
(172,234,cs),
(172,240,ls),
(172,393,o),
(250,458,o),
(333,458,cs),
(367,458,o),
(390,451,o),
(406,436,cs),
(431,413,o),
(439,378,o),
(439,300,cs),
(439,0,l),
(597,0,l),
(597,218,l),
(569,374,l),
(543,482,l),
(488,555,o),
(427,581,o),
(334,581,cs)
);
},
{
closed = 1;
nodes = (
(965,-12,o),
(1032,64,o),
(1032,237,cs),
(1032,423,o),
(935,581,o),
(719,581,cs),
(602,581,o),
(532,540,o),
(468,440,c),
(597,161,l),
(597,293,ls),
(597,375,o),
(608,412,o),
(640,436,cs),
(660,451,o),
(685,457,o),
(721,457,cs),
(805,457,o),
(862,395,o),
(871,332,cs),
(872,327,o),
(873,310,o),
(873,305,cs),
(875,285,o),
(877,262,o),
(877,231,cs),
(877,130,o),
(863,108,o),
(834,108,cs),
(813,108,o),
(797,130,o),
(797,201,cs),
(797,275,o),
(813,298,o),
(841,298,cs),
(874,298,o),
(892,265,o),
(900,216,c),
(961,222,l),
(945,311,o),
(892,407,o),
(803,407,cs),
(702,407,o),
(644,338,o),
(644,203,cs),
(644,82,o),
(696,-12,o),
(830,-12,cs)
);
}
);
width = 1062;
}
);
script = malayalam;
subCategory = Other;
unicode = 3340;
},
{
category = Letter;
glyphname = emlym;
lastChange = "2023-03-20 12:00:12 +0000";
layers = (
{
anchors = (
{
name = bottom;
pos = (578,0);
},
{
name = top;
pos = (578,546);
}
);
layerId = "4D83A9DC-8FB7-446F-9A35-7DCC3E64AC98";
shapes = (
{
closed = 1;
nodes = (
(104,327,o),
(38,250,o),
(38,159,cs),
(38,80,o),
(69,39,o),
(123,-8,c),
(139,13,l),
(90,52,o),
(65,92,o),
(65,159,cs),
(65,234,o),
(115,301,o),
(201,301,cs),
(284,301,o),
(338,245,o),
(338,157,cs),
(338,105,o),
(321,64,o),
(279,21,c),
(291,0,l),
(804,0,l),
(804,26,l),
(304,26,l),
(298,10,l),
(340,47,o),
(365,95,o),
(365,158,cs),
(365,257,o),
(299,327,o),
(201,327,cs)
);
},
{
closed = 1;
nodes = (
(647,558,o),
(535,400,o),
(535,137,cs),
(535,-140,o),
(610,-228,o),
(714,-228,cs),
(738,-228,o),
(759,-222,o),
(775,-211,cs),
(811,-187,o),
(824,-146,o),
(824,-76,cs),
(824,415,l),
(798,415,l),
(798,-75,ls),
(798,-133,o),
(789,-171,o),
(761,-190,cs),
(749,-198,o),
(734,-202,o),
(714,-202,cs),
(636,-202,o),
(586,-140,o),
(568,7,cs),
(568,11,o),
(567,15,o),
(567,19,cs),
(564,53,o),
(562,92,o),
(562,135,cs),
(562,384,o),
(661,532,o),
(825,532,cs),
(1010,532,o),
(1081,373,o),
(1081,176,cs),
(1081,29,o),
(1030,-110,o),
(933,-209,c),
(951,-228,l),
(1055,-124,o),
(1108,19,o),
(1108,178,cs),
(1108,387,o),
(1026,558,o),
(827,558,cs)
);
}
);
width = 1157;
},
{
anchors = (
{
name = bottom;
pos = (480,0);
},
{
name = top;
pos = (636,554);
}
);
layerId = "EAD1E2BE-4A7F-4E9C-B677-063429CCD35D";
shapes = (
{
closed = 1;
nodes = (
(110,346,o),
(32,271,o),
(32,166,cs),
(32,90,o),
(72,33,o),
(129,-7,c),
(175,51,l),
(133,80,o),
(116,118,o),
(116,164,cs),
(116,226,o),
(158,276,o),
(229,276,cs),
(304,276,o),
(343,230,o),
(343,158,cs),
(343,109,o),
(326,78,o),
(299,52,c),
(328,0,l),
(864,0,l),
(864,70,l),
(357,70,l),
(382,57,l),
(407,75,o),
(427,119,o),
(427,173,cs),
(427,258,o),
(364,346,o),
(229,346,cs)
);
},
{
closed = 1;
nodes = (
(688,566,o),
(571,398,o),
(571,144,cs),
(571,-107,o),
(665,-228,o),
(796,-228,cs),
(844,-228,o),
(877,-213,o),
(900,-187,cs),
(924,-159,o),
(935,-122,o),
(935,-56,cs),
(935,406,l),
(848,406,l),
(848,-75,ls),
(848,-108,o),
(844,-127,o),
(836,-139,cs),
(828,-151,o),
(814,-159,o),
(793,-159,cs),
(735,-159,o),
(675,-107,o),
(665,32,c),
(664,38,o),
(663,44,o),
(663,51,cs),
(660,77,o),
(659,106,o),
(659,137,cs),
(659,353,o),
(738,494,o),
(900,494,cs),
(1083,494,o),
(1141,339,o),
(1141,178,cs),
(1141,43,o),
(1103,-82,o),
(1014,-178,c),
(1077,-228,l),
(1185,-116,o),
(1229,43,o),
(1229,176,cs),
(1229,431,o),
(1107,566,o),
(903,566,cs)
);
}
);
width = 1273;
},
{
anchors = (
{
name = bottom;
pos = (697,0);
},
{
name = top;
pos = (697,562);
}
);
layerId = "1D67CB39-8CE8-4679-A081-F58F86CEB03B";
shapes = (
{
closed = 1;
nodes = (
(125,362,o),
(29,286,o),
(29,170,cs),
(29,97,o),
(57,42,o),
(106,-12,c),
(220,44,l),
(198,75,o),
(175,107,o),
(175,162,cs),
(175,216,o),
(204,258,o),
(266,258,cs),
(326,258,o),
(355,215,o),
(355,161,cs),
(355,114,o),
(337,80,o),
(321,58,c),
(373,0,l),
(940,0,l),
(948,105,l),
(458,105,l),
(470,69,l),
(482,94,o),
(498,129,o),
(498,171,cs),
(498,264,o),
(426,362,o),
(265,362,cs)
);
},
{
closed = 1;
nodes = (
(731,574,o),
(609,385,o),
(609,143,cs),
(609,-108,o),
(705,-228,o),
(863,-228,cs),
(927,-228,o),
(972,-212,o),
(1001,-185,cs),
(1033,-155,o),
(1048,-116,o),
(1048,-46,cs),
(1048,389,l),
(901,389,l),
(901,-69,ls),
(901,-92,o),
(898,-105,o),
(892,-113,cs),
(885,-122,o),
(875,-127,o),
(859,-127,cs),
(809,-127,o),
(770,-90,o),
(761,23,c),
(761,32,o),
(761,37,o),
(761,45,c),
(758,73,o),
(757,106,o),
(757,143,cs),
(757,336,o),
(830,470,o),
(987,470,cs),
(1146,470,o),
(1200,328,o),
(1200,168,cs),
(1200,42,o),
(1170,-62,o),
(1096,-161,c),
(1206,-228,l),
(1297,-116,o),
(1353,5,o),
(1353,167,cs),
(1353,421,o),
(1231,574,o),
(989,574,cs)
);
}
);
width = 1395;
},
{
anchors = (
{
name = bottom;
pos = (480,0);
},
{
name = top;
pos = (480,554);
}
);
layerId = "C7FB44D8-0AA6-40A2-9E07-7E0254BA0D6B";
shapes = (
{
closed = 1;
nodes = (
(92,346,o),
(31,280,o),
(31,174,cs),
(31,98,o),
(63,39,o),
(101,-7,c),
(157,37,l),
(127,79,o),
(108,117,o),
(108,174,cs),
(108,238,o),
(137,280,o),
(184,280,cs),
(232,280,o),
(258,238,o),
(258,168,cs),
(258,116,o),
(241,81,o),
(222,52,c),
(253,0,l),
(649,0,l),
(651,66,l),
(284,66,l),
(298,57,l),
(313,75,o),
(335,119,o),
(335,178,cs),
(335,265,o),
(287,346,o),
(183,346,cs)
);
},
{
closed = 1;
nodes = (
(515,566,o),
(428,415,o),
(428,150,cs),
(428,-126,o),
(493,-228,o),
(600,-228,cs),
(645,-228,o),
(671,-211,o),
(687,-187,cs),
(706,-159,o),
(709,-118,o),
(709,-60,cs),
(709,406,l),
(630,406,l),
(630,-91,ls),
(630,-129,o),
(627,-144,o),
(617,-154,cs),
(612,-159,o),
(604,-162,o),
(594,-162,cs),
(555,-162,o),
(518,-114,o),
(511,30,cs),
(511,36,o),
(512,44,o),
(511,51,cs),
(509,77,o),
(508,106,o),
(508,148,cs),
(508,360,o),
(563,498,o),
(677,498,cs),
(801,498,o),
(842,352,o),
(842,184,cs),
(842,30,o),
(805,-92,o),
(745,-187,c),
(810,-228,l),
(885,-115,o),
(923,43,o),
(923,185,cs),
(923,441,o),
(836,566,o),
(679,566,cs)
);
}
);
width = 961;
},
{
anchors = (
{
name = bottom;
pos = (434,0);
},
{
name = top;
pos = (434,546);
}
);
layerId = UUID0;
shapes = (
{
closed = 1;
nodes = (
(85,327,o),
(34,267,o),
(34,173,cs),
(34,95,o),
(66,40,o),
(103,-8,c),
(123,9,l),
(91,49,o),
(61,101,o),
(61,172,cs),
(61,251,o),
(96,301,o),
(159,301,cs),
(217,301,o),
(257,261,o),
(257,170,cs),
(257,114,o),
(236,60,o),
(203,19,c),
(217,0,l),
(607,0,l),
(605,26,l),
(228,26,l),
(224,10,l),
(260,50,o),
(284,108,o),
(284,171,cs),
(284,273,o),
(232,327,o),
(159,327,cs)
);
},
{
closed = 1;
nodes = (
(489,558,o),
(400,431,o),
(400,145,cs),
(400,-136,o),
(451,-228,o),
(535,-228,cs),
(556,-228,o),
(574,-221,o),
(586,-211,cs),
(611,-191,o),
(620,-160,o),
(620,-102,cs),
(620,415,l),
(594,415,l),
(594,-94,ls),
(594,-148,o),
(588,-175,o),
(571,-190,cs),
(562,-198,o),
(550,-202,o),
(535,-202,cs),
(478,-202,o),
(443,-144,o),
(431,10,cs),
(431,13,o),
(430,18,o),
(430,21,cs),
(427,57,o),
(426,99,o),
(426,146,cs),
(426,405,o),
(502,532,o),
(617,532,cs),
(749,532,o),
(797,385,o),
(797,192,cs),
(797,11,o),
(750,-114,o),
(682,-214,c),
(704,-228,l),
(775,-124,o),
(824,8,o),
(824,193,cs),
(824,410,o),
(762,558,o),
(617,558,cs)
);
}
);
width = 868;
},
{
anchors = (
{
name = bottom;
pos = (727,0);
},
{
name = top;
pos = (727,569);
}
);
layerId = "43C3EF94-D8C4-4226-80FB-D661263DD944";
shapes = (
{
closed = 1;
nodes = (
(133,372,o),
(27,296,o),
(27,170,cs),
(27,97,o),
(60,37,o),
(108,-13,c),
(252,45,l),
(228,83,o),
(212,119,o),
(212,160,cs),
(212,210,o),
(236,245,o),
(287,245,cs),
(339,245,o),
(360,205,o),
(360,163,cs),
(360,123,o),
(343,92,o),
(329,70,c),
(392,0,l),
(974,0,l),
(972,128,l),
(521,128,l),
(518,76,l),
(531,105,o),
(538,143,o),
(538,173,cs),
(538,268,o),
(464,372,o),
(285,372,cs)
);
},
{
closed = 1;
nodes = (
(746,581,o),
(619,389,o),
(619,148,cs),
(619,-108,o),
(716,-228,o),
(891,-228,cs),
(965,-228,o),
(1009,-215,o),
(1045,-185,cs),
(1080,-156,o),
(1105,-112,o),
(1105,-12,cs),
(1105,378,l),
(918,378,l),
(918,-56,ls),
(918,-81,o),
(915,-89,o),
(908,-95,cs),
(903,-100,o),
(895,-102,o),
(886,-102,cs),
(833,-102,o),
(810,-31,o),
(807,53,cs),
(807,60,o),
(807,68,o),
(807,75,cs),
(805,99,o),
(805,123,o),
(805,140,cs),
(805,325,o),
(873,453,o),
(1024,453,cs),
(1168,453,o),
(1225,332,o),
(1225,172,cs),
(1225,46,o),
(1191,-51,o),
(1125,-154,c),
(1278,-229,l),
(1359,-117,o),
(1415,1,o),
(1415,171,cs),
(1415,415,o),
(1293,581,o),
(1023,581,cs)
);
}
);
width = 1455;
},
{
anchors = (
{
name = bottom;
pos = (565,0);
},
{
name = top;
pos = (565,569);
}
);
layerId = "7D50CFCE-8270-4149-A6BB-939E1A586542";
shapes = (
{
closed = 1;
nodes = (
(102,372,o),
(26,296,o),
(26,181,cs),
(26,100,o),
(56,41,o),
(96,-13,c),
(222,42,l),
(200,85,o),
(184,120,o),
(184,177,cs),
(184,218,o),
(197,250,o),
(229,250,cs),
(262,250,o),
(272,216,o),
(272,175,cs),
(272,129,o),
(261,95,o),
(249,73,c),
(296,0,l),
(746,0,l),
(749,122,l),
(385,122,l),
(391,78,l),
(409,107,o),
(423,150,o),
(423,187,cs),
(423,276,o),
(372,372,o),
(227,372,cs)
);
},
{
closed = 1;
nodes = (
(579,581,o),
(478,405,o),
(478,147,cs),
(478,-139,o),
(555,-228,o),
(698,-228,cs),
(745,-228,o),
(783,-215,o),
(810,-190,cs),
(844,-158,o),
(862,-115,o),
(862,-12,cs),
(862,374,l),
(705,374,l),
(705,-73,ls),
(705,-90,o),
(704,-97,o),
(700,-102,cs),
(697,-106,o),
(692,-108,o),
(686,-108,cs),
(647,-108,o),
(634,-58,o),
(632,47,cs),
(632,58,o),
(635,69,o),
(635,81,cs),
(635,102,o),
(635,126,o),
(635,151,cs),
(635,352,o),
(682,457,o),
(793,457,cs),
(891,457,o),
(936,359,o),
(936,187,cs),
(936,33,o),
(903,-68,o),
(854,-170,c),
(990,-229,l),
(1047,-119,o),
(1097,7,o),
(1097,190,cs),
(1097,431,o),
(1004,581,o),
(791,581,cs)
);
}
);
width = 1131;
}
);
script = malayalam;
subCategory = Other;
unicode = 3342;
},
{
category = Letter;
glyphname = eemlym;
lastChange = "2023-03-20 12:00:12 +0000";
layers = (
{
anchors = (
{
name = bottom;
pos = (577,0);
},
{
name = top;
pos = (577,546);
}
);
layerId = "4D83A9DC-8FB7-446F-9A35-7DCC3E64AC98";
shapes = (
{
closed = 1;
nodes = (
(104,327,o),
(38,250,o),
(38,159,cs),
(38,80,o),
(69,39,o),
(123,-8,c),
(139,13,l),
(90,52,o),
(65,92,o),
(65,159,cs),
(65,234,o),
(115,301,o),
(201,301,cs),
(284,301,o),
(338,245,o),
(338,157,cs),
(338,105,o),
(321,64,o),
(279,21,c),
(291,0,l),
(804,0,l),
(804,26,l),
(304,26,l),
(298,10,l),
(340,47,o),
(365,95,o),
(365,158,cs),
(365,257,o),
(299,327,o),
(201,327,cs)
);
},
{
closed = 1;
nodes = (
(648,558,o),
(535,377,o),
(535,137,cs),
(535,-140,o),
(610,-228,o),
(714,-228,cs),
(738,-228,o),
(759,-222,o),
(775,-211,cs),
(811,-187,o),
(824,-146,o),
(824,-76,cs),
(824,415,l),
(798,415,l),
(798,-75,ls),
(798,-133,o),
(790,-172,o),
(761,-190,cs),
(749,-198,o),
(734,-202,o),
(714,-202,cs),
(636,-202,o),
(586,-140,o),
(568,7,c),
(568,11,o),
(567,15,o),
(567,19,c),
(564,53,o),
(562,92,o),
(562,135,cs),
(562,366,o),
(663,532,o),
(872,532,cs),
(1025,532,o),
(1084,440,o),
(1084,336,cs),
(1084,228,o),
(1023,171,o),
(917,148,c),
(917,122,l),
(1031,118,o),
(1094,50,o),
(1094,-48,cs),
(1094,-157,o),
(1037,-202,o),
(953,-202,cs),
(927,-202,o),
(900,-200,o),
(883,-195,c),
(877,-220,l),
(900,-226,o),
(925,-228,o),
(954,-228,cs),
(1055,-228,o),
(1121,-166,o),
(1121,-47,cs),
(1121,70,o),
(1044,136,o),
(930,140,c),
(929,132,l),
(1059,155,o),
(1111,230,o),
(1111,336,cs),
(1111,460,o),
(1033,558,o),
(872,558,cs)
);
}
);
width = 1154;
},
{
anchors = (
{
name = bottom;
pos = (485,0);
},
{
name = top;
pos = (636,554);
}
);
layerId = "EAD1E2BE-4A7F-4E9C-B677-063429CCD35D";
shapes = (
{
closed = 1;
nodes = (
(110,346,o),
(32,271,o),
(32,166,cs),
(32,90,o),
(72,33,o),
(129,-7,c),
(175,51,l),
(133,81,o),
(116,119,o),
(116,164,cs),
(116,225,o),
(158,276,o),
(229,276,cs),
(304,276,o),
(343,230,o),
(343,158,cs),
(343,109,o),
(326,78,o),
(299,52,c),
(328,0,l),
(864,0,l),
(864,70,l),
(357,70,l),
(382,57,l),
(407,75,o),
(427,119,o),
(427,173,cs),
(427,258,o),
(364,346,o),
(229,346,cs)
);
},
{
closed = 1;
nodes = (
(693,566,o),
(571,391,o),
(571,144,cs),
(571,-107,o),
(665,-228,o),
(796,-228,cs),
(844,-228,o),
(877,-213,o),
(900,-187,cs),
(924,-159,o),
(935,-122,o),
(935,-56,cs),
(935,406,l),
(848,406,l),
(848,-75,ls),
(848,-108,o),
(844,-127,o),
(836,-139,cs),
(828,-151,o),
(814,-159,o),
(793,-159,cs),
(735,-159,o),
(675,-107,o),
(665,32,c),
(664,39,o),
(663,44,o),
(663,51,cs),
(660,76,o),
(659,107,o),
(659,137,cs),
(659,347,o),
(739,494,o),
(944,494,cs),
(1090,494,o),
(1141,413,o),
(1141,332,cs),
(1141,237,o),
(1091,192,o),
(1002,173,c),
(1002,104,l),
(1103,104,o),
(1151,45,o),
(1151,-34,cs),
(1151,-113,o),
(1111,-157,o),
(1037,-157,cs),
(1024,-157,o),
(999,-155,o),
(982,-151,c),
(965,-220,l),
(984,-225,o),
(1022,-228,o),
(1042,-228,cs),
(1159,-228,o),
(1239,-166,o),
(1239,-36,cs),
(1239,61,o),
(1187,118,o),
(1107,146,c),
(1104,141,l),
(1175,175,o),
(1229,238,o),
(1229,332,cs),
(1229,451,o),
(1151,566,o),
(945,566,cs)
);
}
);
width = 1272;
},
{
anchors = (
{
name = bottom;
pos = (705,0);
},
{
name = top;
pos = (705,562);
}
);
layerId = "1D67CB39-8CE8-4679-A081-F58F86CEB03B";
shapes = (
{
closed = 1;
nodes = (
(125,362,o),
(29,286,o),
(29,170,cs),
(29,97,o),
(57,42,o),
(106,-12,c),
(220,44,l),
(198,75,o),
(175,107,o),
(175,162,cs),
(175,216,o),
(204,258,o),
(266,258,cs),
(326,258,o),
(355,215,o),
(355,161,cs),
(355,114,o),
(337,80,o),
(321,58,c),
(373,0,l),
(940,0,l),
(941,105,l),
(448,105,l),
(470,69,l),
(482,94,o),
(498,129,o),
(498,171,cs),
(498,264,o),
(426,362,o),
(265,362,cs)
);
},
{
closed = 1;
nodes = (
(754,574,o),
(609,400,o),
(609,146,cs),
(609,-108,o),
(705,-228,o),
(863,-228,cs),
(927,-228,o),
(972,-212,o),
(1001,-185,cs),
(1033,-155,o),
(1048,-116,o),
(1048,-46,cs),
(1048,389,l),
(901,389,l),
(901,-69,ls),
(901,-92,o),
(898,-105,o),
(892,-113,cs),
(885,-122,o),
(875,-127,o),
(859,-127,cs),
(809,-127,o),
(770,-90,o),
(761,23,c),
(761,31,o),
(761,38,o),
(761,45,c),
(758,73,o),
(757,106,o),
(757,143,cs),
(757,332,o),
(834,467,o),
(1031,467,cs),
(1171,467,o),
(1221,399,o),
(1221,328,cs),
(1221,246,o),
(1180,208,o),
(1107,190,c),
(1107,87,l),
(1191,87,o),
(1231,40,o),
(1231,-23,cs),
(1231,-86,o),
(1205,-123,o),
(1134,-123,cs),
(1124,-123,o),
(1102,-121,o),
(1087,-116,c),
(1071,-220,l),
(1092,-225,o),
(1135,-228,o),
(1163,-228,cs),
(1290,-228,o),
(1380,-166,o),
(1380,-28,cs),
(1380,61,o),
(1338,114,o),
(1257,151,c),
(1258,141,l),
(1317,177,o),
(1370,237,o),
(1370,335,cs),
(1370,457,o),
(1280,574,o),
(1036,574,cs)
);
}
);
width = 1410;
},
{
anchors = (
{
name = bottom;
pos = (485,0);
},
{
name = top;
pos = (485,554);
}
);
layerId = "C7FB44D8-0AA6-40A2-9E07-7E0254BA0D6B";
shapes = (
{
closed = 1;
nodes = (
(92,346,o),
(31,280,o),
(31,174,cs),
(31,98,o),
(63,39,o),
(101,-7,c),
(157,37,l),
(127,79,o),
(108,117,o),
(108,174,cs),
(108,238,o),
(137,280,o),
(184,280,cs),
(232,280,o),
(258,238,o),
(258,168,cs),
(258,116,o),
(241,81,o),
(222,52,c),
(253,0,l),
(649,0,l),
(651,66,l),
(284,66,l),
(298,57,l),
(313,75,o),
(335,119,o),
(335,178,cs),
(335,265,o),
(287,346,o),
(183,346,cs)
);
},
{
closed = 1;
nodes = (
(529,566,o),
(428,415,o),
(428,150,cs),
(428,-126,o),
(495,-228,o),
(600,-228,cs),
(645,-228,o),
(671,-211,o),
(687,-187,cs),
(706,-159,o),
(709,-118,o),
(709,-60,cs),
(709,406,l),
(630,406,l),
(630,-91,ls),
(630,-129,o),
(627,-144,o),
(617,-154,cs),
(612,-159,o),
(605,-162,o),
(594,-162,cs),
(555,-162,o),
(518,-114,o),
(511,30,cs),
(511,37,o),
(511,44,o),
(511,51,cs),
(509,77,o),
(508,107,o),
(508,148,cs),
(508,346,o),
(564,498,o),
(710,498,cs),
(808,498,o),
(853,429,o),
(853,335,cs),
(853,236,o),
(810,188,o),
(755,172,c),
(755,105,l),
(825,103,o),
(860,48,o),
(860,-33,cs),
(860,-127,o),
(830,-161,o),
(778,-161,cs),
(764,-161,o),
(754,-160,o),
(741,-156,c),
(726,-221,l),
(741,-225,o),
(763,-228,o),
(788,-228,cs),
(876,-228,o),
(941,-175,o),
(941,-32,cs),
(941,61,o),
(894,122,o),
(830,147,c),
(828,138,l),
(884,173,o),
(934,227,o),
(934,339,cs),
(934,446,o),
(878,566,o),
(712,566,cs)
);
}
);
width = 971;
},
{
anchors = (
{
name = bottom;
pos = (433,0);
},
{
name = top;
pos = (433,546);
}
);
layerId = UUID0;
shapes = (
{
closed = 1;
nodes = (
(85,327,o),
(34,267,o),
(34,173,cs),
(34,95,o),
(66,40,o),
(103,-8,c),
(123,9,l),
(91,49,o),
(61,101,o),
(61,172,cs),
(61,251,o),
(96,301,o),
(159,301,cs),
(217,301,o),
(257,261,o),
(257,170,cs),
(257,114,o),
(236,60,o),
(203,19,c),
(217,0,l),
(607,0,l),
(605,26,l),
(228,26,l),
(224,10,l),
(260,50,o),
(284,108,o),
(284,171,cs),
(284,273,o),
(232,327,o),
(159,327,cs)
);
},
{
closed = 1;
nodes = (
(495,558,o),
(400,431,o),
(400,145,cs),
(400,-136,o),
(451,-228,o),
(535,-228,cs),
(556,-228,o),
(574,-221,o),
(586,-211,cs),
(611,-191,o),
(620,-160,o),
(620,-102,cs),
(620,415,l),
(594,415,l),
(594,-94,ls),
(594,-148,o),
(588,-175,o),
(571,-190,cs),
(562,-198,o),
(550,-202,o),
(535,-202,cs),
(478,-202,o),
(443,-144,o),
(431,10,cs),
(431,13,o),
(430,18,o),
(430,21,cs),
(427,57,o),
(426,99,o),
(426,146,cs),
(426,405,o),
(504,532,o),
(643,532,cs),
(748,532,o),
(799,448,o),
(799,342,cs),
(799,222,o),
(744,173,o),
(676,148,c),
(676,122,l),
(757,115,o),
(806,56,o),
(806,-44,cs),
(806,-170,o),
(763,-202,o),
(702,-202,cs),
(684,-202,o),
(666,-200,o),
(652,-196,c),
(646,-221,l),
(662,-226,o),
(681,-228,o),
(702,-228,cs),
(777,-228,o),
(833,-184,o),
(833,-44,cs),
(833,70,o),
(772,131,o),
(691,144,c),
(693,132,l),
(779,161,o),
(826,227,o),
(826,342,cs),
(826,461,o),
(764,558,o),
(643,558,cs)
);
}
);
width = 867;
},
{
anchors = (
{
name = bottom;
pos = (738,0);
},
{
name = top;
pos = (738,569);
}
);
layerId = "43C3EF94-D8C4-4226-80FB-D661263DD944";
shapes = (
{
closed = 1;
nodes = (
(135,372,o),
(29,296,o),
(29,170,cs),
(29,97,o),
(62,37,o),
(110,-13,c),
(254,45,l),
(230,83,o),
(214,119,o),
(214,160,cs),
(214,210,o),
(238,245,o),
(289,245,cs),
(341,245,o),
(362,205,o),
(362,163,cs),
(362,123,o),
(345,92,o),
(331,70,c),
(394,0,l),
(976,0,l),
(974,128,l),
(523,128,l),
(520,76,l),
(533,105,o),
(540,143,o),
(540,173,cs),
(540,268,o),
(466,372,o),
(287,372,cs)
);
},
{
closed = 1;
nodes = (
(772,581,o),
(621,399,o),
(621,148,cs),
(621,-108,o),
(718,-228,o),
(893,-228,cs),
(967,-228,o),
(1011,-215,o),
(1047,-185,cs),
(1082,-156,o),
(1107,-112,o),
(1107,-12,cs),
(1107,378,l),
(920,378,l),
(920,-56,ls),
(920,-81,o),
(917,-89,o),
(910,-95,cs),
(905,-100,o),
(898,-102,o),
(888,-102,cs),
(835,-102,o),
(812,-31,o),
(809,53,cs),
(809,60,o),
(809,68,o),
(809,75,cs),
(807,99,o),
(807,123,o),
(807,140,cs),
(807,315,o),
(880,453,o),
(1070,453,cs),
(1192,453,o),
(1248,399,o),
(1248,321,cs),
(1248,249,o),
(1208,219,o),
(1150,202,c),
(1150,76,l),
(1220,76,o),
(1258,37,o),
(1258,-17,cs),
(1258,-69,o),
(1235,-100,o),
(1175,-100,cs),
(1164,-100,o),
(1147,-99,o),
(1133,-95,c),
(1115,-220,l),
(1137,-225,o),
(1180,-228,o),
(1205,-228,cs),
(1352,-228,o),
(1446,-169,o),
(1446,-23,cs),
(1446,64,o),
(1404,122,o),
(1329,154,c),
(1326,139,l),
(1390,182,o),
(1436,236,o),
(1436,337,cs),
(1436,462,o),
(1341,581,o),
(1075,581,cs)
);
}
);
width = 1476;
},
{
anchors = (
{
name = bottom;
pos = (571,0);
},
{
name = top;
pos = (571,569);
}
);
layerId = "7D50CFCE-8270-4149-A6BB-939E1A586542";
shapes = (
{
closed = 1;
nodes = (
(102,372,o),
(26,296,o),
(26,181,cs),
(26,100,o),
(56,41,o),
(96,-13,c),
(222,42,l),
(200,85,o),
(184,120,o),
(184,177,cs),
(184,218,o),
(197,250,o),
(229,250,cs),
(262,250,o),
(272,216,o),
(272,175,cs),
(272,129,o),
(261,95,o),
(249,73,c),
(296,0,l),
(746,0,l),
(749,122,l),
(385,122,l),
(391,78,l),
(409,107,o),
(423,150,o),
(423,187,cs),
(423,276,o),
(372,372,o),
(227,372,cs)
);
},
{
closed = 1;
nodes = (
(589,581,o),
(478,393,o),
(478,147,cs),
(478,-139,o),
(555,-228,o),
(698,-228,cs),
(745,-228,o),
(783,-215,o),
(810,-190,cs),
(844,-158,o),
(862,-115,o),
(862,-12,cs),
(862,374,l),
(705,374,l),
(705,-73,ls),
(705,-90,o),
(704,-97,o),
(700,-102,cs),
(697,-106,o),
(692,-108,o),
(686,-108,cs),
(647,-108,o),
(634,-58,o),
(632,47,cs),
(632,58,o),
(635,69,o),
(635,81,cs),
(635,102,o),
(635,126,o),
(635,151,cs),
(635,341,o),
(699,457,o),
(826,457,cs),
(904,457,o),
(953,413,o),
(953,323,cs),
(953,258,o),
(926,224,o),
(891,204,c),
(891,84,l),
(935,78,o),
(961,39,o),
(961,-16,cs),
(961,-72,o),
(948,-104,o),
(903,-104,cs),
(894,-104,o),
(883,-103,o),
(876,-101,c),
(852,-219,l),
(875,-225,o),
(902,-228,o),
(934,-228,cs),
(1050,-228,o),
(1119,-169,o),
(1119,-26,cs),
(1119,78,o),
(1071,134,o),
(1012,168,c),
(1012,144,l),
(1057,174,o),
(1112,232,o),
(1112,341,cs),
(1112,469,o),
(1031,581,o),
(833,581,cs)
);
}
);
width = 1143;
}
);
script = malayalam;
subCategory = Other;
unicode = 3343;
},
{
category = Letter;
glyphname = omlym;
lastChange = "2023-03-20 12:00:13 +0000";
layers = (
{
anchors = (
{
name = bottom;
pos = (345,0);
},
{
name = top;
pos = (345,546);
}
);
layerId = "4D83A9DC-8FB7-446F-9A35-7DCC3E64AC98";
shapes = (
{
closed = 1;
nodes = (
(171,558,o),
(46,404,o),
(46,226,cs),
(46,53,o),
(122,-12,o),
(216,-12,cs),
(293,-12,o),
(356,39,o),
(356,149,cs),
(356,250,o),
(288,302,o),
(209,302,cs),
(156,302,o),
(97,280,o),
(51,229,c),
(56,203,l),
(87,238,o),
(145,276,o),
(208,276,cs),
(291,276,o),
(329,219,o),
(329,149,cs),
(329,49,o),
(277,14,o),
(216,14,cs),
(128,14,o),
(72,79,o),
(72,224,cs),
(72,231,ls),
(72,389,o),
(184,532,o),
(416,532,cs),
(552,532,o),
(611,476,o),
(611,397,cs),
(611,367,o),
(602,342,o),
(585,323,cs),
(561,297,o),
(525,283,o),
(454,283,cs),
(435,283,l),
(435,257,l),
(451,257,ls),
(498,257,o),
(539,248,o),
(571,227,cs),
(601,207,o),
(622,177,o),
(622,130,cs),
(622,54,o),
(586,14,o),
(498,14,cs),
(468,14,o),
(441,18,o),
(413,26,c),
(407,0,l),
(430,-6,o),
(463,-12,o),
(501,-12,cs),
(598,-12,o),
(649,41,o),
(649,131,cs),
(649,212,o),
(592,268,o),
(479,274,c),
(479,264,l),
(602,267,o),
(638,331,o),
(638,397,cs),
(638,479,o),
(579,558,o),
(414,558,cs)
);
}
);
width = 691;
},
{
anchors = (
{
name = bottom;
pos = (295,0);
},
{
name = top;
pos = (378,554);
}
);
layerId = "EAD1E2BE-4A7F-4E9C-B677-063429CCD35D";
shapes = (
{
closed = 1;
nodes = (
(191,566,o),
(39,430,o),
(39,229,cs),
(39,65,o),
(132,-12,o),
(237,-12,cs),
(341,-12,o),
(408,54,o),
(408,165,cs),
(408,269,o),
(342,328,o),
(245,328,cs),
(198,328,o),
(150,310,o),
(113,283,c),
(109,201,l),
(143,236,o),
(185,258,o),
(231,258,cs),
(286,258,o),
(325,222,o),
(325,157,cs),
(325,94,o),
(290,58,o),
(239,58,cs),
(167,58,o),
(120,116,o),
(120,225,cs),
(120,233,ls),
(120,381,o),
(244,494,o),
(445,494,cs),
(571,494,o),
(620,455,o),
(620,399,cs),
(620,374,o),
(613,356,o),
(597,341,cs),
(574,319,o),
(533,310,o),
(492,310,cs),
(468,310,l),
(468,240,l),
(490,240,ls),
(554,240,o),
(579,228,o),
(601,210,cs),
(622,192,o),
(631,169,o),
(631,144,cs),
(631,83,o),
(595,59,o),
(529,59,cs),
(504,59,o),
(483,63,o),
(459,69,c),
(441,0,l),
(466,-6,o),
(501,-11,o),
(539,-11,cs),
(651,-11,o),
(718,45,o),
(718,140,cs),
(718,206,o),
(677,259,o),
(601,280,c),
(605,274,l),
(677,301,o),
(707,347,o),
(707,404,cs),
(707,498,o),
(639,566,o),
(448,566,cs)
);
}
);
width = 757;
},
{
anchors = (
{
name = bottom;
pos = (418,0);
},
{
name = top;
pos = (418,562);
}
);
layerId = "1D67CB39-8CE8-4679-A081-F58F86CEB03B";
shapes = (
{
closed = 1;
nodes = (
(224,574,o),
(37,453,o),
(37,238,cs),
(37,66,o),
(142,-12,o),
(267,-12,cs),
(395,-12,o),
(469,58,o),
(469,174,cs),
(469,279,o),
(405,347,o),
(289,347,cs),
(205,347,o),
(141,306,o),
(104,267,c),
(116,168,l),
(161,219,o),
(206,247,o),
(255,247,cs),
(304,247,o),
(327,217,o),
(327,167,cs),
(327,115,o),
(304,88,o),
(262,88,cs),
(211,88,o),
(172,124,o),
(172,237,cs),
(172,250,ls),
(172,398,o),
(317,467,o),
(484,467,cs),
(600,467,o),
(645,442,o),
(645,394,cs),
(645,377,o),
(639,364,o),
(629,354,cs),
(609,336,o),
(588,330,o),
(531,330,cs),
(514,330,l),
(514,226,l),
(533,226,ls),
(590,226,o),
(615,218,o),
(632,205,cs),
(649,192,o),
(657,175,o),
(657,156,cs),
(657,111,o),
(634,93,o),
(576,93,cs),
(547,93,o),
(522,98,o),
(503,103,c),
(485,0,l),
(514,-6,o),
(549,-12,o),
(602,-12,cs),
(735,-12,o),
(804,46,o),
(804,144,cs),
(804,209,o),
(769,258,o),
(696,283,c),
(698,278,l),
(767,309,o),
(793,354,o),
(793,409,cs),
(793,504,o),
(716,574,o),
(494,574,cs)
);
}
);
width = 837;
},
{
anchors = (
{
name = bottom;
pos = (295,0);
},
{
name = top;
pos = (295,554);
}
);
layerId = "C7FB44D8-0AA6-40A2-9E07-7E0254BA0D6B";
shapes = (
{
closed = 1;
nodes = (
(153,566,o),
(36,435,o),
(36,225,cs),
(36,55,o),
(104,-12,o),
(186,-12,cs),
(272,-12,o),
(319,42,o),
(319,159,cs),
(319,272,o),
(272,326,o),
(193,326,cs),
(141,326,o),
(94,291,o),
(63,257,c),
(84,204,l),
(115,242,o),
(140,260,o),
(175,260,cs),
(218,260,o),
(241,231,o),
(241,157,cs),
(241,82,o),
(219,55,o),
(185,55,cs),
(140,55,o),
(111,101,o),
(111,214,cs),
(111,236,ls),
(111,396,o),
(212,498,o),
(349,498,cs),
(425,498,o),
(471,463,o),
(471,398,cs),
(471,371,o),
(464,351,o),
(450,337,cs),
(430,317,o),
(404,310,o),
(363,310,cs),
(361,310,l),
(361,244,l),
(363,244,l),
(401,244,o),
(431,234,o),
(450,214,cs),
(467,197,o),
(476,170,o),
(476,140,cs),
(476,86,o),
(452,55,o),
(401,55,cs),
(387,55,o),
(370,57,o),
(354,62,c),
(339,-1,l),
(358,-7,o),
(388,-11,o),
(415,-11,cs),
(503,-11,o),
(557,46,o),
(557,141,cs),
(557,205,o),
(517,264,o),
(456,280,c),
(459,275,l),
(527,301,o),
(552,347,o),
(552,403,cs),
(552,489,o),
(493,566,o),
(353,566,cs)
);
}
);
width = 590;
},
{
anchors = (
{
name = bottom;
pos = (265,0);
},
{
name = top;
pos = (265,546);
}
);
layerId = UUID0;
shapes = (
{
closed = 1;
nodes = (
(137,558,o),
(40,403,o),
(40,215,cs),
(40,39,o),
(92,-12,o),
(164,-12,cs),
(221,-12,o),
(269,29,o),
(269,151,cs),
(269,257,o),
(221,302,o),
(161,302,cs),
(121,302,o),
(86,284,o),
(45,235,c),
(54,212,l),
(85,252,o),
(116,276,o),
(161,276,cs),
(216,276,o),
(242,229,o),
(242,151,cs),
(242,42,o),
(206,14,o),
(164,14,cs),
(102,14,o),
(66,65,o),
(66,214,cs),
(66,225,ls),
(66,384,o),
(151,532,o),
(318,532,cs),
(405,532,o),
(460,486,o),
(460,404,cs),
(460,362,o),
(448,332,o),
(425,312,cs),
(402,292,o),
(369,283,o),
(327,283,cs),
(324,283,l),
(324,257,l),
(327,257,ls),
(376,257,o),
(405,247,o),
(429,227,cs),
(454,206,o),
(468,175,o),
(468,130,cs),
(468,45,o),
(429,17,o),
(367,17,cs),
(350,17,o),
(331,19,o),
(310,25,c),
(304,0,l),
(325,-6,o),
(347,-9,o),
(366,-9,cs),
(450,-9,o),
(495,40,o),
(495,130,cs),
(495,219,o),
(441,267,o),
(367,274,c),
(366,267,l),
(451,277,o),
(487,329,o),
(487,402,cs),
(487,490,o),
(429,558,o),
(318,558,cs)
);
}
);
width = 531;
},
{
anchors = (
{
name = bottom;
pos = (439,0);
},
{
name = top;
pos = (439,569);
}
);
layerId = "43C3EF94-D8C4-4226-80FB-D661263DD944";
shapes = (
{
closed = 1;
nodes = (
(243,581,o),
(33,469,o),
(33,242,cs),
(33,63,o),
(139,-12,o),
(278,-12,cs),
(432,-12,o),
(506,61,o),
(506,180,cs),
(506,285,o),
(444,359,o),
(316,359,cs),
(230,359,o),
(171,321,o),
(118,276,c),
(139,156,l),
(193,215,o),
(222,240,o),
(267,240,cs),
(303,240,o),
(325,216,o),
(325,173,cs),
(325,128,o),
(306,108,o),
(273,108,cs),
(235,108,o),
(202,137,o),
(202,238,cs),
(202,254,ls),
(202,405,o),
(381,453,o),
(500,453,cs),
(596,453,o),
(650,439,o),
(650,393,cs),
(650,378,o),
(645,367,o),
(635,359,cs),
(618,346,o),
(598,343,o),
(550,343,cs),
(543,343,l),
(543,217,l),
(552,217,ls),
(599,217,o),
(620,214,o),
(638,204,c),
(653,195,o),
(661,182,o),
(661,164,cs),
(661,129,o),
(638,116,o),
(591,116,cs),
(574,116,o),
(549,119,o),
(533,123,c),
(508,0,l),
(540,-7,o),
(577,-12,o),
(622,-12,cs),
(769,-12,o),
(847,45,o),
(847,148,cs),
(847,211,o),
(817,262,o),
(747,287,c),
(746,281,l),
(816,314,o),
(836,358,o),
(836,413,cs),
(836,502,o),
(760,581,o),
(515,581,cs)
);
}
);
width = 878;
},
{
anchors = (
{
name = bottom;
pos = (346,0);
},
{
name = top;
pos = (346,569);
}
);
layerId = "7D50CFCE-8270-4149-A6BB-939E1A586542";
shapes = (
{
closed = 1;
nodes = (
(183,581,o),
(30,463,o),
(30,228,cs),
(30,59,o),
(109,-12,o),
(219,-12,cs),
(336,-12,o),
(397,58,o),
(397,184,cs),
(397,284,o),
(351,356,o),
(254,356,cs),
(191,356,o),
(139,323,o),
(98,278,c),
(124,164,l),
(164,223,o),
(183,243,o),
(210,243,cs),
(232,243,o),
(246,226,o),
(246,173,cs),
(246,121,o),
(233,106,o),
(214,106,cs),
(191,106,o),
(170,121,o),
(170,229,cs),
(170,244,ls),
(170,387,o),
(276,458,o),
(398,458,cs),
(458,458,o),
(499,440,o),
(499,396,cs),
(499,378,o),
(493,362,o),
(477,352,cs),
(466,345,o),
(450,341,o),
(420,341,cs),
(419,341,l),
(419,222,l),
(421,222,ls),
(456,222,o),
(473,218,o),
(486,208,cs),
(499,198,o),
(507,183,o),
(507,162,cs),
(507,127,o),
(491,110,o),
(456,110,cs),
(443,110,o),
(431,112,o),
(415,116,c),
(392,0,l),
(417,-7,o),
(453,-12,o),
(480,-12,cs),
(607,-12,o),
(665,45,o),
(665,148,cs),
(665,215,o),
(631,265,o),
(578,287,c),
(572,277,l),
(631,305,o),
(657,342,o),
(657,409,cs),
(657,500,o),
(596,581,o),
(408,581,cs)
);
}
);
width = 693;
}
);
script = malayalam;
subCategory = Other;
unicode = 3346;
},
{
category = Letter;
glyphname = kamlym;
lastChange = "2023-03-20 12:00:13 +0000";
layers = (
{
anchors = (
{
name = bottom;
pos = (487,0);
},
{
name = top;
pos = (487,546);
}
);
layerId = "4D83A9DC-8FB7-446F-9A35-7DCC3E64AC98";
shapes = (
{
closed = 1;
nodes = (
(271,-12,o),
(320,17,o),
(371,53,c),
(354,73,l),
(294,31,o),
(256,14,o),
(195,14,cs),
(126,14,o),
(65,41,o),
(65,140,cs),
(65,185,o),
(83,216,o),
(111,236,cs),
(158,270,o),
(223,276,o),
(313,276,cs),
(667,276,ls),
(751,276,o),
(815,270,o),
(863,236,cs),
(891,216,o),
(909,186,o),
(909,139,cs),
(909,64,o),
(876,14,o),
(782,14,cs),
(751,14,o),
(725,18,o),
(695,26,c),
(688,1,l),
(721,-8,o),
(753,-12,o),
(781,-12,cs),
(885,-12,o),
(936,48,o),
(936,140,cs),
(936,193,o),
(914,230,o),
(880,255,cs),
(831,291,o),
(771,302,o),
(663,302,cs),
(319,302,ls),
(214,302,o),
(147,294,o),
(94,255,cs),
(61,231,o),
(38,194,o),
(38,141,cs),
(38,44,o),
(95,-12,o),
(192,-12,cs)
);
},
{
closed = 1;
nodes = (
(364,558,o),
(290,454,o),
(290,275,cs),
(290,192,o),
(306,109,o),
(349,54,cs),
(380,14,o),
(425,-12,o),
(489,-12,cs),
(608,-12,o),
(689,72,o),
(689,275,cs),
(689,450,o),
(629,558,o),
(491,558,cs)
);
},
{
closed = 1;
nodes = (
(602,532,o),
(663,451,o),
(663,276,cs),
(663,89,o),
(597,14,o),
(487,14,cs),
(382,14,o),
(316,100,o),
(316,274,cs),
(316,436,o),
(376,532,o),
(491,532,cs)
);
}
);
width = 974;
},
{
anchors = (
{
name = bottom;
pos = (397,0);
},
{
name = top;
pos = (519,554);
}
);
layerId = "EAD1E2BE-4A7F-4E9C-B677-063429CCD35D";
shapes = (
{
closed = 1;
nodes = (
(289,-12,o),
(342,9,o),
(402,52,c),
(352,106,l),
(304,70,o),
(261,58,o),
(219,58,cs),
(158,58,o),
(118,88,o),
(118,154,cs),
(118,189,o),
(133,214,o),
(157,229,cs),
(194,253,o),
(236,258,o),
(331,258,cs),
(708,258,ls),
(792,258,o),
(843,253,o),
(880,229,cs),
(904,213,o),
(920,189,o),
(920,151,cs),
(920,89,o),
(887,58,o),
(819,58,cs),
(797,58,o),
(769,62,o),
(750,67,c),
(731,0,l),
(762,-9,o),
(799,-12,o),
(832,-12,cs),
(944,-12,o),
(1006,50,o),
(1006,152,cs),
(1006,214,o),
(980,255,o),
(942,282,cs),
(893,317,o),
(830,328,o),
(716,328,cs),
(333,328,ls),
(216,328,o),
(157,316,o),
(109,288,cs),
(62,261,o),
(32,214,o),
(32,152,cs),
(32,50,o),
(96,-12,o),
(216,-12,cs)
);
},
{
closed = 1;
nodes = (
(377,566,o),
(288,457,o),
(288,279,cs),
(288,184,o),
(311,111,o),
(352,62,cs),
(393,13,o),
(452,-12,o),
(524,-12,cs),
(667,-12,o),
(756,90,o),
(756,279,cs),
(756,444,o),
(683,566,o),
(523,566,cs)
);
},
{
closed = 1;
nodes = (
(619,496,o),
(670,428,o),
(670,278,cs),
(670,127,o),
(618,58,o),
(521,58,cs),
(424,58,o),
(374,130,o),
(374,278,cs),
(374,424,o),
(422,496,o),
(523,496,cs)
);
}
);
width = 1038;
},
{
anchors = (
{
name = bottom;
pos = (575,0);
},
{
name = top;
pos = (575,562);
}
);
layerId = "1D67CB39-8CE8-4679-A081-F58F86CEB03B";
shapes = (
{
closed = 1;
nodes = (
(315,-12,o),
(368,1,o),
(435,45,c),
(373,137,l),
(328,102,o),
(290,92,o),
(256,92,cs),
(197,92,o),
(170,115,o),
(170,164,cs),
(170,191,o),
(184,210,o),
(202,222,cs),
(229,239,o),
(259,242,o),
(322,242,cs),
(818,242,ls),
(884,242,o),
(917,240,o),
(945,222,cs),
(965,210,o),
(979,191,o),
(979,161,cs),
(979,117,o),
(953,93,o),
(906,93,cs),
(886,93,o),
(866,97,o),
(852,101,c),
(827,0,l),
(857,-8,o),
(885,-12,o),
(917,-12,cs),
(1036,-12,o),
(1122,48,o),
(1122,161,cs),
(1122,227,o),
(1094,270,o),
(1053,298,cs),
(998,335,o),
(929,347,o),
(806,347,cs),
(358,347,ls),
(221,347,o),
(166,335,o),
(114,305,cs),
(63,276,o),
(29,227,o),
(29,161,cs),
(29,53,o),
(100,-12,o),
(231,-12,cs)
);
},
{
closed = 1;
nodes = (
(406,574,o),
(306,463,o),
(306,283,cs),
(306,195,o),
(329,119,o),
(376,66,cs),
(421,17,o),
(493,-12,o),
(581,-12,cs),
(752,-12,o),
(852,92,o),
(852,283,cs),
(852,451,o),
(771,574,o),
(580,574,cs)
);
},
{
closed = 1;
nodes = (
(664,469,o),
(708,405,o),
(708,282,cs),
(708,159,o),
(663,93,o),
(579,93,cs),
(493,93,o),
(450,161,o),
(450,282,cs),
(450,403,o),
(492,469,o),
(580,469,cs)
);
}
);
width = 1151;
},
{
anchors = (
{
name = bottom;
pos = (397,0);
},
{
name = top;
pos = (397,554);
}
);
layerId = "C7FB44D8-0AA6-40A2-9E07-7E0254BA0D6B";
shapes = (
{
closed = 1;
nodes = (
(226,-12,o),
(265,-2,o),
(319,42,c),
(281,94,l),
(248,68,o),
(224,56,o),
(186,56,cs),
(136,56,o),
(107,91,o),
(107,151,cs),
(107,190,o),
(121,215,o),
(143,232,cs),
(172,253,o),
(210,260,o),
(284,260,cs),
(507,260,ls),
(598,260,o),
(631,249,o),
(656,228,cs),
(677,210,o),
(687,182,o),
(687,149,cs),
(687,87,o),
(660,57,o),
(612,57,cs),
(597,57,o),
(586,58,o),
(573,62,c),
(558,-4,l),
(581,-10,o),
(597,-12,o),
(621,-12,cs),
(708,-12,o),
(765,52,o),
(765,149,cs),
(765,214,o),
(740,259,o),
(703,286,cs),
(665,314,o),
(615,326,o),
(503,326,cs),
(305,326,ls),
(195,326,o),
(143,315,o),
(102,289,cs),
(59,262,o),
(30,222,o),
(30,152,cs),
(30,50,o),
(85,-12,o),
(177,-12,cs)
);
},
{
closed = 1;
nodes = (
(284,566,o),
(219,475,o),
(219,279,cs),
(219,196,o),
(230,116,o),
(264,61,cs),
(292,17,o),
(332,-12,o),
(397,-12,cs),
(509,-12,o),
(576,77,o),
(576,279,cs),
(576,460,o),
(521,566,o),
(398,566,cs)
);
},
{
closed = 1;
nodes = (
(463,500,o),
(498,436,o),
(498,278,cs),
(498,115,o),
(462,54,o),
(397,54,cs),
(331,54,o),
(297,118,o),
(297,278,cs),
(297,432,o),
(330,500,o),
(398,500,cs)
);
}
);
width = 795;
},
{
anchors = (
{
name = bottom;
pos = (367,0);
},
{
name = top;
pos = (367,546);
}
);
layerId = UUID0;
shapes = (
{
closed = 1;
nodes = (
(215,-12,o),
(247,2,o),
(294,40,c),
(278,61,l),
(235,22,o),
(202,14,o),
(165,14,cs),
(113,14,o),
(61,41,o),
(61,140,cs),
(61,180,o),
(72,209,o),
(100,235,cs),
(132,264,o),
(182,276,o),
(262,276,cs),
(474,276,ls),
(557,276,o),
(596,268,o),
(630,243,cs),
(658,222,o),
(674,188,o),
(674,138,cs),
(674,59,o),
(641,14,o),
(572,14,cs),
(554,14,o),
(536,16,o),
(516,22,c),
(510,-3,l),
(532,-10,o),
(556,-12,o),
(571,-12,cs),
(656,-12,o),
(701,47,o),
(701,138,cs),
(701,194,o),
(682,236,o),
(649,261,cs),
(609,292,o),
(559,302,o),
(478,302,cs),
(260,302,ls),
(176,302,o),
(122,288,o),
(83,254,cs),
(49,225,o),
(34,188,o),
(34,141,cs),
(34,37,o),
(91,-12,o),
(164,-12,cs)
);
},
{
closed = 1;
nodes = (
(269,558,o),
(220,469,o),
(220,274,cs),
(220,172,o),
(233,88,o),
(268,38,cs),
(291,6,o),
(323,-12,o),
(367,-12,cs),
(455,-12,o),
(515,56,o),
(515,276,cs),
(515,465,o),
(469,558,o),
(368,558,cs)
);
},
{
closed = 1;
nodes = (
(446,532,o),
(489,465,o),
(489,276,cs),
(489,77,o),
(444,14,o),
(367,14,cs),
(292,14,o),
(246,73,o),
(246,274,cs),
(246,461,o),
(288,532,o),
(368,532,cs)
);
}
);
width = 735;
},
{
anchors = (
{
name = bottom;
pos = (604,0);
},
{
name = top;
pos = (604,569);
}
);
layerId = "43C3EF94-D8C4-4226-80FB-D661263DD944";
shapes = (
{
closed = 1;
nodes = (
(337,-12,o),
(388,3,o),
(456,46,c),
(384,157,l),
(347,127,o),
(313,115,o),
(274,115,cs),
(226,115,o),
(203,132,o),
(203,168,cs),
(203,187,o),
(211,201,o),
(225,211,cs),
(244,225,o),
(271,231,o),
(330,231,cs),
(851,231,ls),
(916,231,o),
(951,228,o),
(974,215,cs),
(990,205,o),
(1001,191,o),
(1001,167,cs),
(1001,136,o),
(982,116,o),
(944,116,cs),
(930,116,o),
(915,117,o),
(900,121,c),
(871,-2,l),
(900,-9,o),
(935,-12,o),
(966,-12,cs),
(1096,-12,o),
(1182,47,o),
(1182,167,cs),
(1182,243,o),
(1151,289,o),
(1102,317,cs),
(1042,352,o),
(973,359,o),
(854,359,cs),
(383,359,ls),
(245,359,o),
(168,349,o),
(107,312,cs),
(60,283,o),
(27,238,o),
(27,167,cs),
(27,53,o),
(109,-12,o),
(250,-12,cs)
);
},
{
closed = 1;
nodes = (
(410,581,o),
(311,473,o),
(311,287,cs),
(311,202,o),
(334,131,o),
(376,80,c),
(425,16,o),
(501,-12,o),
(608,-12,cs),
(803,-12,o),
(902,94,o),
(902,287,cs),
(902,463,o),
(821,581,o),
(607,581,cs)
);
},
{
closed = 1;
nodes = (
(684,453,o),
(719,391,o),
(719,286,cs),
(719,177,o),
(683,116,o),
(607,116,cs),
(528,116,o),
(494,182,o),
(494,283,cs),
(494,391,o),
(528,453,o),
(607,453,cs)
);
}
);
width = 1209;
},
{
anchors = (
{
name = bottom;
pos = (472,0);
},
{
name = top;
pos = (472,569);
}
);
layerId = "7D50CFCE-8270-4149-A6BB-939E1A586542";
shapes = (
{
closed = 1;
nodes = (
(270,-12,o),
(318,0,o),
(371,37,c),
(303,146,l),
(281,123,o),
(258,109,o),
(227,109,cs),
(189,109,o),
(173,132,o),
(173,167,cs),
(173,189,o),
(182,205,o),
(199,217,cs),
(216,228,o),
(240,234,o),
(282,234,cs),
(642,234,ls),
(700,234,o),
(722,229,o),
(741,216,cs),
(757,205,o),
(766,187,o),
(766,161,cs),
(766,130,o),
(752,110,o),
(722,110,cs),
(714,110,o),
(704,111,o),
(695,113,c),
(670,-1,l),
(698,-8,o),
(730,-12,o),
(759,-12,cs),
(855,-12,o),
(918,45,o),
(918,161,cs),
(918,237,o),
(887,288,o),
(832,319,cs),
(786,345,o),
(735,356,o),
(643,356,cs),
(324,356,ls),
(227,356,o),
(167,346,o),
(117,320,cs),
(61,291,o),
(26,241,o),
(26,163,cs),
(26,53,o),
(91,-12,o),
(208,-12,cs)
);
},
{
closed = 1;
nodes = (
(319,581,o),
(241,482,o),
(241,294,cs),
(241,199,o),
(258,124,o),
(298,71,c),
(333,18,o),
(387,-12,o),
(471,-12,cs),
(621,-12,o),
(699,82,o),
(699,287,cs),
(699,473,o),
(635,581,o),
(470,581,cs)
);
},
{
closed = 1;
nodes = (
(522,459,o),
(542,415,o),
(542,286,cs),
(542,153,o),
(521,110,o),
(471,110,cs),
(417,110,o),
(398,156,o),
(398,283,cs),
(398,416,o),
(417,459,o),
(470,459,cs)
);
}
);
width = 944;
}
);
script = malayalam;
subCategory = Other;
unicode = 3349;
},
{
category = Letter;
glyphname = khamlym;
lastChange = "2023-03-20 12:00:13 +0000";
layers = (
{
anchors = (
{
name = bottom;
pos = (471,0);
},
{
name = top;
pos = (471,546);
}
);
layerId = "4D83A9DC-8FB7-446F-9A35-7DCC3E64AC98";
shapes = (
{
closed = 1;
nodes = (
(176,558,o),
(46,425,o),
(46,221,cs),
(46,53,o),
(122,-12,o),
(216,-12,cs),
(293,-12,o),
(356,39,o),
(356,149,cs),
(356,250,o),
(288,302,o),
(209,302,cs),
(156,302,o),
(97,280,o),
(51,229,c),
(56,203,l),
(87,238,o),
(145,276,o),
(208,276,cs),
(291,276,o),
(329,219,o),
(329,149,cs),
(329,49,o),
(277,14,o),
(216,14,cs),
(128,14,o),
(72,80,o),
(72,218,cs),
(72,229,ls),
(72,403,o),
(186,532,o),
(353,532,cs),
(521,532,o),
(595,417,o),
(595,277,cs),
(595,141,o),
(530,66,o),
(469,21,c),
(479,0,l),
(514,0,l),
(498,15,l),
(551,55,o),
(622,128,o),
(622,277,cs),
(622,440,o),
(526,558,o),
(353,558,cs)
);
},
{
closed = 1;
nodes = (
(837,546,l),
(837,26,l),
(488,26,l),
(494,0,l),
(863,0,l),
(863,546,l)
);
}
);
width = 942;
},
{
anchors = (
{
name = bottom;
pos = (382,0);
},
{
name = top;
pos = (500,554);
}
);
layerId = "EAD1E2BE-4A7F-4E9C-B677-063429CCD35D";
shapes = (
{
closed = 1;
nodes = (
(185,566,o),
(39,439,o),
(39,232,cs),
(39,65,o),
(132,-12,o),
(237,-12,cs),
(341,-12,o),
(408,54,o),
(408,165,cs),
(408,269,o),
(342,328,o),
(245,328,cs),
(198,328,o),
(150,310,o),
(113,283,c),
(109,201,l),
(143,236,o),
(185,258,o),
(231,258,cs),
(286,258,o),
(325,222,o),
(325,158,cs),
(325,94,o),
(290,58,o),
(239,58,cs),
(167,58,o),
(120,116,o),
(120,225,cs),
(120,237,ls),
(120,380,o),
(226,494,o),
(370,494,cs),
(505,494,o),
(587,407,o),
(587,271,cs),
(587,164,o),
(534,106,o),
(476,54,c),
(512,0,l),
(585,0,l),
(592,64,l),
(641,117,o),
(676,183,o),
(676,281,cs),
(676,439,o),
(582,566,o),
(374,566,cs)
);
},
{
closed = 1;
nodes = (
(843,554,l),
(843,70,l),
(558,70,l),
(546,0,l),
(929,0,l),
(929,554,l)
);
}
);
width = 1000;
},
{
anchors = (
{
name = bottom;
pos = (553,0);
},
{
name = top;
pos = (553,562);
}
);
layerId = "1D67CB39-8CE8-4679-A081-F58F86CEB03B";
shapes = (
{
closed = 1;
nodes = (
(188,574,o),
(37,442,o),
(37,243,cs),
(37,63,o),
(146,-12,o),
(268,-12,cs),
(395,-12,o),
(469,58,o),
(469,174,cs),
(469,279,o),
(405,347,o),
(289,347,cs),
(205,347,o),
(141,306,o),
(104,267,c),
(116,168,l),
(161,219,o),
(206,247,o),
(255,247,cs),
(304,247,o),
(327,217,o),
(327,166,cs),
(327,115,o),
(304,88,o),
(262,88,cs),
(211,88,o),
(172,124,o),
(172,237,cs),
(172,241,ls),
(172,370,o),
(263,467,o),
(404,467,cs),
(526,467,o),
(602,398,o),
(602,279,cs),
(602,180,o),
(559,124,o),
(508,61,c),
(552,0,l),
(614,0,l),
(631,22,l),
(699,100,o),
(751,164,o),
(751,287,cs),
(751,445,o),
(645,574,o),
(419,574,cs)
);
},
{
closed = 1;
nodes = (
(897,562,l),
(897,105,l),
(650,105,l),
(593,0,l),
(1044,0,l),
(1044,562,l)
);
}
);
width = 1107;
},
{
anchors = (
{
name = bottom;
pos = (382,0);
},
{
name = top;
pos = (382,554);
}
);
layerId = "C7FB44D8-0AA6-40A2-9E07-7E0254BA0D6B";
shapes = (
{
closed = 1;
nodes = (
(146,566,o),
(37,458,o),
(37,237,cs),
(37,54,o),
(105,-12,o),
(188,-12,cs),
(273,-12,o),
(320,42,o),
(320,160,cs),
(320,272,o),
(273,326,o),
(194,326,cs),
(142,326,o),
(95,291,o),
(64,257,c),
(85,204,l),
(116,242,o),
(141,260,o),
(176,260,cs),
(219,260,o),
(242,231,o),
(242,157,cs),
(242,84,o),
(220,55,o),
(186,55,cs),
(142,55,o),
(112,99,o),
(112,218,cs),
(112,243,ls),
(112,389,o),
(180,498,o),
(287,498,cs),
(378,498,o),
(433,422,o),
(433,281,cs),
(433,169,o),
(393,95,o),
(354,55,c),
(392,0,l),
(435,0,l),
(441,52,l),
(485,107,o),
(515,183,o),
(515,289,cs),
(515,448,o),
(446,566,o),
(289,566,cs)
);
},
{
closed = 1;
nodes = (
(627,554,l),
(627,66,l),
(435,66,l),
(412,0,l),
(706,0,l),
(706,554,l)
);
}
);
width = 765;
},
{
anchors = (
{
name = bottom;
pos = (352,0);
},
{
name = top;
pos = (352,546);
}
);
layerId = UUID0;
shapes = (
{
closed = 1;
nodes = (
(126,558,o),
(42,431,o),
(42,221,cs),
(42,39,o),
(94,-12,o),
(166,-12,cs),
(223,-12,o),
(271,29,o),
(271,151,cs),
(271,257,o),
(223,302,o),
(163,302,cs),
(123,302,o),
(88,284,o),
(47,235,c),
(56,212,l),
(87,252,o),
(118,276,o),
(163,276,cs),
(218,276,o),
(244,229,o),
(244,151,cs),
(244,42,o),
(208,14,o),
(166,14,cs),
(104,14,o),
(68,66,o),
(68,218,cs),
(68,231,ls),
(68,405,o),
(136,532,o),
(259,532,cs),
(369,532,o),
(426,431,o),
(426,291,cs),
(426,144,o),
(366,64,o),
(327,21,c),
(339,0,l),
(354,0,l),
(349,12,l),
(388,49,o),
(453,133,o),
(453,292,cs),
(453,446,o),
(385,558,o),
(259,558,cs)
);
},
{
closed = 1;
nodes = (
(613,546,l),
(613,26,l),
(343,26,l),
(346,0,l),
(639,0,l),
(639,546,l)
);
}
);
width = 704;
},
{
anchors = (
{
name = bottom;
pos = (580,0);
},
{
name = top;
pos = (580,569);
}
);
layerId = "43C3EF94-D8C4-4226-80FB-D661263DD944";
shapes = (
{
closed = 1;
nodes = (
(185,581,o),
(32,444,o),
(32,237,cs),
(32,63,o),
(138,-12,o),
(277,-12,cs),
(431,-12,o),
(505,61,o),
(505,180,cs),
(505,285,o),
(443,359,o),
(315,359,cs),
(229,359,o),
(170,321,o),
(117,276,c),
(138,156,l),
(192,215,o),
(221,240,o),
(267,240,cs),
(302,240,o),
(324,216,o),
(324,173,cs),
(324,127,o),
(305,108,o),
(272,108,cs),
(234,108,o),
(201,135,o),
(201,236,cs),
(201,243,ls),
(201,380,o),
(314,452,o),
(429,452,cs),
(552,452,o),
(615,386,o),
(615,281,cs),
(615,201,o),
(581,139,o),
(538,79,c),
(564,0,l),
(619,0,l),
(676,35,l),
(758,117,o),
(805,169,o),
(805,284,cs),
(805,426,o),
(714,581,o),
(441,581,cs)
);
},
{
closed = 1;
nodes = (
(918,569,l),
(918,128,l),
(695,128,l),
(609,0,l),
(1105,0,l),
(1105,569,l)
);
}
);
width = 1161;
},
{
anchors = (
{
name = bottom;
pos = (452,0);
},
{
name = top;
pos = (452,569);
}
);
layerId = "7D50CFCE-8270-4149-A6BB-939E1A586542";
shapes = (
{
closed = 1;
nodes = (
(157,581,o),
(31,453,o),
(31,242,cs),
(31,56,o),
(110,-12,o),
(220,-12,cs),
(337,-12,o),
(398,58,o),
(398,184,cs),
(398,284,o),
(352,356,o),
(255,356,cs),
(192,356,o),
(140,323,o),
(99,278,c),
(125,164,l),
(165,223,o),
(184,243,o),
(211,243,cs),
(233,243,o),
(247,226,o),
(247,173,cs),
(247,121,o),
(234,106,o),
(215,106,cs),
(192,106,o),
(171,121,o),
(171,235,cs),
(171,245,ls),
(171,383,o),
(253,458,o),
(339,458,cs),
(432,458,o),
(464,390,o),
(464,295,cs),
(464,206,o),
(432,129,o),
(399,74,c),
(474,0,l),
(513,0,l),
(522,35,l),
(588,117,o),
(625,196,o),
(625,303,cs),
(625,439,o),
(563,581,o),
(341,581,cs)
);
},
{
closed = 1;
nodes = (
(699,569,l),
(699,122,l),
(550,122,l),
(492,0,l),
(857,0,l),
(857,569,l)
);
}
);
width = 905;
}
);
script = malayalam;
subCategory = Other;
unicode = 3350;
},
{
category = Letter;
glyphname = gamlym;
lastChange = "2023-03-20 12:00:13 +0000";
layers = (
{
anchors = (
{
name = bottom;
pos = (408,0);
},
{
name = top;
pos = (408,546);
}
);
layerId = "4D83A9DC-8FB7-446F-9A35-7DCC3E64AC98";
shapes = (
{
closed = 1;
nodes = (
(514,558,o),
(473,540,o),
(446,508,cs),
(406,461,o),
(395,401,o),
(395,290,cs),
(395,273,ls),
(395,166,o),
(389,104,o),
(355,60,cs),
(332,31,o),
(301,14,o),
(244,14,cs),
(142,14,o),
(72,97,o),
(72,257,cs),
(72,398,o),
(128,469,o),
(205,533,c),
(190,554,l),
(108,486,o),
(45,407,o),
(45,258,cs),
(45,91,o),
(121,-12,o),
(245,-12,cs),
(302,-12,o),
(343,6,o),
(370,38,cs),
(410,85,o),
(421,140,o),
(421,255,cs),
(421,273,ls),
(421,372,o),
(426,442,o),
(461,486,cs),
(484,515,o),
(515,532,o),
(572,532,cs),
(674,532,o),
(744,449,o),
(744,289,cs),
(744,148,o),
(688,77,o),
(611,13,c),
(626,-8,l),
(708,60,o),
(771,139,o),
(771,288,cs),
(771,455,o),
(695,558,o),
(571,558,cs)
);
}
);
width = 816;
},
{
anchors = (
{
name = bottom;
pos = (341,0);
},
{
name = top;
pos = (448,554);
}
);
layerId = "EAD1E2BE-4A7F-4E9C-B677-063429CCD35D";
shapes = (
{
closed = 1;
nodes = (
(541,566,o),
(492,543,o),
(454,499,cs),
(420,459,o),
(404,404,o),
(404,313,cs),
(404,300,ls),
(404,194,o),
(399,140,o),
(377,106,cs),
(358,78,o),
(332,60,o),
(274,60,cs),
(185,60,o),
(127,141,o),
(127,265,cs),
(127,379,o),
(177,455,o),
(248,504,c),
(194,566,l),
(93,487,o),
(39,398,o),
(39,263,cs),
(39,90,o),
(131,-12,o),
(278,-12,cs),
(354,-12,o),
(404,11,o),
(439,51,cs),
(477,95,o),
(492,148,o),
(492,243,cs),
(492,252,ls),
(492,366,o),
(499,414,o),
(521,447,cs),
(539,473,o),
(568,494,o),
(620,494,cs),
(712,494,o),
(770,412,o),
(770,290,cs),
(770,175,o),
(720,103,o),
(649,53,c),
(703,-8,l),
(804,70,o),
(858,160,o),
(858,293,cs),
(858,458,o),
(766,566,o),
(622,566,cs)
);
}
);
width = 897;
},
{
anchors = (
{
name = bottom;
pos = (487,0);
},
{
name = top;
pos = (487,562);
}
);
layerId = "1D67CB39-8CE8-4679-A081-F58F86CEB03B";
shapes = (
{
closed = 1;
nodes = (
(571,574,o),
(519,548,o),
(480,509,cs),
(433,462,o),
(412,395,o),
(412,301,cs),
(412,271,ls),
(412,199,o),
(407,161,o),
(390,134,cs),
(374,108,o),
(348,95,o),
(306,95,cs),
(239,95,o),
(186,145,o),
(186,271,cs),
(186,352,o),
(212,422,o),
(281,499,c),
(179,575,l),
(88,489,o),
(37,396,o),
(37,264,cs),
(37,96,o),
(145,-12,o),
(312,-12,cs),
(400,-12,o),
(463,12,o),
(503,55,cs),
(546,102,o),
(562,171,o),
(562,260,cs),
(562,283,ls),
(562,362,o),
(568,401,o),
(585,428,cs),
(601,453,o),
(626,467,o),
(665,467,cs),
(734,467,o),
(789,412,o),
(789,292,cs),
(789,212,o),
(763,141,o),
(693,64,c),
(797,-12,l),
(889,75,o),
(938,171,o),
(938,300,cs),
(938,468,o),
(831,574,o),
(664,574,cs)
);
}
);
width = 975;
},
{
anchors = (
{
name = bottom;
pos = (341,0);
},
{
name = top;
pos = (341,554);
}
);
layerId = "C7FB44D8-0AA6-40A2-9E07-7E0254BA0D6B";
shapes = (
{
closed = 1;
nodes = (
(411,566,o),
(375,551,o),
(347,523,cs),
(310,485,o),
(301,435,o),
(301,360,cs),
(301,237,ls),
(301,150,o),
(297,109,o),
(277,81,cs),
(265,65,o),
(247,56,o),
(219,56,cs),
(158,56,o),
(118,130,o),
(118,253,cs),
(118,381,o),
(161,461,o),
(205,514,c),
(143,566,l),
(85,494,o),
(36,402,o),
(36,249,cs),
(36,81,o),
(104,-12,o),
(218,-12,cs),
(271,-12,o),
(307,3,o),
(335,31,cs),
(372,68,o),
(381,119,o),
(381,194,cs),
(381,334,ls),
(381,407,o),
(385,445,o),
(405,473,cs),
(417,489,o),
(435,498,o),
(463,498,cs),
(524,498,o),
(564,424,o),
(564,301,cs),
(564,173,o),
(522,95,o),
(478,42,c),
(540,-10,l),
(598,62,o),
(646,152,o),
(646,305,cs),
(646,473,o),
(578,566,o),
(464,566,cs)
);
}
);
width = 682;
},
{
anchors = (
{
name = bottom;
pos = (313,0);
},
{
name = top;
pos = (313,546);
}
);
layerId = UUID0;
shapes = (
{
closed = 1;
nodes = (
(390,558,o),
(361,542,o),
(342,521,cs),
(306,481,o),
(300,421,o),
(300,342,cs),
(300,210,ls),
(300,121,o),
(291,72,o),
(263,41,cs),
(247,24,o),
(226,14,o),
(197,14,cs),
(108,14,o),
(69,113,o),
(69,243,cs),
(69,381,o),
(114,464,o),
(171,536,c),
(150,553,l),
(98,482,o),
(42,402,o),
(42,244,cs),
(42,87,o),
(98,-12,o),
(198,-12,cs),
(236,-12,o),
(265,4,o),
(284,25,cs),
(320,65,o),
(326,125,o),
(326,202,cs),
(326,336,ls),
(326,425,o),
(335,474,o),
(363,505,cs),
(379,522,o),
(400,532,o),
(429,532,cs),
(518,532,o),
(557,433,o),
(557,303,cs),
(557,165,o),
(512,82,o),
(455,10,c),
(476,-7,l),
(528,64,o),
(584,144,o),
(584,302,cs),
(584,459,o),
(528,558,o),
(428,558,cs)
);
}
);
width = 626;
},
{
anchors = (
{
name = bottom;
pos = (512,0);
},
{
name = top;
pos = (512,569);
}
);
layerId = "43C3EF94-D8C4-4226-80FB-D661263DD944";
shapes = (
{
closed = 1;
nodes = (
(604,581,o),
(545,561,o),
(499,524,cs),
(442,478,o),
(417,406,o),
(417,303,cs),
(417,264,ls),
(417,204,o),
(412,161,o),
(387,137,cs),
(374,124,o),
(355,117,o),
(329,117,cs),
(274,117,o),
(225,154,o),
(225,273,cs),
(225,353,o),
(251,414,o),
(313,500,c),
(174,581,l),
(85,479,o),
(35,395,o),
(35,269,cs),
(35,103,o),
(142,-12,o),
(325,-12,cs),
(419,-12,o),
(482,7,o),
(528,44,cs),
(584,89,o),
(608,165,o),
(608,275,cs),
(608,305,ls),
(608,365,o),
(613,408,o),
(638,432,cs),
(651,445,o),
(670,452,o),
(696,452,cs),
(751,452,o),
(800,415,o),
(800,296,cs),
(800,216,o),
(774,155,o),
(712,69,c),
(851,-12,l),
(940,90,o),
(990,174,o),
(990,300,cs),
(990,466,o),
(882,581,o),
(700,581,cs)
);
}
);
width = 1025;
},
{
anchors = (
{
name = bottom;
pos = (399,0);
},
{
name = top;
pos = (399,569);
}
);
layerId = "7D50CFCE-8270-4149-A6BB-939E1A586542";
shapes = (
{
closed = 1;
nodes = (
(467,581,o),
(421,566,o),
(383,533,cs),
(340,495,o),
(319,437,o),
(319,336,cs),
(319,206,ls),
(319,157,o),
(313,137,o),
(300,124,cs),
(292,115,o),
(280,111,o),
(266,111,cs),
(227,111,o),
(192,147,o),
(192,262,cs),
(192,362,o),
(222,434,o),
(264,518,c),
(131,582,l),
(72,484,o),
(32,388,o),
(32,262,cs),
(32,99,o),
(107,-12,o),
(263,-12,cs),
(331,-12,o),
(377,3,o),
(415,36,cs),
(458,74,o),
(479,132,o),
(479,233,cs),
(479,363,ls),
(479,412,o),
(485,432,o),
(498,445,cs),
(506,454,o),
(518,458,o),
(532,458,cs),
(571,458,o),
(606,422,o),
(606,307,cs),
(606,207,o),
(576,135,o),
(534,51,c),
(667,-13,l),
(726,85,o),
(766,181,o),
(766,307,cs),
(766,470,o),
(691,581,o),
(535,581,cs)
);
}
);
width = 798;
}
);
script = malayalam;
subCategory = Other;
unicode = 3351;
},
{
category = Letter;
glyphname = ghamlym;
lastChange = "2023-03-20 12:00:14 +0000";
layers = (
{
anchors = (
{
name = bottom;
pos = (611,0);
},
{
name = top;
pos = (611,546);
}
);
layerId = "4D83A9DC-8FB7-446F-9A35-7DCC3E64AC98";
shapes = (
{
closed = 1;
nodes = (
(104,558,o),
(38,482,o),
(38,392,cs),
(38,315,o),
(66,274,o),
(119,228,c),
(135,249,l),
(87,287,o),
(65,327,o),
(65,392,cs),
(65,466,o),
(115,532,o),
(201,532,cs),
(284,532,o),
(338,477,o),
(338,391,cs),
(338,339,o),
(323,297,o),
(283,257,c),
(295,236,l),
(509,236,l),
(506,262,l),
(308,262,l),
(302,246,l),
(344,285,o),
(365,330,o),
(365,392,cs),
(365,489,o),
(299,558,o),
(201,558,cs)
);
},
{
closed = 1;
nodes = (
(1117,546,l),
(1117,26,l),
(520,26,l),
(520,236,l),
(915,236,l),
(915,325,ls),
(915,411,o),
(897,469,o),
(861,506,cs),
(827,541,o),
(775,558,o),
(706,558,cs),
(639,558,o),
(583,538,o),
(547,498,cs),
(512,460,o),
(494,409,o),
(494,317,cs),
(494,0,l),
(1143,0,l),
(1143,546,l)
);
},
{
closed = 1;
nodes = (
(834,533,o),
(889,475,o),
(889,315,cs),
(889,262,l),
(520,262,l),
(520,319,ls),
(520,470,o),
(586,533,o),
(706,533,cs)
);
}
);
width = 1222;
},
{
anchors = (
{
name = bottom;
pos = (504,0);
},
{
name = top;
pos = (662,554);
}
);
layerId = "EAD1E2BE-4A7F-4E9C-B677-063429CCD35D";
shapes = (
{
closed = 1;
nodes = (
(110,566,o),
(32,492,o),
(32,387,cs),
(32,312,o),
(72,255,o),
(129,215,c),
(175,273,l),
(133,302,o),
(116,340,o),
(116,385,cs),
(116,445,o),
(156,496,o),
(229,496,cs),
(304,496,o),
(343,451,o),
(343,379,cs),
(343,331,o),
(326,299,o),
(299,274,c),
(328,222,l),
(573,222,l),
(556,292,l),
(357,292,l),
(382,279,l),
(407,297,o),
(427,341,o),
(427,392,cs),
(427,479,o),
(364,566,o),
(229,566,cs)
);
},
{
closed = 1;
nodes = (
(1168,554,l),
(1168,70,l),
(615,70,l),
(615,222,l),
(1010,222,l),
(1010,322,ls),
(1010,403,o),
(991,465,o),
(949,507,cs),
(910,545,o),
(851,566,o),
(771,566,cs),
(693,566,o),
(634,545,o),
(592,504,cs),
(552,465,o),
(529,411,o),
(529,313,cs),
(529,0,l),
(1254,0,l),
(1254,554,l)
);
},
{
closed = 1;
nodes = (
(877,496,o),
(924,446,o),
(924,320,cs),
(924,292,l),
(615,292,l),
(615,321,ls),
(615,443,o),
(662,496,o),
(770,496,cs)
);
}
);
width = 1325;
},
{
anchors = (
{
name = bottom;
pos = (732,0);
},
{
name = top;
pos = (732,562);
}
);
layerId = "1D67CB39-8CE8-4679-A081-F58F86CEB03B";
shapes = (
{
closed = 1;
nodes = (
(125,574,o),
(29,499,o),
(29,383,cs),
(29,310,o),
(57,255,o),
(106,201,c),
(220,257,l),
(198,288,o),
(175,320,o),
(175,375,cs),
(175,429,o),
(204,470,o),
(266,470,cs),
(326,470,o),
(355,428,o),
(355,374,cs),
(355,327,o),
(337,292,o),
(321,271,c),
(373,213,l),
(676,213,l),
(676,318,l),
(460,318,l),
(470,282,l),
(482,307,o),
(498,342,o),
(498,384,cs),
(498,477,o),
(426,574,o),
(265,574,cs)
);
},
{
closed = 1;
nodes = (
(1254,562,l),
(1254,105,l),
(731,105,l),
(731,213,l),
(1126,213,l),
(1126,301,ls),
(1126,396,o),
(1107,454,o),
(1056,505,cs),
(1012,549,o),
(945,574,o),
(856,574,cs),
(766,574,o),
(697,549,o),
(653,505,cs),
(611,463,o),
(584,410,o),
(584,303,cs),
(584,0,l),
(1401,0,l),
(1401,562,l)
);
},
{
closed = 1;
nodes = (
(940,469,o),
(979,412,o),
(979,322,cs),
(979,318,l),
(731,318,l),
(731,323,ls),
(731,408,o),
(765,469,o),
(855,469,cs)
);
}
);
width = 1464;
},
{
anchors = (
{
name = bottom;
pos = (504,0);
},
{
name = top;
pos = (504,554);
}
);
layerId = "C7FB44D8-0AA6-40A2-9E07-7E0254BA0D6B";
shapes = (
{
closed = 1;
nodes = (
(92,566,o),
(31,501,o),
(31,395,cs),
(31,321,o),
(61,263,o),
(98,217,c),
(154,261,l),
(125,302,o),
(108,340,o),
(108,396,cs),
(108,459,o),
(137,500,o),
(184,500,cs),
(232,500,o),
(258,459,o),
(258,392,cs),
(258,339,o),
(242,304,o),
(223,276,c),
(255,224,l),
(448,224,l),
(442,290,l),
(288,290,l),
(300,281,l),
(314,299,o),
(335,342,o),
(335,400,cs),
(335,486,o),
(288,566,o),
(183,566,cs)
);
},
{
closed = 1;
nodes = (
(871,554,l),
(871,66,l),
(485,66,l),
(485,224,l),
(767,224,l),
(767,341,ls),
(767,422,o),
(754,473,o),
(721,512,cs),
(692,548,o),
(647,566,o),
(587,566,cs),
(527,566,o),
(483,546,o),
(452,508,cs),
(423,472,o),
(406,426,o),
(406,331,cs),
(406,0,l),
(950,0,l),
(950,554,l)
);
},
{
closed = 1;
nodes = (
(656,500,o),
(688,450,o),
(688,331,cs),
(688,290,l),
(485,290,l),
(485,330,ls),
(485,447,o),
(515,500,o),
(586,500,cs)
);
}
);
width = 1009;
},
{
anchors = (
{
name = bottom;
pos = (454,0);
},
{
name = top;
pos = (454,546);
}
);
layerId = UUID0;
shapes = (
{
closed = 1;
nodes = (
(82,558,o),
(31,499,o),
(31,406,cs),
(31,329,o),
(63,275,o),
(100,228,c),
(120,245,l),
(88,284,o),
(58,335,o),
(58,405,cs),
(58,483,o),
(93,532,o),
(156,532,cs),
(214,532,o),
(254,493,o),
(254,403,cs),
(254,348,o),
(233,295,o),
(200,255,c),
(214,236,l),
(380,236,l),
(377,262,l),
(225,262,l),
(221,246,l),
(257,285,o),
(281,342,o),
(281,404,cs),
(281,505,o),
(229,558,o),
(156,558,cs)
);
},
{
closed = 1;
nodes = (
(817,546,l),
(817,26,l),
(392,26,l),
(392,236,l),
(669,236,l),
(669,345,ls),
(669,443,o),
(647,504,o),
(600,536,cs),
(579,551,o),
(551,558,o),
(520,558,cs),
(485,558,o),
(457,550,o),
(435,535,cs),
(385,501,o),
(366,440,o),
(366,342,cs),
(366,0,l),
(843,0,l),
(843,546,l)
);
},
{
closed = 1;
nodes = (
(603,532,o),
(643,475,o),
(643,339,cs),
(643,262,l),
(392,262,l),
(392,340,ls),
(392,479,o),
(434,532,o),
(519,532,cs)
);
}
);
width = 908;
},
{
anchors = (
{
name = bottom;
pos = (766,0);
},
{
name = top;
pos = (766,569);
}
);
layerId = "43C3EF94-D8C4-4226-80FB-D661263DD944";
shapes = (
{
closed = 1;
nodes = (
(133,581,o),
(27,505,o),
(27,379,cs),
(27,306,o),
(60,246,o),
(108,196,c),
(252,254,l),
(228,292,o),
(212,328,o),
(212,369,cs),
(212,419,o),
(236,454,o),
(287,454,cs),
(339,454,o),
(360,414,o),
(360,372,cs),
(360,332,o),
(343,301,o),
(329,279,c),
(392,209,l),
(742,209,l),
(732,335,l),
(521,335,l),
(518,285,l),
(531,314,o),
(538,352,o),
(538,382,cs),
(538,477,o),
(464,581,o),
(285,581,cs)
);
},
{
closed = 1;
nodes = (
(1291,569,l),
(1291,128,l),
(794,128,l),
(794,209,l),
(1193,209,l),
(1193,296,ls),
(1193,405,o),
(1165,469,o),
(1112,516,cs),
(1063,559,o),
(996,581,o),
(902,581,cs),
(814,581,o),
(745,560,o),
(694,517,cs),
(641,472,o),
(608,408,o),
(608,297,cs),
(608,0,l),
(1478,0,l),
(1478,569,l)
);
},
{
closed = 1;
nodes = (
(969,453,o),
(1007,408,o),
(1007,339,cs),
(1007,335,l),
(794,335,l),
(794,339,ls),
(794,405,o),
(827,453,o),
(901,453,cs)
);
}
);
width = 1533;
},
{
anchors = (
{
name = bottom;
pos = (592,0);
},
{
name = top;
pos = (592,569);
}
);
layerId = "7D50CFCE-8270-4149-A6BB-939E1A586542";
shapes = (
{
closed = 1;
nodes = (
(102,581,o),
(26,505,o),
(26,390,cs),
(26,309,o),
(56,250,o),
(96,196,c),
(222,251,l),
(200,294,o),
(184,329,o),
(184,386,cs),
(184,426,o),
(197,459,o),
(229,459,cs),
(262,459,o),
(272,424,o),
(272,384,cs),
(272,338,o),
(261,304,o),
(249,282,c),
(296,210,l),
(618,210,l),
(579,331,l),
(385,331,l),
(391,287,l),
(409,316,o),
(423,359,o),
(423,396,cs),
(423,485,o),
(372,581,o),
(227,581,cs)
);
},
{
closed = 1;
nodes = (
(978,569,l),
(978,122,l),
(627,122,l),
(627,210,l),
(919,210,l),
(919,307,ls),
(919,411,o),
(903,472,o),
(864,517,cs),
(829,558,o),
(774,581,o),
(695,581,cs),
(620,581,o),
(567,558,o),
(531,520,cs),
(489,476,o),
(470,413,o),
(470,305,cs),
(470,0,l),
(1136,0,l),
(1136,569,l)
);
},
{
closed = 1;
nodes = (
(740,459,o),
(762,423,o),
(762,349,cs),
(762,331,l),
(627,331,l),
(627,350,ls),
(627,424,o),
(646,459,o),
(695,459,cs)
);
}
);
width = 1184;
}
);
script = malayalam;
subCategory = Other;
unicode = 3352;
},
{
category = Letter;
glyphname = ngamlym;
lastChange = "2023-03-20 12:00:14 +0000";
layers = (
{
anchors = (
{
name = bottom;
pos = (494,0);
},
{
name = top;
pos = (494,546);
}
);
layerId = "4D83A9DC-8FB7-446F-9A35-7DCC3E64AC98";
shapes = (
{
closed = 1;
nodes = (
(158,558,o),
(48,422,o),
(48,225,cs),
(48,53,o),
(124,-12,o),
(218,-12,cs),
(295,-12,o),
(358,39,o),
(358,149,cs),
(358,250,o),
(290,302,o),
(211,302,cs),
(158,302,o),
(99,280,o),
(53,229,c),
(58,203,l),
(89,238,o),
(147,276,o),
(210,276,cs),
(293,276,o),
(331,219,o),
(331,149,cs),
(331,49,o),
(279,14,o),
(218,14,cs),
(130,14,o),
(74,79,o),
(74,226,cs),
(74,232,ls),
(74,403,o),
(170,532,o),
(329,532,cs),
(381,532,o),
(413,522,o),
(445,498,cs),
(488,465,o),
(516,414,o),
(516,312,cs),
(516,0,l),
(542,0,l),
(542,198,l),
(533,319,l),
(534,371,l),
(525,492,o),
(447,558,o),
(330,558,cs)
);
},
{
closed = 1;
nodes = (
(616,558,o),
(533,470,o),
(524,335,c),
(526,281,l),
(526,137,l),
(542,136,l),
(542,262,ls),
(542,373,o),
(565,430,o),
(601,469,cs),
(639,511,o),
(691,532,o),
(756,532,cs),
(854,532,o),
(909,481,o),
(909,408,cs),
(909,371,o),
(899,345,o),
(882,325,cs),
(856,295,o),
(816,283,o),
(746,283,cs),
(720,283,l),
(720,257,l),
(741,257,ls),
(796,257,o),
(837,248,o),
(869,227,cs),
(899,207,o),
(920,177,o),
(920,130,cs),
(920,54,o),
(884,14,o),
(796,14,cs),
(766,14,o),
(739,18,o),
(711,26,c),
(705,0,l),
(728,-6,o),
(761,-12,o),
(799,-12,cs),
(896,-12,o),
(947,41,o),
(947,131,cs),
(947,212,o),
(890,268,o),
(777,274,c),
(777,264,l),
(903,270,o),
(936,335,o),
(936,409,cs),
(936,490,o),
(873,558,o),
(756,558,cs)
);
}
);
width = 989;
},
{
anchors = (
{
name = bottom;
pos = (404,0);
},
{
name = top;
pos = (532,554);
}
);
layerId = "EAD1E2BE-4A7F-4E9C-B677-063429CCD35D";
shapes = (
{
closed = 1;
nodes = (
(182,566,o),
(42,452,o),
(42,241,cs),
(42,63,o),
(135,-12,o),
(240,-12,cs),
(343,-12,o),
(410,54,o),
(410,165,cs),
(410,269,o),
(344,328,o),
(248,328,cs),
(183,328,o),
(119,296,o),
(80,248,c),
(95,186,l),
(134,229,o),
(181,258,o),
(233,258,cs),
(289,258,o),
(327,223,o),
(327,157,cs),
(327,93,o),
(292,58,o),
(242,58,cs),
(170,58,o),
(123,115,o),
(123,228,cs),
(123,239,ls),
(123,385,o),
(213,494,o),
(357,494,cs),
(417,494,o),
(450,481,o),
(478,456,cs),
(508,428,o),
(522,385,o),
(522,306,cs),
(522,0,l),
(608,0,l),
(608,229,l),
(595,386,l),
(583,460,l),
(531,528,o),
(470,566,o),
(358,566,cs)
);
},
{
closed = 1;
nodes = (
(688,566,o),
(602,512,o),
(564,438,c),
(532,243,l),
(532,80,l),
(608,80,l),
(608,243,ls),
(608,361,o),
(629,405,o),
(661,440,cs),
(692,473,o),
(739,494,o),
(803,494,cs),
(879,494,o),
(928,463,o),
(928,403,cs),
(928,376,o),
(920,355,o),
(904,341,c),
(881,318,o),
(841,310,o),
(791,310,cs),
(766,310,l),
(766,240,l),
(791,240,ls),
(862,240,o),
(887,228,o),
(909,210,cs),
(930,192,o),
(939,169,o),
(939,144,cs),
(939,83,o),
(903,59,o),
(837,59,cs),
(812,59,o),
(793,63,o),
(767,69,c),
(749,0,l),
(775,-6,o),
(806,-11,o),
(847,-11,cs),
(959,-11,o),
(1026,46,o),
(1026,140,cs),
(1026,207,o),
(986,258,o),
(909,280,c),
(913,274,l),
(985,303,o),
(1015,347,o),
(1015,411,cs),
(1015,498,o),
(940,566,o),
(803,566,cs)
);
}
);
width = 1065;
},
{
anchors = (
{
name = bottom;
pos = (589,0);
},
{
name = top;
pos = (589,562);
}
);
layerId = "1D67CB39-8CE8-4679-A081-F58F86CEB03B";
shapes = (
{
closed = 1;
nodes = (
(196,574,o),
(37,457,o),
(37,242,cs),
(37,62,o),
(146,-12,o),
(267,-12,cs),
(395,-12,o),
(469,58,o),
(469,174,cs),
(469,279,o),
(405,347,o),
(291,347,cs),
(208,347,o),
(141,306,o),
(104,267,c),
(116,168,l),
(161,219,o),
(206,247,o),
(255,247,cs),
(304,247,o),
(327,217,o),
(327,167,cs),
(327,115,o),
(304,88,o),
(262,88,cs),
(211,88,o),
(172,125,o),
(172,237,cs),
(172,240,ls),
(172,390,o),
(268,468,o),
(396,468,cs),
(454,468,o),
(486,455,o),
(511,433,cs),
(539,409,o),
(556,371,o),
(556,269,cs),
(556,0,l),
(703,0,l),
(703,225,l),
(682,394,l),
(658,473,l),
(594,540,o),
(519,574,o),
(399,574,cs)
);
},
{
closed = 1;
nodes = (
(733,574,o),
(626,498,o),
(585,370,c),
(566,242,l),
(566,74,l),
(703,74,l),
(703,209,ls),
(703,315,o),
(716,368,o),
(749,410,cs),
(779,448,o),
(823,469,o),
(890,469,cs),
(953,469,o),
(986,445,o),
(986,400,cs),
(986,381,o),
(979,366,o),
(968,355,cs),
(949,336,o),
(919,330,o),
(876,330,cs),
(842,330,l),
(842,226,l),
(879,226,ls),
(931,226,o),
(955,218,o),
(972,205,cs),
(989,192,o),
(997,175,o),
(997,156,cs),
(997,111,o),
(974,93,o),
(916,93,cs),
(887,93,o),
(867,97,o),
(843,103,c),
(825,0,l),
(853,-6,o),
(889,-12,o),
(942,-12,cs),
(1075,-12,o),
(1144,46,o),
(1144,144,cs),
(1144,209,o),
(1109,258,o),
(1037,283,c),
(1039,278,l),
(1109,312,o),
(1133,354,o),
(1133,416,cs),
(1133,504,o),
(1054,574,o),
(896,574,cs)
);
}
);
width = 1178;
},
{
anchors = (
{
name = bottom;
pos = (404,0);
},
{
name = top;
pos = (404,554);
}
);
layerId = "C7FB44D8-0AA6-40A2-9E07-7E0254BA0D6B";
shapes = (
{
closed = 1;
nodes = (
(141,566,o),
(38,462,o),
(38,241,cs),
(38,54,o),
(106,-12,o),
(188,-12,cs),
(274,-12,o),
(321,42,o),
(321,160,cs),
(321,272,o),
(274,326,o),
(195,326,cs),
(143,326,o),
(96,291,o),
(65,257,c),
(86,204,l),
(117,242,o),
(142,260,o),
(177,260,cs),
(220,260,o),
(243,231,o),
(243,157,cs),
(243,84,o),
(221,55,o),
(187,55,cs),
(143,55,o),
(113,99,o),
(113,222,cs),
(113,251,ls),
(113,393,o),
(177,498,o),
(279,498,cs),
(318,498,o),
(345,485,o),
(362,465,cs),
(386,437,o),
(393,398,o),
(393,326,cs),
(393,0,l),
(472,0,l),
(472,264,l),
(460,417,l),
(445,467,l),
(406,533,o),
(359,566,o),
(277,566,cs)
);
},
{
closed = 1;
nodes = (
(509,566,o),
(448,503,o),
(418,428,c),
(414,296,l),
(427,205,l),
(472,204,l),
(472,301,ls),
(472,393,o),
(491,440,o),
(525,470,cs),
(548,490,o),
(574,498,o),
(605,498,cs),
(652,498,o),
(689,468,o),
(689,406,cs),
(689,375,o),
(681,353,o),
(667,338,cs),
(648,318,o),
(622,310,o),
(584,310,cs),
(576,310,l),
(576,244,l),
(581,244,ls),
(619,244,o),
(649,234,o),
(668,214,cs),
(685,197,o),
(694,171,o),
(694,140,cs),
(694,76,o),
(661,55,o),
(619,55,cs),
(605,55,o),
(588,57,o),
(572,62,c),
(557,-1,l),
(576,-7,o),
(606,-11,o),
(633,-11,cs),
(720,-11,o),
(775,45,o),
(775,141,cs),
(775,206,o),
(735,264,o),
(674,280,c),
(677,275,l),
(745,303,o),
(770,349,o),
(770,413,cs),
(770,497,o),
(715,566,o),
(610,566,cs)
);
}
);
width = 808;
},
{
anchors = (
{
name = bottom;
pos = (367,0);
},
{
name = top;
pos = (367,546);
}
);
layerId = UUID0;
shapes = (
{
closed = 1;
nodes = (
(129,558,o),
(44,440,o),
(44,225,cs),
(44,39,o),
(96,-12,o),
(168,-12,cs),
(225,-12,o),
(273,29,o),
(273,151,cs),
(273,257,o),
(225,302,o),
(165,302,cs),
(125,302,o),
(90,284,o),
(49,235,c),
(58,212,l),
(89,252,o),
(120,276,o),
(165,276,cs),
(220,276,o),
(246,229,o),
(246,151,cs),
(246,42,o),
(210,14,o),
(168,14,cs),
(106,14,o),
(70,66,o),
(70,222,cs),
(70,237,ls),
(70,414,o),
(140,532,o),
(245,532,cs),
(282,532,o),
(308,522,o),
(327,504,cs),
(363,471,o),
(373,418,o),
(373,325,cs),
(373,0,l),
(399,0,l),
(399,295,l),
(392,370,l),
(390,413,l),
(379,506,o),
(333,558,o),
(245,558,cs)
);
},
{
closed = 1;
nodes = (
(469,558,o),
(396,503,o),
(384,387,c),
(377,345,l),
(382,282,l),
(399,277,l),
(399,322,ls),
(399,401,o),
(419,459,o),
(457,496,cs),
(481,519,o),
(511,532,o),
(553,532,cs),
(618,532,o),
(663,490,o),
(663,411,cs),
(663,362,o),
(650,332,o),
(627,312,cs),
(604,292,o),
(572,283,o),
(524,283,cs),
(521,283,l),
(521,257,l),
(525,257,ls),
(579,257,o),
(608,247,o),
(632,227,cs),
(657,206,o),
(671,175,o),
(671,130,cs),
(671,45,o),
(632,17,o),
(570,17,cs),
(553,17,o),
(534,19,o),
(513,25,c),
(507,0,l),
(528,-6,o),
(550,-9,o),
(569,-9,cs),
(653,-9,o),
(698,40,o),
(698,130,cs),
(698,219,o),
(644,267,o),
(570,274,c),
(569,268,l),
(654,277,o),
(690,329,o),
(690,412,cs),
(690,501,o),
(634,558,o),
(552,558,cs)
);
}
);
width = 734;
},
{
anchors = (
{
name = bottom;
pos = (624,0);
},
{
name = top;
pos = (624,569);
}
);
layerId = "43C3EF94-D8C4-4226-80FB-D661263DD944";
shapes = (
{
closed = 1;
nodes = (
(202,581,o),
(33,460,o),
(33,244,cs),
(33,63,o),
(139,-12,o),
(278,-12,cs),
(432,-12,o),
(506,61,o),
(506,180,cs),
(506,285,o),
(444,359,o),
(316,359,cs),
(230,359,o),
(171,321,o),
(118,276,c),
(139,156,l),
(193,215,o),
(222,240,o),
(267,240,cs),
(303,240,o),
(325,216,o),
(325,173,cs),
(325,127,o),
(306,108,o),
(273,108,cs),
(235,108,o),
(202,135,o),
(202,240,cs),
(202,244,ls),
(202,380,o),
(301,453,o),
(418,453,cs),
(469,453,o),
(505,443,o),
(529,424,cs),
(562,397,o),
(574,359,o),
(574,273,cs),
(574,0,l),
(761,0,l),
(761,239,l),
(730,390,l),
(704,480,l),
(629,553,o),
(547,581,o),
(422,581,cs)
);
},
{
closed = 1;
nodes = (
(759,581,o),
(633,488,o),
(590,326,c),
(585,241,l),
(585,70,l),
(761,70,l),
(761,187,ls),
(761,277,o),
(766,344,o),
(804,392,cs),
(834,430,o),
(875,453,o),
(935,453,cs),
(992,453,o),
(1020,430,o),
(1020,397,cs),
(1020,381,o),
(1014,369,o),
(1004,361,cs),
(988,348,o),
(965,343,o),
(922,343,cs),
(888,343,l),
(888,217,l),
(926,217,ls),
(969,217,o),
(990,214,o),
(1008,204,cs),
(1023,195,o),
(1031,182,o),
(1031,164,cs),
(1031,129,o),
(1008,116,o),
(961,116,cs),
(936,116,o),
(913,120,o),
(891,126,c),
(868,2,l),
(900,-5,o),
(944,-12,o),
(992,-12,cs),
(1139,-12,o),
(1217,49,o),
(1217,148,cs),
(1217,211,o),
(1186,262,o),
(1113,287,c),
(1114,282,l),
(1183,314,o),
(1206,358,o),
(1206,419,cs),
(1206,508,o),
(1129,581,o),
(953,581,cs)
);
}
);
width = 1248;
},
{
anchors = (
{
name = bottom;
pos = (475,0);
},
{
name = top;
pos = (475,569);
}
);
layerId = "7D50CFCE-8270-4149-A6BB-939E1A586542";
shapes = (
{
closed = 1;
nodes = (
(158,581,o),
(32,467,o),
(32,246,cs),
(32,56,o),
(111,-12,o),
(220,-12,cs),
(338,-12,o),
(399,58,o),
(399,184,cs),
(399,284,o),
(353,356,o),
(256,356,cs),
(193,356,o),
(141,323,o),
(100,278,c),
(126,164,l),
(166,223,o),
(185,243,o),
(212,243,cs),
(235,243,o),
(248,226,o),
(248,173,cs),
(248,121,o),
(235,106,o),
(216,106,cs),
(193,106,o),
(172,121,o),
(172,234,cs),
(172,240,ls),
(172,393,o),
(250,458,o),
(333,458,cs),
(367,458,o),
(390,451,o),
(406,436,cs),
(431,413,o),
(439,378,o),
(439,300,cs),
(439,0,l),
(597,0,l),
(597,239,l),
(569,374,l),
(543,482,l),
(488,555,o),
(427,581,o),
(334,581,cs)
);
},
{
closed = 1;
nodes = (
(570,581,o),
(491,506,o),
(458,408,c),
(454,319,l),
(462,236,l),
(597,215,l),
(597,285,ls),
(597,358,o),
(602,407,o),
(636,437,cs),
(650,450,o),
(669,459,o),
(699,459,cs),
(736,459,o),
(757,435,o),
(757,401,cs),
(757,380,o),
(751,365,o),
(735,354,cs),
(725,347,o),
(707,341,o),
(675,341,cs),
(667,341,l),
(667,222,l),
(679,222,ls),
(714,222,o),
(731,218,o),
(744,208,cs),
(757,198,o),
(765,183,o),
(765,162,cs),
(765,127,o),
(749,110,o),
(714,110,cs),
(701,110,o),
(689,112,o),
(673,116,c),
(650,0,l),
(675,-7,o),
(711,-12,o),
(738,-12,cs),
(865,-12,o),
(923,45,o),
(923,148,cs),
(923,215,o),
(889,265,o),
(836,287,c),
(830,278,l),
(888,306,o),
(915,345,o),
(915,414,cs),
(915,509,o),
(848,581,o),
(712,581,cs)
);
}
);
width = 951;
}
);
script = malayalam;
subCategory = Other;
unicode = 3353;
},
{
category = Letter;
glyphname = camlym;
lastChange = "2023-03-20 12:00:14 +0000";
layers = (
{
anchors = (
{
name = bottom;
pos = (434,0);
},
{
name = top;
pos = (434,546);
}
);
layerId = "4D83A9DC-8FB7-446F-9A35-7DCC3E64AC98";
shapes = (
{
closed = 1;
nodes = (
(763,546,l),
(763,26,l),
(395,26,l),
(406,15,l),
(440,50,o),
(479,93,o),
(479,176,cs),
(479,280,o),
(418,344,o),
(325,344,cs),
(235,344,o),
(168,285,o),
(168,185,cs),
(168,161,o),
(171,144,o),
(175,125,c),
(201,130,l),
(197,148,o),
(195,162,o),
(195,184,cs),
(195,266,o),
(241,318,o),
(325,318,cs),
(404,318,o),
(452,266,o),
(452,176,cs),
(452,98,o),
(413,52,o),
(371,14,c),
(389,26,l),
(15,26,l),
(15,0,l),
(789,0,l),
(789,546,l)
);
}
);
width = 868;
},
{
anchors = (
{
name = bottom;
pos = (355,0);
},
{
name = top;
pos = (466,554);
}
);
layerId = "EAD1E2BE-4A7F-4E9C-B677-063429CCD35D";
shapes = (
{
closed = 1;
nodes = (
(776,554,l),
(776,70,l),
(460,70,l),
(485,54,l),
(513,82,o),
(539,127,o),
(539,185,cs),
(539,275,o),
(487,365,o),
(354,365,cs),
(236,365,o),
(161,296,o),
(161,194,cs),
(161,172,o),
(164,148,o),
(167,135,c),
(250,146,l),
(248,155,o),
(247,167,o),
(247,185,cs),
(247,252,o),
(283,295,o),
(351,295,cs),
(419,295,o),
(455,248,o),
(455,179,cs),
(455,115,o),
(421,77,o),
(394,58,c),
(448,70,l),
(17,70,l),
(17,0,l),
(862,0,l),
(862,554,l)
);
}
);
width = 933;
},
{
anchors = (
{
name = bottom;
pos = (507,0);
},
{
name = top;
pos = (507,562);
}
);
layerId = "1D67CB39-8CE8-4679-A081-F58F86CEB03B";
shapes = (
{
closed = 1;
nodes = (
(805,562,l),
(805,105,l),
(527,105,l),
(554,86,l),
(584,119,o),
(604,158,o),
(604,208,cs),
(604,288,o),
(558,386,o),
(385,386,cs),
(238,386,o),
(159,317,o),
(159,207,cs),
(159,189,o),
(162,166,o),
(164,151,c),
(306,162,l),
(305,171,o),
(304,180,o),
(304,193,cs),
(304,248,o),
(330,282,o),
(385,282,cs),
(438,282,o),
(461,247,o),
(461,194,cs),
(461,141,o),
(432,105,o),
(401,88,c),
(476,105,l),
(20,105,l),
(20,0,l),
(952,0,l),
(952,562,l)
);
}
);
width = 1015;
},
{
anchors = (
{
name = bottom;
pos = (355,0);
},
{
name = top;
pos = (355,554);
}
);
layerId = "C7FB44D8-0AA6-40A2-9E07-7E0254BA0D6B";
shapes = (
{
closed = 1;
nodes = (
(572,554,l),
(572,66,l),
(337,66,l),
(355,46,l),
(385,84,o),
(411,131,o),
(411,201,cs),
(411,284,o),
(374,365,o),
(263,365,cs),
(173,365,o),
(114,306,o),
(114,206,cs),
(114,182,o),
(118,160,o),
(121,147,c),
(197,157,l),
(195,166,o),
(193,186,o),
(193,200,cs),
(193,265,o),
(220,299,o),
(264,299,cs),
(309,299,o),
(334,259,o),
(334,198,cs),
(334,130,o),
(304,81,o),
(272,50,c),
(317,66,l),
(16,66,l),
(16,0,l),
(651,0,l),
(651,554,l)
);
}
);
width = 710;
},
{
anchors = (
{
name = bottom;
pos = (326,0);
},
{
name = top;
pos = (326,546);
}
);
layerId = UUID0;
shapes = (
{
closed = 1;
nodes = (
(562,546,l),
(562,26,l),
(287,26,l),
(297,15,l),
(325,53,o),
(359,115,o),
(359,193,cs),
(359,287,o),
(313,344,o),
(239,344,cs),
(174,344,o),
(121,294,o),
(121,195,cs),
(121,176,o),
(124,155,o),
(127,136,c),
(152,139,l),
(149,158,o),
(148,179,o),
(148,195,cs),
(148,275,o),
(183,318,o),
(240,318,cs),
(297,318,o),
(332,275,o),
(332,193,cs),
(332,122,o),
(302,60,o),
(265,14,c),
(282,26,l),
(17,26,l),
(17,0,l),
(588,0,l),
(588,546,l)
);
}
);
width = 653;
},
{
anchors = (
{
name = bottom;
pos = (526,0);
},
{
name = top;
pos = (526,569);
}
);
layerId = "43C3EF94-D8C4-4226-80FB-D661263DD944";
shapes = (
{
closed = 1;
nodes = (
(811,569,l),
(811,128,l),
(564,128,l),
(590,102,l),
(622,138,o),
(640,179,o),
(640,226,cs),
(640,297,o),
(591,400,o),
(400,400,cs),
(235,400,o),
(154,331,o),
(154,212,cs),
(154,201,o),
(155,175,o),
(158,158,c),
(341,173,l),
(340,182,o),
(339,189,o),
(339,199,cs),
(339,246,o),
(360,273,o),
(399,273,cs),
(445,273,o),
(462,242,o),
(462,203,cs),
(462,161,o),
(442,128,o),
(404,100,c),
(491,128,l),
(20,128,l),
(20,0,l),
(998,0,l),
(998,569,l)
);
}
);
width = 1053;
},
{
anchors = (
{
name = bottom;
pos = (402,0);
},
{
name = top;
pos = (402,569);
}
);
layerId = "7D50CFCE-8270-4149-A6BB-939E1A586542";
shapes = (
{
closed = 1;
nodes = (
(598,569,l),
(598,122,l),
(434,122,l),
(452,100,l),
(476,136,o),
(490,179,o),
(490,225,cs),
(490,297,o),
(454,400,o),
(302,400,cs),
(172,400,o),
(109,331,o),
(109,225,cs),
(109,201,o),
(111,180,o),
(115,163,c),
(269,178,l),
(268,188,o),
(265,201,o),
(265,222,cs),
(265,253,o),
(277,278,o),
(302,278,cs),
(329,278,o),
(340,256,o),
(340,217,cs),
(340,173,o),
(322,127,o),
(297,100,c),
(368,122,l),
(19,122,l),
(19,0,l),
(756,0,l),
(756,569,l)
);
}
);
width = 804;
}
);
script = malayalam;
subCategory = Other;
unicode = 3354;
},
{
category = Letter;
glyphname = chamlym;
lastChange = "2023-03-20 12:00:13 +0000";
layers = (
{
anchors = (
{
name = bottom;
pos = (633,0);
},
{
name = top;
pos = (633,546);
}
);
layerId = "4D83A9DC-8FB7-446F-9A35-7DCC3E64AC98";
shapes = (
{
closed = 1;
nodes = (
(235,344,o),
(168,285,o),
(168,185,cs),
(168,161,o),
(171,144,o),
(175,125,c),
(201,130,l),
(197,148,o),
(195,162,o),
(195,184,cs),
(195,266,o),
(241,318,o),
(325,318,cs),
(404,318,o),
(452,266,o),
(452,176,cs),
(452,98,o),
(413,52,o),
(371,14,c),
(389,26,l),
(15,26,l),
(15,0,l),
(764,0,l),
(765,26,l),
(395,26,l),
(406,15,l),
(440,50,o),
(479,93,o),
(479,176,cs),
(479,280,o),
(418,344,o),
(325,344,cs)
);
},
{
closed = 1;
nodes = (
(734,558,o),
(637,424,o),
(637,278,cs),
(637,131,o),
(706,62,o),
(752,22,c),
(759,0,l),
(777,0,l),
(789,21,l),
(711,80,o),
(664,157,o),
(664,276,cs),
(664,446,o),
(784,532,o),
(925,532,cs),
(1105,532,o),
(1179,414,o),
(1195,291,cs),
(1196,285,o),
(1195,277,o),
(1195,271,cs),
(1195,265,o),
(1196,259,o),
(1196,244,cs),
(1196,83,o),
(1140,14,o),
(1044,14,cs),
(942,14,o),
(905,92,o),
(905,189,cs),
(905,290,o),
(955,354,o),
(1052,354,cs),
(1130,354,o),
(1181,295,o),
(1206,243,c),
(1218,257,l),
(1187,324,o),
(1136,380,o),
(1051,380,cs),
(951,380,o),
(878,314,o),
(878,187,cs),
(878,76,o),
(928,-12,o),
(1042,-12,cs),
(1148,-12,o),
(1222,61,o),
(1222,243,cs),
(1222,424,o),
(1120,558,o),
(925,558,cs)
);
}
);
width = 1267;
},
{
anchors = (
{
name = bottom;
pos = (509,0);
},
{
name = top;
pos = (674,554);
}
);
layerId = "EAD1E2BE-4A7F-4E9C-B677-063429CCD35D";
shapes = (
{
closed = 1;
nodes = (
(236,365,o),
(161,296,o),
(161,194,cs),
(161,172,o),
(164,148,o),
(167,135,c),
(250,146,l),
(248,155,o),
(247,167,o),
(247,185,cs),
(247,252,o),
(283,295,o),
(351,295,cs),
(419,295,o),
(455,248,o),
(455,179,cs),
(455,115,o),
(421,77,o),
(394,58,c),
(448,70,l),
(17,70,l),
(17,0,l),
(790,0,l),
(775,70,l),
(460,70,l),
(485,54,l),
(513,82,o),
(539,127,o),
(539,185,cs),
(539,275,o),
(487,365,o),
(354,365,cs)
);
},
{
closed = 1;
nodes = (
(750,566,o),
(652,427,o),
(652,277,cs),
(652,172,o),
(705,90,o),
(758,43,c),
(774,0,l),
(816,0,l),
(852,54,l),
(794,106,o),
(741,161,o),
(741,273,cs),
(741,414,o),
(832,494,o),
(977,494,cs),
(1118,494,o),
(1198,420,o),
(1217,335,c),
(1220,330,o),
(1218,317,o),
(1220,310,cs),
(1225,283,o),
(1227,251,o),
(1227,248,cs),
(1227,112,o),
(1179,58,o),
(1098,58,cs),
(1020,58,o),
(988,115,o),
(988,198,cs),
(988,279,o),
(1025,334,o),
(1108,334,cs),
(1188,334,o),
(1241,270,o),
(1256,209,c),
(1281,206,l),
(1276,305,o),
(1203,404,o),
(1091,404,cs),
(977,404,o),
(904,322,o),
(904,196,cs),
(904,86,o),
(968,-12,o),
(1098,-12,cs),
(1218,-12,o),
(1310,63,o),
(1310,242,cs),
(1310,429,o),
(1199,566,o),
(977,566,cs)
);
}
);
width = 1349;
},
{
anchors = (
{
name = bottom;
pos = (738,0);
},
{
name = top;
pos = (738,562);
}
);
layerId = "1D67CB39-8CE8-4679-A081-F58F86CEB03B";
shapes = (
{
closed = 1;
nodes = (
(238,386,o),
(159,317,o),
(159,207,cs),
(159,189,o),
(162,165,o),
(164,151,c),
(306,162,l),
(305,171,o),
(304,180,o),
(304,193,cs),
(304,248,o),
(330,282,o),
(385,282,cs),
(438,282,o),
(461,247,o),
(461,194,cs),
(461,141,o),
(432,105,o),
(401,88,c),
(476,105,l),
(20,105,l),
(20,0,l),
(880,0,l),
(801,105,l),
(527,105,l),
(554,86,l),
(584,119,o),
(604,158,o),
(604,208,cs),
(604,288,o),
(558,386,o),
(385,386,cs)
);
},
{
closed = 1;
nodes = (
(801,574,o),
(695,436,o),
(695,287,cs),
(695,168,o),
(752,93,o),
(821,22,c),
(845,0,l),
(895,0,l),
(940,64,l),
(883,126,o),
(845,191,o),
(845,281,cs),
(845,393,o),
(916,467,o),
(1068,467,cs),
(1197,467,o),
(1273,403,o),
(1287,329,c),
(1290,324,o),
(1288,313,o),
(1290,307,c),
(1294,284,o),
(1296,258,o),
(1296,239,cs),
(1296,137,o),
(1261,93,o),
(1205,93,cs),
(1146,93,o),
(1121,137,o),
(1121,202,cs),
(1121,269,o),
(1149,310,o),
(1214,310,cs),
(1276,310,o),
(1319,257,o),
(1331,207,c),
(1386,204,l),
(1380,307,o),
(1297,410,o),
(1178,410,cs),
(1048,410,o),
(978,327,o),
(978,206,cs),
(978,88,o),
(1042,-12,o),
(1198,-12,cs),
(1348,-12,o),
(1440,65,o),
(1440,236,cs),
(1440,423,o),
(1314,574,o),
(1052,574,cs)
);
}
);
width = 1477;
},
{
anchors = (
{
name = bottom;
pos = (509,0);
},
{
name = top;
pos = (509,554);
}
);
layerId = "C7FB44D8-0AA6-40A2-9E07-7E0254BA0D6B";
shapes = (
{
closed = 1;
nodes = (
(173,365,o),
(114,306,o),
(114,206,cs),
(114,182,o),
(118,160,o),
(121,147,c),
(197,157,l),
(195,166,o),
(193,186,o),
(193,200,cs),
(193,265,o),
(220,299,o),
(264,299,cs),
(309,299,o),
(334,259,o),
(334,198,cs),
(334,130,o),
(304,81,o),
(272,50,c),
(317,66,l),
(16,66,l),
(16,0,l),
(599,0,l),
(572,66,l),
(337,66,l),
(355,46,l),
(385,84,o),
(411,131,o),
(411,201,cs),
(411,284,o),
(374,365,o),
(263,365,cs)
);
},
{
closed = 1;
nodes = (
(566,566,o),
(486,440,o),
(486,288,cs),
(486,187,o),
(515,109,o),
(559,54,c),
(568,0,l),
(607,0,l),
(647,55,l),
(598,108,o),
(568,184,o),
(568,281,cs),
(568,414,o),
(628,498,o),
(733,498,cs),
(831,498,o),
(887,420,o),
(899,335,c),
(902,330,o),
(899,317,o),
(901,310,c),
(904,283,o),
(906,251,o),
(906,248,cs),
(906,107,o),
(875,53,o),
(823,53,cs),
(774,53,o),
(752,106,o),
(752,198,cs),
(752,284,o),
(776,337,o),
(831,337,cs),
(883,337,o),
(915,282,o),
(927,249,c),
(954,266,l),
(915,358,o),
(883,402,o),
(813,402,cs),
(726,402,o),
(674,331,o),
(674,199,cs),
(674,78,o),
(720,-12,o),
(822,-12,cs),
(916,-12,o),
(982,51,o),
(982,242,cs),
(982,436,o),
(898,566,o),
(728,566,cs)
);
}
);
width = 1018;
},
{
anchors = (
{
name = bottom;
pos = (470,0);
},
{
name = top;
pos = (470,546);
}
);
layerId = UUID0;
shapes = (
{
closed = 1;
nodes = (
(174,344,o),
(121,294,o),
(121,195,cs),
(121,176,o),
(124,155,o),
(127,136,c),
(152,139,l),
(149,158,o),
(148,179,o),
(148,195,cs),
(148,275,o),
(183,318,o),
(240,318,cs),
(297,318,o),
(332,275,o),
(332,193,cs),
(332,122,o),
(302,60,o),
(265,14,c),
(282,26,l),
(17,26,l),
(17,0,l),
(579,0,l),
(580,26,l),
(287,26,l),
(297,15,l),
(325,53,o),
(359,115,o),
(359,193,cs),
(359,287,o),
(313,344,o),
(239,344,cs)
);
},
{
closed = 1;
nodes = (
(544,558,o),
(471,439,o),
(471,291,cs),
(471,137,o),
(530,63,o),
(564,21,c),
(567,0,l),
(584,0,l),
(596,21,l),
(549,72,o),
(498,153,o),
(498,291,cs),
(498,420,o),
(556,532,o),
(681,532,cs),
(805,532,o),
(851,426,o),
(870,314,cs),
(871,308,o),
(870,309,o),
(869,306,c),
(871,295,o),
(872,259,o),
(872,236,cs),
(872,66,o),
(833,14,o),
(771,14,cs),
(697,14,o),
(671,80,o),
(671,188,cs),
(671,297,o),
(703,354,o),
(774,354,cs),
(831,354,o),
(860,316,o),
(886,271,c),
(891,295,l),
(870,339,o),
(833,380,o),
(772,380,cs),
(696,380,o),
(644,321,o),
(644,189,cs),
(644,64,o),
(682,-12,o),
(770,-12,cs),
(845,-12,o),
(898,41,o),
(898,236,cs),
(898,428,o),
(825,558,o),
(681,558,cs)
);
}
);
width = 940;
},
{
anchors = (
{
name = bottom;
pos = (766,0);
},
{
name = top;
pos = (766,569);
}
);
layerId = "43C3EF94-D8C4-4226-80FB-D661263DD944";
shapes = (
{
closed = 1;
nodes = (
(235,400,o),
(154,331,o),
(154,212,cs),
(154,201,o),
(155,175,o),
(158,158,c),
(341,173,l),
(340,182,o),
(339,189,o),
(339,199,cs),
(339,246,o),
(360,273,o),
(399,273,cs),
(445,273,o),
(462,242,o),
(462,203,cs),
(462,161,o),
(442,128,o),
(404,100,c),
(491,128,l),
(20,128,l),
(20,0,l),
(915,0,l),
(811,128,l),
(564,128,l),
(590,102,l),
(622,138,o),
(640,179,o),
(640,226,cs),
(640,297,o),
(591,400,o),
(400,400,cs)
);
},
{
closed = 1;
nodes = (
(806,581,o),
(709,426,o),
(709,284,cs),
(709,197,o),
(740,134,o),
(808,65,c),
(845,0,l),
(920,0,l),
(979,84,l),
(930,146,o),
(899,203,o),
(899,281,cs),
(899,388,o),
(969,451,o),
(1103,451,cs),
(1229,451,o),
(1303,396,o),
(1314,329,c),
(1317,324,o),
(1311,310,o),
(1313,305,c),
(1316,285,o),
(1318,262,o),
(1318,242,cs),
(1318,153,o),
(1292,116,o),
(1242,116,cs),
(1205,116,o),
(1179,143,o),
(1179,205,cs),
(1179,265,o),
(1205,295,o),
(1253,295,cs),
(1306,295,o),
(1339,251,o),
(1349,203,c),
(1422,205,l),
(1414,305,o),
(1332,410,o),
(1207,410,cs),
(1075,410,o),
(999,331,o),
(999,205,cs),
(999,89,o),
(1068,-12,o),
(1239,-12,cs),
(1409,-12,o),
(1501,77,o),
(1501,237,cs),
(1501,418,o),
(1372,581,o),
(1089,581,cs)
);
}
);
width = 1532;
},
{
anchors = (
{
name = bottom;
pos = (588,0);
},
{
name = top;
pos = (588,569);
}
);
layerId = "7D50CFCE-8270-4149-A6BB-939E1A586542";
shapes = (
{
closed = 1;
nodes = (
(172,400,o),
(109,331,o),
(109,225,cs),
(109,201,o),
(111,180,o),
(115,163,c),
(269,178,l),
(268,188,o),
(265,201,o),
(265,222,cs),
(265,253,o),
(277,278,o),
(302,278,cs),
(329,278,o),
(340,256,o),
(340,217,cs),
(340,173,o),
(322,127,o),
(297,100,c),
(368,122,l),
(19,122,l),
(19,0,l),
(654,0,l),
(622,122,l),
(434,122,l),
(452,100,l),
(476,136,o),
(490,179,o),
(490,225,cs),
(490,297,o),
(454,400,o),
(302,400,cs)
);
},
{
closed = 1;
nodes = (
(624,581,o),
(534,448,o),
(534,306,cs),
(534,202,o),
(572,125,o),
(617,65,c),
(632,0,l),
(685,0,l),
(758,74,l),
(725,136,o),
(695,203,o),
(695,289,cs),
(695,397,o),
(745,457,o),
(839,457,cs),
(919,457,o),
(976,395,o),
(985,332,cs),
(986,327,o),
(987,310,o),
(987,305,cs),
(989,285,o),
(991,262,o),
(991,231,cs),
(991,130,o),
(977,108,o),
(948,108,cs),
(927,108,o),
(911,130,o),
(911,201,cs),
(911,275,o),
(927,298,o),
(955,298,cs),
(988,298,o),
(1006,265,o),
(1014,216,c),
(1075,222,l),
(1059,311,o),
(1006,407,o),
(917,407,cs),
(816,407,o),
(758,338,o),
(758,203,cs),
(758,82,o),
(810,-12,o),
(944,-12,cs),
(1079,-12,o),
(1146,64,o),
(1146,237,cs),
(1146,423,o),
(1049,581,o),
(836,581,cs)
);
}
);
width = 1176;
}
);
script = malayalam;
subCategory = Other;
unicode = 3355;
},
{
category = Letter;
glyphname = jamlym;
lastChange = "2023-03-20 12:00:12 +0000";
layers = (
{
anchors = (
{
name = bottom;
pos = (438,0);
},
{
name = top;
pos = (438,546);
}
);
layerId = "4D83A9DC-8FB7-446F-9A35-7DCC3E64AC98";
shapes = (
{
closed = 1;
nodes = (
(123,558,o),
(44,476,o),
(44,384,cs),
(44,297,o),
(85,246,o),
(169,246,cs),
(250,246,o),
(289,303,o),
(289,364,cs),
(289,418,o),
(254,475,o),
(169,475,cs),
(126,475,o),
(90,457,o),
(60,432,c),
(53,402,l),
(92,436,o),
(127,450,o),
(167,450,cs),
(232,450,o),
(262,412,o),
(262,363,cs),
(262,323,o),
(243,272,o),
(169,272,cs),
(109,272,o),
(70,301,o),
(70,384,cs),
(70,401,o),
(73,417,o),
(79,432,c),
(81,436,o),
(79,440,o),
(81,444,c),
(115,502,o),
(184,532,o),
(276,532,cs),
(326,532,o),
(361,524,o),
(396,500,cs),
(445,466,o),
(465,408,o),
(465,336,cs),
(465,258,l),
(491,258,l),
(491,337,ls),
(491,400,o),
(502,461,o),
(544,498,cs),
(570,521,o),
(601,532,o),
(647,532,cs),
(763,532,o),
(805,455,o),
(805,382,cs),
(805,328,o),
(790,286,o),
(753,258,cs),
(715,229,o),
(653,213,o),
(544,213,cs),
(212,213,ls),
(138,213,o),
(97,204,o),
(67,174,cs),
(49,156,o),
(39,135,o),
(39,105,cs),
(39,12,o),
(115,-12,o),
(178,-12,cs),
(275,-12,o),
(329,17,o),
(436,77,cs),
(517,122,o),
(553,148,o),
(587,174,c),
(595,173,l),
(616,190,o),
(651,202,o),
(682,202,cs),
(735,202,o),
(779,176,o),
(779,109,cs),
(779,44,o),
(739,14,o),
(685,14,cs),
(617,14,o),
(586,53,o),
(586,116,cs),
(586,161,o),
(606,190,o),
(630,211,c),
(607,211,l),
(575,175,o),
(561,154,o),
(561,113,cs),
(561,51,o),
(591,-12,o),
(685,-12,cs),
(748,-12,o),
(806,26,o),
(806,109,cs),
(806,186,o),
(754,222,o),
(690,222,cs),
(673,222,o),
(636,216,o),
(614,204,c),
(572,187,o),
(545,171,o),
(414,94,cs),
(326,42,o),
(262,14,o),
(178,14,cs),
(109,14,o),
(66,41,o),
(66,104,cs),
(66,127,o),
(73,145,o),
(86,157,cs),
(111,181,o),
(150,187,o),
(215,187,cs),
(508,187,ls),
(584,187,o),
(619,195,o),
(648,203,c),
(681,214,l),
(716,212,l),
(810,244,o),
(832,313,o),
(832,382,cs),
(832,473,o),
(775,558,o),
(647,558,cs),
(554,558,o),
(486,509,o),
(470,392,c),
(480,405,l),
(456,510,o),
(388,558,o),
(277,558,cs)
);
}
);
width = 877;
},
{
anchors = (
{
name = bottom;
pos = (356,0);
},
{
name = top;
pos = (469,554);
}
);
layerId = "EAD1E2BE-4A7F-4E9C-B677-063429CCD35D";
shapes = (
{
closed = 1;
nodes = (
(131,566,o),
(43,486,o),
(43,385,cs),
(43,292,o),
(97,240,o),
(195,240,cs),
(299,240,o),
(342,299,o),
(342,366,cs),
(342,424,o),
(305,478,o),
(212,478,cs),
(156,478,o),
(108,451,o),
(75,415,c),
(71,373,l),
(96,401,o),
(137,430,o),
(192,430,cs),
(242,430,o),
(266,407,o),
(266,367,cs),
(266,335,o),
(250,300,o),
(194,300,cs),
(147,300,o),
(115,322,o),
(115,381,cs),
(115,398,o),
(117,409,o),
(124,430,c),
(126,439,o),
(130,450,o),
(136,456,c),
(172,489,o),
(219,499,o),
(294,499,cs),
(360,499,o),
(393,486,o),
(417,467,cs),
(458,433,o),
(467,381,o),
(467,323,cs),
(467,259,l),
(550,259,l),
(550,310,ls),
(550,392,o),
(558,431,o),
(582,459,cs),
(602,483,o),
(634,496,o),
(677,496,cs),
(781,496,o),
(813,427,o),
(813,373,cs),
(813,332,o),
(801,299,o),
(775,276,cs),
(740,245,o),
(683,233,o),
(572,233,cs),
(225,233,ls),
(152,233,o),
(116,223,o),
(89,206,cs),
(53,184,o),
(38,149,o),
(38,113,cs),
(38,18,o),
(117,-12,o),
(199,-12,cs),
(304,-12,o),
(408,24,o),
(520,81,cs),
(568,105,o),
(600,129,o),
(626,155,c),
(632,146,l),
(661,168,o),
(687,181,o),
(722,181,cs),
(758,181,o),
(797,166,o),
(797,115,cs),
(797,80,o),
(778,50,o),
(725,50,cs),
(678,50,o),
(645,72,o),
(645,124,cs),
(645,176,o),
(669,204,o),
(690,217,c),
(638,198,l),
(600,186,o),
(576,158,o),
(576,119,cs),
(576,56,o),
(612,-12,o),
(726,-12,cs),
(818,-12,o),
(873,33,o),
(873,115,cs),
(873,197,o),
(809,229,o),
(735,229,cs),
(690,229,o),
(681,209,o),
(621,188,c),
(560,173,o),
(504,147,o),
(444,121,cs),
(374,90,o),
(291,56,o),
(199,56,cs),
(168,56,o),
(121,63,o),
(121,114,cs),
(121,132,o),
(128,146,o),
(149,156,cs),
(165,163,o),
(188,166,o),
(242,166,cs),
(439,166,ls),
(477,166,o),
(537,168,o),
(574,173,c),
(636,181,l),
(801,216,l),
(867,250,o),
(899,296,o),
(899,377,cs),
(899,470,o),
(833,566,o),
(685,566,cs),
(590,566,o),
(541,526,o),
(501,470,c),
(531,458,l),
(476,535,o),
(407,566,o),
(297,566,cs)
);
}
);
width = 939;
},
{
anchors = (
{
name = bottom;
pos = (503,0);
},
{
name = top;
pos = (503,562);
}
);
layerId = "1D67CB39-8CE8-4679-A081-F58F86CEB03B";
shapes = (
{
closed = 1;
nodes = (
(138,574,o),
(39,500,o),
(39,387,cs),
(39,297,o),
(107,244,o),
(210,244,cs),
(332,244,o),
(377,304,o),
(377,368,cs),
(377,438,o),
(325,480,o),
(239,480,cs),
(178,480,o),
(109,463,o),
(76,429,c),
(124,410,l),
(145,417,o),
(173,425,o),
(201,425,cs),
(240,425,o),
(261,406,o),
(261,375,cs),
(261,351,o),
(248,327,o),
(208,327,cs),
(176,327,o),
(151,341,o),
(151,386,cs),
(151,404,o),
(155,420,o),
(164,433,c),
(167,438,o),
(168,447,o),
(173,451,cs),
(202,478,o),
(265,483,o),
(313,483,cs),
(373,483,o),
(409,468,o),
(430,449,cs),
(467,417,o),
(474,376,o),
(474,306,cs),
(474,264,l),
(607,264,l),
(607,334,ls),
(607,392,o),
(613,422,o),
(633,444,cs),
(647,460,o),
(671,471,o),
(706,471,cs),
(793,471,o),
(830,420,o),
(830,361,cs),
(830,308,o),
(808,275,o),
(763,257,cs),
(722,240,o),
(668,237,o),
(561,237,cs),
(253,237,ls),
(167,237,o),
(122,229,o),
(87,209,cs),
(52,189,o),
(33,157,o),
(33,113,cs),
(33,19,o),
(111,-12,o),
(210,-12,cs),
(323,-12,o),
(399,8,o),
(521,53,cs),
(604,83,o),
(655,122,o),
(678,145,c),
(676,120,l),
(709,146,o),
(733,159,o),
(767,159,cs),
(803,159,o),
(823,144,o),
(823,115,cs),
(823,91,o),
(807,73,o),
(766,73,cs),
(729,73,o),
(709,89,o),
(709,130,cs),
(709,181,o),
(753,208,o),
(773,221,c),
(653,220,l),
(626,208,o),
(594,172,o),
(594,121,cs),
(594,54,o),
(640,-12,o),
(770,-12,cs),
(882,-12,o),
(942,32,o),
(942,114,cs),
(942,206,o),
(860,234,o),
(781,234,cs),
(732,234,o),
(737,204,o),
(668,185,c),
(614,176,o),
(514,148,o),
(423,120,cs),
(342,95,o),
(288,81,o),
(220,81,cs),
(182,81,o),
(164,92,o),
(164,114,cs),
(164,123,o),
(167,129,o),
(173,134,cs),
(185,143,o),
(203,146,o),
(242,146,cs),
(397,146,ls),
(438,146,o),
(491,146,o),
(529,151,c),
(651,159,l),
(869,193,l),
(938,233,o),
(969,285,o),
(969,370,cs),
(969,471,o),
(901,574,o),
(724,574,cs),
(640,574,o),
(575,551,o),
(525,499,c),
(565,492,l),
(508,544,o),
(441,574,o),
(319,574,cs)
);
}
);
width = 1007;
},
{
anchors = (
{
name = bottom;
pos = (356,0);
},
{
name = top;
pos = (356,554);
}
);
layerId = "C7FB44D8-0AA6-40A2-9E07-7E0254BA0D6B";
shapes = (
{
closed = 1;
nodes = (
(108,566,o),
(39,488,o),
(39,383,cs),
(39,290,o),
(83,240,o),
(155,240,cs),
(234,240,o),
(269,290,o),
(269,365,cs),
(269,437,o),
(234,479,o),
(171,479,cs),
(128,479,o),
(91,458,o),
(64,424,c),
(77,393,l),
(93,413,o),
(121,432,o),
(150,432,cs),
(183,432,o),
(199,413,o),
(199,368,cs),
(199,333,o),
(189,297,o),
(153,297,cs),
(124,297,o),
(103,318,o),
(103,377,cs),
(103,400,o),
(105,419,o),
(112,434,cs),
(114,440,o),
(113,451,o),
(117,456,cs),
(140,486,o),
(180,502,o),
(227,502,cs),
(270,502,o),
(297,490,o),
(315,469,cs),
(342,437,o),
(346,392,o),
(346,332,cs),
(346,261,l),
(421,261,l),
(421,337,ls),
(421,400,o),
(426,453,o),
(453,481,cs),
(465,493,o),
(480,501,o),
(507,501,cs),
(573,501,o),
(594,436,o),
(594,374,cs),
(594,320,o),
(577,285,o),
(549,263,cs),
(514,236,o),
(466,231,o),
(402,231,cs),
(213,231,ls),
(138,231,o),
(110,223,o),
(84,208,cs),
(48,187,o),
(31,153,o),
(31,108,cs),
(31,24,o),
(92,-12,o),
(167,-12,cs),
(232,-12,o),
(283,10,o),
(365,71,cs),
(404,100,o),
(435,128,o),
(456,148,c),
(469,142,l),
(495,165,o),
(514,179,o),
(537,179,cs),
(571,179,o),
(587,155,o),
(587,114,cs),
(587,76,o),
(575,47,o),
(538,47,cs),
(510,47,o),
(491,66,o),
(491,116,cs),
(491,163,o),
(508,192,o),
(526,215,c),
(476,217,l),
(440,191,o),
(428,159,o),
(428,113,cs),
(428,51,o),
(456,-12,o),
(542,-12,cs),
(614,-12,o),
(657,37,o),
(657,110,cs),
(657,201,o),
(605,228,o),
(550,228,cs),
(520,228,o),
(455,194,o),
(427,180,c),
(397,166,o),
(373,153,o),
(324,120,cs),
(237,61,o),
(213,53,o),
(170,53,cs),
(135,53,o),
(110,75,o),
(110,111,cs),
(110,131,o),
(119,145,o),
(136,155,cs),
(151,163,o),
(169,168,o),
(226,168,cs),
(325,168,ls),
(380,168,o),
(429,174,o),
(460,179,c),
(515,192,l),
(570,204,l),
(632,234,o),
(674,286,o),
(674,378,cs),
(674,476,o),
(625,566,o),
(514,566,cs),
(452,566,o),
(405,541,o),
(366,466,c),
(397,475,l),
(357,532,o),
(316,566,o),
(230,566,cs)
);
}
);
width = 712;
},
{
anchors = (
{
name = bottom;
pos = (329,0);
},
{
name = top;
pos = (329,546);
}
);
layerId = UUID0;
shapes = (
{
closed = 1;
nodes = (
(100,558,o),
(40,479,o),
(40,380,cs),
(40,291,o),
(81,246,o),
(139,246,cs),
(195,246,o),
(235,291,o),
(235,368,cs),
(235,427,o),
(201,475,o),
(141,475,cs),
(109,475,o),
(74,454,o),
(53,429,c),
(50,399,l),
(79,433,o),
(108,450,o),
(140,450,cs),
(182,450,o),
(205,422,o),
(205,364,cs),
(205,314,o),
(189,272,o),
(139,272,cs),
(101,272,o),
(66,298,o),
(66,380,cs),
(66,397,o),
(68,414,o),
(72,429,cs),
(73,433,o),
(74,437,o),
(75,441,cs),
(95,498,o),
(141,532,o),
(208,532,cs),
(247,532,o),
(275,523,o),
(296,504,cs),
(330,473,o),
(342,423,o),
(342,334,cs),
(342,258,l),
(368,258,l),
(368,338,ls),
(368,428,o),
(378,473,o),
(409,506,cs),
(424,522,o),
(444,532,o),
(479,532,cs),
(560,532,o),
(592,453,o),
(592,379,cs),
(592,320,o),
(575,279,o),
(543,253,cs),
(509,225,o),
(462,213,o),
(374,213,cs),
(197,213,ls),
(130,213,o),
(94,204,o),
(66,180,cs),
(44,162,o),
(32,136,o),
(32,102,cs),
(32,23,o),
(87,-12,o),
(144,-12,cs),
(209,-12,o),
(250,10,o),
(327,75,cs),
(407,143,o),
(429,166,o),
(447,183,c),
(450,177,l),
(470,195,o),
(490,203,o),
(508,203,cs),
(539,203,o),
(576,188,o),
(576,110,cs),
(576,40,o),
(553,14,o),
(507,14,cs),
(461,14,o),
(439,48,o),
(439,105,cs),
(439,150,o),
(453,184,o),
(472,210,c),
(455,213,l),
(426,174,o),
(414,148,o),
(414,105,cs),
(414,41,o),
(441,-12,o),
(507,-12,cs),
(561,-12,o),
(603,20,o),
(603,110,cs),
(603,188,o),
(565,222,o),
(514,222,cs),
(494,222,o),
(479,218,o),
(458,206,c),
(411,181,o),
(395,169,o),
(309,94,cs),
(238,32,o),
(199,14,o),
(145,14,cs),
(98,14,o),
(59,38,o),
(59,102,cs),
(59,131,o),
(69,150,o),
(86,163,cs),
(111,182,o),
(145,187,o),
(201,187,cs),
(366,187,ls),
(404,187,o),
(432,190,o),
(455,195,c),
(489,205,l),
(524,215,l),
(585,240,o),
(619,293,o),
(619,381,cs),
(619,473,o),
(570,558,o),
(479,558,cs),
(412,558,o),
(357,519,o),
(348,404,c),
(359,416,l),
(346,520,o),
(289,558,o),
(209,558,cs)
);
}
);
width = 659;
},
{
anchors = (
{
name = bottom;
pos = (532,0);
},
{
name = top;
pos = (532,569);
}
);
layerId = "43C3EF94-D8C4-4226-80FB-D661263DD944";
shapes = (
{
closed = 1;
nodes = (
(137,581,o),
(33,511,o),
(33,396,cs),
(33,293,o),
(108,247,o),
(217,247,cs),
(356,247,o),
(396,307,o),
(396,369,cs),
(396,447,o),
(334,480,o),
(246,480,cs),
(189,480,o),
(141,467,o),
(93,439,c),
(143,407,l),
(166,417,o),
(188,420,o),
(209,420,cs),
(237,420,o),
(254,405,o),
(254,380,cs),
(254,361,o),
(243,344,o),
(214,344,cs),
(191,344,o),
(172,356,o),
(172,393,cs),
(172,408,o),
(175,422,o),
(183,433,cs),
(185,437,o),
(187,445,o),
(191,448,cs),
(216,463,o),
(266,472,o),
(326,472,cs),
(379,472,o),
(413,459,o),
(437,439,cs),
(473,409,o),
(480,364,o),
(480,296,cs),
(480,269,l),
(646,269,l),
(646,333,ls),
(646,387,o),
(656,415,o),
(671,432,cs),
(686,448,o),
(707,455,o),
(741,455,cs),
(810,455,o),
(848,415,o),
(848,357,cs),
(848,309,o),
(830,281,o),
(788,264,cs),
(746,247,o),
(708,244,o),
(610,244,cs),
(267,244,ls),
(178,244,o),
(121,240,o),
(77,212,cs),
(47,193,o),
(27,164,o),
(27,118,cs),
(27,20,o),
(110,-12,o),
(218,-12,cs),
(317,-12,o),
(421,2,o),
(553,44,cs),
(645,73,o),
(694,105,o),
(725,128,c),
(724,105,l),
(758,134,o),
(783,149,o),
(813,149,cs),
(849,149,o),
(857,133,o),
(857,118,cs),
(857,100,o),
(843,89,o),
(813,89,cs),
(779,89,o),
(766,108,o),
(766,134,cs),
(766,174,o),
(806,207,o),
(838,222,c),
(694,231,l),
(658,212,o),
(626,176,o),
(626,122,cs),
(626,53,o),
(670,-12,o),
(820,-12,cs),
(939,-12,o),
(1002,31,o),
(1002,113,cs),
(1002,212,o),
(913,237,o),
(832,237,cs),
(783,237,o),
(671,177,o),
(626,158,c),
(560,152,o),
(485,138,o),
(410,121,cs),
(329,103,o),
(272,97,o),
(232,97,cs),
(200,97,o),
(186,104,o),
(186,118,cs),
(186,124,o),
(189,129,o),
(194,132,cs),
(200,136,o),
(210,137,o),
(228,137,cs),
(394,137,ls),
(432,137,o),
(477,138,o),
(529,142,c),
(691,153,l),
(918,181,l),
(992,218,o),
(1028,278,o),
(1028,370,cs),
(1028,474,o),
(952,581,o),
(762,581,cs),
(673,581,o),
(602,560,o),
(545,507,c),
(572,515,l),
(521,549,o),
(460,581,o),
(325,581,cs)
);
}
);
width = 1064;
},
{
anchors = (
{
name = bottom;
pos = (419,0);
},
{
name = top;
pos = (419,569);
}
);
layerId = "7D50CFCE-8270-4149-A6BB-939E1A586542";
shapes = (
{
closed = 1;
nodes = (
(106,581,o),
(30,501,o),
(30,396,cs),
(30,293,o),
(88,247,o),
(182,247,cs),
(294,247,o),
(327,307,o),
(327,369,cs),
(327,451,o),
(272,477,o),
(215,477,cs),
(170,477,o),
(127,466,o),
(89,436,c),
(141,402,l),
(154,414,o),
(166,420,o),
(179,420,cs),
(194,420,o),
(203,406,o),
(203,380,cs),
(203,348,o),
(194,338,o),
(179,338,cs),
(166,338,o),
(155,351,o),
(155,391,cs),
(155,408,o),
(158,423,o),
(164,433,c),
(165,437,o),
(172,454,o),
(174,457,c),
(195,470,o),
(234,478,o),
(267,478,cs),
(304,478,o),
(331,466,o),
(349,446,cs),
(375,417,o),
(378,372,o),
(378,313,cs),
(378,266,l),
(520,266,l),
(520,346,ls),
(520,404,o),
(525,433,o),
(547,450,cs),
(557,458,o),
(569,461,o),
(584,461,cs),
(625,461,o),
(654,424,o),
(654,363,cs),
(654,322,o),
(644,292,o),
(623,272,cs),
(601,251,o),
(569,241,o),
(500,241,cs),
(231,241,ls),
(151,241,o),
(115,233,o),
(82,215,cs),
(46,195,o),
(24,161,o),
(24,111,cs),
(24,20,o),
(91,-12,o),
(191,-12,cs),
(258,-12,o),
(325,1,o),
(413,34,cs),
(487,62,o),
(538,97,o),
(570,127,c),
(585,116,l),
(608,141,o),
(618,152,o),
(633,152,cs),
(653,152,o),
(659,136,o),
(659,115,cs),
(659,94,o),
(649,83,o),
(633,83,cs),
(612,83,o),
(606,103,o),
(606,120,cs),
(606,159,o),
(640,196,o),
(666,211,c),
(541,230,l),
(518,210,o),
(484,172,o),
(484,118,cs),
(484,53,o),
(521,-12,o),
(637,-12,cs),
(734,-12,o),
(785,31,o),
(785,111,cs),
(785,203,o),
(715,234,o),
(655,234,cs),
(618,234,o),
(515,174,o),
(485,155,c),
(439,148,o),
(381,135,o),
(323,118,cs),
(256,98,o),
(231,93,o),
(203,93,cs),
(177,93,o),
(167,102,o),
(167,115,cs),
(167,121,o),
(169,128,o),
(175,132,cs),
(182,137,o),
(192,140,o),
(225,140,cs),
(315,140,ls),
(351,140,o),
(401,140,o),
(443,146,c),
(542,153,l),
(704,184,l),
(767,215,o),
(806,277,o),
(806,362,cs),
(806,474,o),
(745,581,o),
(595,581,cs),
(529,581,o),
(476,562,o),
(430,511,c),
(452,515,l),
(417,546,o),
(371,581,o),
(266,581,cs)
);
}
);
width = 838;
}
);
script = malayalam;
subCategory = Other;
unicode = 3356;
},
